<mxfile host="Electron" agent="Mozilla/5.0 (X11; Linux x86_64) AppleWebKit/537.36 (KHTML, like Gecko) draw.io/26.1.1 Chrome/134.0.6998.205 Electron/35.5.1 Safari/537.36" version="26.1.1">
  <diagram name="Page-1" id="ZJdqDWIf8fVZ6sShqXw9">
    <mxGraphModel dx="689" dy="528" grid="1" gridSize="10" guides="1" tooltips="1" connect="1" arrows="1" fold="1" page="1" pageScale="1" pageWidth="850" pageHeight="1100" math="0" shadow="0">
      <root>
        <mxCell id="0" />
        <mxCell id="1" parent="0" />
        <mxCell id="iqJVpxYbWQjncIScGIDG-18" value="" style="rounded=0;whiteSpace=wrap;html=1;fillColor=none;strokeColor=none;" parent="1" vertex="1">
          <mxGeometry x="130" y="340" width="530" height="260" as="geometry" />
        </mxCell>
        <mxCell id="YRdwhLvaDDDTgWAOQHU9-8" style="edgeStyle=orthogonalEdgeStyle;rounded=0;hachureGap=4;orthogonalLoop=1;jettySize=auto;html=1;exitX=1;exitY=0.25;exitDx=0;exitDy=0;fontFamily=Architects Daughter;fontSource=https%3A%2F%2Ffonts.googleapis.com%2Fcss%3Ffamily%3DArchitects%2BDaughter;entryX=1;entryY=0.75;entryDx=0;entryDy=0;fillColor=#f8cecc;strokeColor=#B85450;" parent="1" source="YRdwhLvaDDDTgWAOQHU9-2" target="YRdwhLvaDDDTgWAOQHU9-3" edge="1">
          <mxGeometry relative="1" as="geometry">
            <mxPoint x="420" y="410" as="targetPoint" />
            <Array as="points">
              <mxPoint x="470" y="533" />
              <mxPoint x="470" y="408" />
            </Array>
          </mxGeometry>
        </mxCell>
        <mxCell id="YRdwhLvaDDDTgWAOQHU9-10" style="edgeStyle=orthogonalEdgeStyle;rounded=0;hachureGap=4;orthogonalLoop=1;jettySize=auto;html=1;exitX=1;exitY=0.75;exitDx=0;exitDy=0;entryX=1;entryY=0.25;entryDx=0;entryDy=0;fontFamily=Architects Daughter;fontSource=https%3A%2F%2Ffonts.googleapis.com%2Fcss%3Ffamily%3DArchitects%2BDaughter;fillColor=#d5e8d4;strokeColor=#00994D;" parent="1" source="YRdwhLvaDDDTgWAOQHU9-2" target="YRdwhLvaDDDTgWAOQHU9-3" edge="1">
          <mxGeometry relative="1" as="geometry">
            <Array as="points">
              <mxPoint x="550" y="568" />
              <mxPoint x="550" y="382" />
            </Array>
          </mxGeometry>
        </mxCell>
        <mxCell id="YRdwhLvaDDDTgWAOQHU9-2" value="Environment" style="rounded=1;whiteSpace=wrap;html=1;hachureGap=4;fontFamily=Helvetica;fillColor=#ffe6cc;strokeColor=#d79b00;fontSize=14;" parent="1" vertex="1">
          <mxGeometry x="275" y="515" width="150" height="70" as="geometry" />
        </mxCell>
        <mxCell id="YRdwhLvaDDDTgWAOQHU9-4" style="edgeStyle=orthogonalEdgeStyle;rounded=0;hachureGap=4;orthogonalLoop=1;jettySize=auto;html=1;fontFamily=Architects Daughter;fontSource=https%3A%2F%2Ffonts.googleapis.com%2Fcss%3Ffamily%3DArchitects%2BDaughter;entryX=0;entryY=0.5;entryDx=0;entryDy=0;exitX=0;exitY=0.5;exitDx=0;exitDy=0;fontColor=#004C99;strokeColor=#004C99;" parent="1" source="YRdwhLvaDDDTgWAOQHU9-3" target="YRdwhLvaDDDTgWAOQHU9-2" edge="1">
          <mxGeometry relative="1" as="geometry">
            <mxPoint x="230" y="400" as="targetPoint" />
            <Array as="points">
              <mxPoint x="230" y="395" />
              <mxPoint x="230" y="550" />
            </Array>
          </mxGeometry>
        </mxCell>
        <mxCell id="YRdwhLvaDDDTgWAOQHU9-3" value="Agent" style="rounded=1;whiteSpace=wrap;html=1;hachureGap=4;fontFamily=Helvetica;fillColor=#e1d5e7;strokeColor=#9673a6;fontSize=14;" parent="1" vertex="1">
          <mxGeometry x="292.5" y="370" width="115" height="50" as="geometry" />
        </mxCell>
        <mxCell id="YRdwhLvaDDDTgWAOQHU9-7" value="a&lt;sub style=&quot;font-size: 14px;&quot;&gt;t&lt;/sub&gt;" style="text;html=1;align=center;verticalAlign=middle;whiteSpace=wrap;rounded=0;fontFamily=Helvetica;fontSize=14;fontColor=#004C99;" parent="1" vertex="1">
          <mxGeometry x="190" y="430" width="30" height="20" as="geometry" />
        </mxCell>
        <mxCell id="YRdwhLvaDDDTgWAOQHU9-11" value="&lt;span style=&quot;font-size: 14px;&quot;&gt;r&lt;/span&gt;&lt;span style=&quot;font-size: 14px;&quot;&gt;&lt;sub&gt;t&lt;/sub&gt;&lt;/span&gt;" style="text;html=1;align=center;verticalAlign=middle;whiteSpace=wrap;rounded=0;fontFamily=Helvetica;fontSize=14;fontColor=#B85450;" parent="1" vertex="1">
          <mxGeometry x="477" y="430" width="30" height="20" as="geometry" />
        </mxCell>
        <mxCell id="YRdwhLvaDDDTgWAOQHU9-12" value="&lt;span style=&quot;font-size: 14px;&quot;&gt;s&lt;/span&gt;&lt;span style=&quot;font-size: 14px;&quot;&gt;&lt;sub&gt;t&lt;/sub&gt;&lt;/span&gt;" style="text;html=1;align=center;verticalAlign=middle;whiteSpace=wrap;rounded=0;fontFamily=Helvetica;fontSize=14;fontColor=#00994D;" parent="1" vertex="1">
          <mxGeometry x="548" y="440" width="30" height="20" as="geometry" />
        </mxCell>
        <mxCell id="iqJVpxYbWQjncIScGIDG-14" value="" style="group" parent="1" vertex="1" connectable="0">
          <mxGeometry x="560" y="420" width="70" height="60" as="geometry" />
        </mxCell>
        <mxCell id="iqJVpxYbWQjncIScGIDG-19" value="" style="group" parent="iqJVpxYbWQjncIScGIDG-14" vertex="1" connectable="0">
          <mxGeometry x="28" width="60.50847930652512" height="49.397302610618176" as="geometry" />
        </mxCell>
        <mxCell id="iqJVpxYbWQjncIScGIDG-3" value="" style="shape=image;verticalLabelPosition=bottom;labelBackgroundColor=default;verticalAlign=top;aspect=fixed;imageAspect=0;image=data:image/png,iVBORw0KGgoAAAANSUhEUgAAAfAAAAFxCAYAAACMQPqbAAAABHNCSVQICAgIfAhkiAAAIABJREFUeF7tvfmTZed53/eec95z7rn7vvS+Ts++AJjBTmwECVIgKVKUFKqoMJFkx+VYLqUcJSknldj5wbGrErucSqVS5XLsVGzJJYqiSTFcxAUkCAoEAQyAwWw9093Te/dd+t6++z37TetfIH741BQPfm+88z73Pc/yfb7P91HO/vf/Yiyg/+QIOvjk2EByZ0/8b29ihx/+8dPY2c7jfezsqVwbO5s8uG9HsOMTERs7u2NFsbM9X8XOjhkudrblcU41qnP3bg+4t8a9NOyZhQeHFggtEFogtEBogYffAtJJcZeIHHNn++C963+fq4KH0wFm9MiHCexs+VILOzsYK9jZxx8WsbONR6vY2eVEDzv7eBTDzj7qxLGz/RpXiYpFDmGLRrjqXwYRDEEXVp5zbMkd7t6dZe7eiU0OdOlf43omcwkuWzRUD3Oqsy9x9z6yuITN1DibO4aG/d5Gnrt3M8KdPbQMzObpGOfXpOxzwWTMvXPRPsXdW1rYWxN2ljv79HQNO3wlxp3959uPYPc+Ws9jZ//Wc29hZ//oYAU7W1c5lGsh3cTuvbPPvTWlq2P3bgYc4iJNDlkUIw7dE2BRJGKHXPV/9KSPPfSewxGqXDBbfHXmNmZzf5pDXMjWARlEjz4oYb/33HMc4hJLcZXJECQOmhmwAicrMo0jqQoPbNeMVa76V/sc7GG7HEv1X3/wDOZUK8UOdvZy+gg7+4PaFHb2mUIdO/uwyMFcbcfE7p2OcQHcWeNITcMxF0wkyK8RgoslQqhcFTwqcgE8vsud3axwPdFPnF7FHJs75qrgCAg1keNUe/009nsXJriErdpLYveO6lwP3Ks42L2VgPOpMuBaB5jB/+ZgzeKMPuYKUeFxMVRInYPvmw7HziWh5HPJQ+w7O1PiquD6kHvouegQs/mD6zPY2T0uTxWROU5jYjrLMeCll+WyJuMIjGTYMxeCRD0yGxzyEH+R68/dPJjAfvHLkwfY2WQFntJBSDXCwXu3H3Ctg6lLHFlzf7OAvXNxm0Me3Ke5kUUpfK4SjXHFwUkU5d6aBZL3ak9wF1/kTC6emNnGTt/ucz3RlQSXJOsqiLiMOMQlnuVITYrCfd9aipuHDrIcoWp7kyMtytgel6kOuaJIpB5wDz1/izt7lOdwrvoclyX3bI7c03uTy9hWPzXAEpe8wZ2djHDVf6vPjRU1fs451dzVBvbWGjWO8xDd5ZJkzptjP3V4cGiB0AKhBUILhBZ4+C0gfa4wESqHuAhyhK1xhcubnBwHa06YHMw1n+IED45e4iDVGkjmyhocmSsX4WyuFjgxlcZj3DdGLq9pWBySbC1yDHjpxTg4N7HD9d9JGdfA4GyuupzNO6+XsZTX+jWOaGKAveBKkrt3A5RS3WpzvANyI9jI5saKDI0rDjSwB05O10g/yRndi3K9AxJ5UDwuiI5NLnnwHuFGPe7WuOTBBJcdmJKbMjkCiWRJEO05eoPrQ/sXON5B/Q7H9VAdzqfakxzqIUWE0+31OQEb4XOqniK9xgXR/J+8h1XB3b/kZlQzJgepLiQ4SPWHD05jv7cKiiW5DlgcLHEOXfW49lz+DKf619jlEBdykkuKEdc7sPNc8qCNuIxtVOLOXvtnj2EOXTQ5ZrCf5Rzbo5ldzObkDPrbd7jBwUSRq0STIJxbb3KTHlLj/Lma5AhVOriFTZJwrlnjnKrHjYmi1X/0kEsevC4HudTL3LrB1VQFC+COzyXoRpqrRF2Pu7cpuWAS9LkeuJPlbF7KcVyPKjjCJsdxsAce4wK4yhEHhZPmIPRT3+R0mvc+lcECmVbm+u87He7eUYMLJitlTkrV8jkIfeMOp8QWneTeeSnOnU3KFddUbpGKVMDtVJKbMhH521ziUnucy1QPX+CCSXqDg9gin+Ay9Dq4YOJcnpPWrI44OHerxsl6nr7AtUzuPZjEkmSjyPnUwz4XRJNpjl8jtSFXBZNM8No1LoganPa9GExz1X+Pa4mKcyCsqalc4uIE3Dsnq6KIyUFsxyNOiS2S5ngmWOZwcnBnyAmaOEOubSGTO5zZh1xrUCicTxUmpykiLE62VwRgu2Yi1sUe+t097qFftznmf7DBbQRLX+IY0TbYf390cg9755bPBbIoOKppHXPJA1d+Y88sPDi0QGiB0AKhBUILPPwWkH0uQUfXahZuclCyneaY4OT4XGKby9DlZa4/99TSJuYp3vnBOezs8y9sYGdLsG0hQXiPlK+9c8whTaQKXGGSIwbLQOcCWeoBF8icBHc22JYUEU5TRHRAnebXNlewYBIF+7Ezz3CEqu0OJ65xscDtKg4E51ucgGPf13tcy2QhB/YlMc8iBPdrn1yarP7jXKtIDDmiqJj7LseY1AfcHPj531/HPrO2w907oXOz2LtNLoDv9rlpi1qXY98vF7jevx9wHdn9HrhOVOdGNaXR4bJFg+MVoUFUcKCH2PhNUEM2xzFkoxr3kd1ocxnbxRJXiRbT3Fxwo89Vg4rCfeBDj2tTGZJrU7WbnDJXz+AY0dLl7o3OYvfmuWyxeB0rBkVnmbu3ZXKAT9PhHnoEXCgy9DgFukaHC6IRg1viYnvcO7dBARvP53yLrHHvPIhwCZvUuHFJUX+Mm1GVnFSyyKxy0EPtOW5GVU1wVfDGcR7LmhyXe+e3DrjNWBqojW3f5CB0J89Vons9LpCpx1z1b57ifKr+Ggffy9J74GN7iYPv47tctlh9ilMNynyIxTGR/w0Ozp2Oc0zR61+7gBn90ufXsLPXW1zSxDE9hJg9xanf7VZz2O+NrqYGNf+957hWkdx9mQui6XtcELW41bXC4eK3IBGXlMERqlbinFMNvsh9YySB7krpAAsmr89wLRMXDCbBiIPvzRyXNjn73O+dnOeKAzk2uQq8t8A5tuL7mG8RzQvcvXWwdbDZ5qqD2Rg3ZhLRuH7s7lcXsYdu/s597GxV54hF9Vuc3GF0nqsG80nOuVSLXOJiu9zZUrG5KnjiTa75317k7p29y927P8MlD9kot73mW6sXsWByahLcyvUit8Tl/T1uK1cqxVWDQ4MrinyQSFZtcdBiIsH93p1jrvqXKhjAG5e5YKJxaK4IJHdvu8BVJpv3OUJVtMxVB/e2uHvPTzewxKUY5Wy+BYrI5BJconr8C676dxc4p9oZcrP3AoyhXBmKuZXw4NACoQVCC4QWCC3w8FtALn+Vy5KrT3FzoiOQxDbikmSRfMDlbArXChadJDdeI0bcGNnmZhnzUsVzD7CzowY3sljrcNWgPc/NBcdTnFBTEHCoprvGtQ7k1me4IKpzfAshOZRLaNw7FzY3sihiVcyfiwuzHCN6rcFlixcr3OjekcVpDjS6nF8Tt7gAHrvEMaJVUIFutMUF0fxFrk0ldY7jIibe5KLogy9w+tRukssWySDqfeYYi+AFk8sWb3ansXsnZrhs8VaN20416nOSwWQQncm2sbcWkxzqsQmKBpFojxwscIzJ7QyXoRvcOxdOjmOhR7gYKhotjq15Q+MY0Xqcc2w/Xj2NOfT5SW6xRkPlvrHYN7lqsPslLmErgUmyBq6P3d7iEDZugO3ErZCrTANO9U9oQ64CH3ItURHPcKMeGrij+dwE1zuISa4nSkKq6QgXyA5+i7N5/3vcB+79Nqe1oIMBPJLm2PdStjmCjQHC9zonnSs8rhAVKkgkU8CPrNnmeqLzaQ728MDl87URZ/P6G9wGuMuv3MNQj+tPcqhmy+bOdkD1O7vDtWuUS3/0LzCsiWRjR5rYNyZsTpDsZAadu7dX5iqThVlOTKU15BzbdIojNUkwYQvGHMrVAsl73ZGJfeCkzcdYFDtBksE96NJscTf3De4js7k9CwL0LUJwJhcTk1wlWgJFRRxwxeNanevPXZvZwYLJgw73gfctriKbznDknjvrHM/EzHAtExMcWZSxKkewqT/OlYNgS1QoDhdF/RinxFYHpRZbfa4Kns9zvcH9IQf3qIIrDrDM4eTgMwUO7SHvHdviiEXeRQ7d67Y53yJ3XuGMrnAE+BPcg3vqZBA9+39wvYP7/4ibjx2DQg8btQL22B5b3sbOzugcaTEFktgckHdQH3K8A+s0VwULm+NyyT2ubcHJcmFuJTw4tEBogdACoQVCCzz8FpC+ycFckRaXP4y5hE14grv39hc5HVe5xn0w2kWOzKVwHRPO4CcnR8Hl83vtDHb3pMmNFSmgGprS4Hr/gclBqjFO5FFI2eeCiRcnkwfOqy7+CQdj73yeg3OV89zcoGlw83Pt+1wfelPn7l02uVnNeITriV4p7GHJw70Ol6DHF7kkeXSP04huX+Z4ZDLKybiKAUdaFGCbSqz9HseQJefAYyBb0wP3JM9e5FL0nTqXPNQynCLZ1RLHgNdBco8LOrZeh5OnHue5RFXGwLNJMtdYchW4XeDOjtY41AP8vkVvLYtVJpcf38DOTukcuedcllOBm4pwI027FvfWWi6n1FQ75pKmscP5NcUCe6JkAB9Oc4FM73E/uJvkeibkAhlSPIdM2EhJUVLggjx7e8QhTU2HC6I3DyawZNGtc1XwzOkadu+9Qw5pyme4RUlScblesMq1qYTR5pKHeJVLHhIcmiv2X8C+b7Hf53pkZBX8YYuTFJ1JcBX4UpzrDW7GuGBynOa0NfImt11yb8D1/rOz3L3l1OtcA373Fe6xGW0ucRlMcMnDiBPmEhFOz0QkDY4ZnJIchF4EFeiWwSDa9zlGdLfPzQVP/KWBZcm3Hl/Ezo4sclVw3+Hemtx/8VcziII8E1REZszlDkI5y7HQ77yzgDmX6llOwIYcYStGOKe6PeB64KrGtSWVv82pwK2A4jmkjOt+n0uapJfg4FzjmCMe+FyrSLicPxdulpO/4+oSIT7z4jtYACcP3htxgex6Yxq7+rOVB9jZ9z+cwc4+3OV6/4NT3K4D1eD8mr7NeTYpu1wQdbJcpuqluMQlusfZXMS4h679gstctkocoWqrzQXRSpJDPcjRvYTGtUyWL3Jz4CScO53g5sAfqBzvoAMmDyCgiiWp4cGhBUILhBYILRBa4KG3gCS3ciU3OSJZ61Gu+vc5xEXEb3P9Gv8Jrhpc/fES9rH+zhd+gp39g8Mz2NnnCtxYkQtqJXvgfmjb4zhNdxpl7K1l4xwT3I1yiKqU3L1Fd4kLosLjkgdSQtbjNt+JcoJ7bIUXuLGiGDgvub/JSeeap7gJlw9r3PhcBJSvJbewbYG750n9edvlkiZp57kgGkS4PjS5qljvcskDyb4nd3LnwBnVXYvrz108u4NVRctJMGmSXPJwc5PTiE5Pcytc1QjHr7FA5IFM2CQZyLQB14IfG1ziktrkzgaRReFc5TSDt465IHo+fYgF0dqAIw6aGvd7bzQ50uLUBMfGnk9yYgsHbU4sqX3AScgaWU7nQZKCJnaBq8DBrXvC6HMBvP4olzSlJJehn05z1SDJiO5bHOfByHIB/FThCEuaPnyf0xwITnPo3oUKp7u/aXIJOvbQTg6WZE80iHMOXbG5QNZZ4EgPbo6z+XGbm1E9kFwweffBLPaNv3L2Dnb29To3D/2p6bvYvY/OcO/cAFEPUnefXNmbWOIkg6U+wN65UMY6drib4xy6VeQqcBHlAngyyfXnzmY5RnQlzrHv7YAj2BTioHPBPIsQezscfD8zxyEPd360jFk9foULoj44dSBHZQ7GHoMkNhJCJ5OH+CoHqSrPYN+3mDa5vuSsyfUl7/YrmNEvZ/axsz9ocypwF05xQi4TsS5mc+dxLllsrHNJk1oke+AdDkq2K1w1qLW5x+ZHuaRpuMKtgHMGnOj/0OcSl4aTwJzq6QSHPKyBG6JUMENvWdysZiC4Hnh9l1McVMGxYE3j/Ll08lwQzdzgIPQBNyYqpM8lTakPuf57+2PcW8Mi6MnBt464/dALM03s6l2HUywi+7GOx31jdY9LFtU4N7pnFrl2jedzv7eM7nOHd5e5zIXcyqV3uQBucUmykKBmcM3mxkwuF7kl7GWd06dOGRy0mNY5vsXtm3NY0rRwlntr4wxX/ZNiKk6XQxa5SII98fDg0AKhBUILhBYILfDwW0COJjhYU+9w1b+b4e7txznkwc1xDPjcDzl474PPcD2TXo/bXbt0mdsPTVbBFYMjcxkVTjJ4u8qRueYqXLtmc58ja2YmubcmZY8LoibnW4TLIaoiMLkAnnuPI+81r3E9sjjYl/zkCjeTfKfHJS6FSB8rcaoO94Hnk1w/9qDNCZr4ZF+Sq0vEcY1TO5RBhLv5gNN5EKl1LnHprnDVf/ss93trA87m9jHn0GtF7uyyyVUHO0MumJAkNnKhSD3O6Vvsv8+RNSMjsP8+w032SHWCg3vcHjfaY2c5BrzW56gHqss9dLfCORcFJNDd2OaWW8xVOCZ4JcYJ2Gx1ueTBBBepKNtcu6b8KCelun/I/d5ixBUmUkoOzg16HJzrRblKlJxZnP0rjp278WUuaXrhwn0MztXAmeSOwzn0uRgnYPP+ASfkMmpzSVNshUNcNJWLJeox51vIrZrS3ud0e4XGBVE/ycHYssMlLnsf5xy6muCSh8kIN06FZQ4nB6vgusEjUMBmKstJaw7i3FiRC8p6bm8Xsac+fY4TLGoPOZ8qVZuDVCXYt3AD7t7pe9zZ/VnsGxPGfe6hr8+XsIuTbGwXJBa9+b1LmM1XXniAnb33M47c4y5xSfLCHMdK9sB3Hlzn1qhKEN0TvslV4NEqF0StAuZbUJurXc7mv1hdxIx+cXkXO3vocdBi4iq3WGP769zvLT7G9f4Vh0P3LPCt9SwO9XAyXByTXoEjFplbnHOx8pzRUw+4QKaBiEvvIsfWnJ3mgsndwzIWwIsZbpTrQp4jNVU/z41yjcBAVm1zEw+tHqcBf7rMVf/DFMc74NK1E5dGZi6g5r8gYexAcomLmbSxQOaCesX/1aXXsHv/y299Bjv7M792Czv7Jqg/L0Ey11yeIw6u73Ftqp1OBntrs2mOb8HNM2HmDg8OLRBaILRAaIHQAg+/BaQKrtUMMhx8L0Zc7iJBQRM/zY16cA0TIZ4pb2Jf66TO7SJ/6rk72L0TGrfM5DwI32fARSo3jjnlPSPGKS12jrlpqqoGTjSdzJlg/425WCJUn+tD529xF689yf3gjs11bPZHHFP0ns4pVJHs3I7H9UQtn0sXuyAzmFSgc0aczSslbky09S7XOpB+gquCFYcLJgoYwO00lzyY3Lik8Ge4t+YEXPJwq8cpsdVH3AIZL+DufWRxyYMpOYXJYpQj7+0FnBpaZ8iJ5ziTHPIgSX1qcHRP+EkumNhpLlNVubcmolGOxJY3OMcWUbm3lkxxMPbrO8sYuvfJ+VXs7L1RFju773LJAwmhj464hE2Jct+3FGOuGsze5s7uLnDV/3Cag9DHoPpdAmTn3vznnKjI6Hc5lurTE1zv/9HJPSyQtV3Ood+ucqstNY3zLU6fSx7IlZ7+jznkQY5Vbqyocwr7voWX5rImBRzlit3jPrLRLAdjL/4hp8xFLjP5TusC9pE9dYqz+es3zmD3jm1x7zzyLLeT2zrikMUgxxWD6gvc6J4svMddvHGVSx4S97nHNqpw9x6d5yDVmSSnUCUVrjJ5bJ5TYiuanM2bNtd/V2Jcgm4+yxGqFJBAN3PlAEuatnY5HfZimfu95bDCBXA1ywWTYYa7t25yzmUMasD3HU7u0FC5UY9Xircxx3ZvyDHgDbD3f2aWU4HbOeZ64CoYwLMprlW0E+G+b8vlikHZX+ZYTcoAvPgxB3N509zCAd/i7n1gc2pJQYlL2LDofXLwt25dxI4/P89VZNilTw4eDbk21dkpLnFp2xwTPBrjZJoTJkfOlXqTC6IqZ3NBsrGdBvfQzRlOG9vucPd+srSF+fRhwCEPX77yNnbvrVEeO7tlcyS2T67cxe69PeAIVZv7HIy9NM1poacMLoBzVGzsiYcHhxYILRBaILRAaIGH3wIyyiUuoneBK8H1Qw7mSoLbyPplDkJX+hr2xWhgb3AClFLVFa43uGdxveAeyLfIZLgW2WsNcFfxgPMtu03urZGb0GTvPNcDF+AIm5vmHFunwLHQx+BHlpjlGNH3upzc4aLJZclrI+7eb6wvYQlbJMr5tZ8Jbhd5PskJFrVvcFMHiTkuaaoNktg7l2NQUjS6xfUGY5xPFc3HOBa6YnFVsHOX0yM/2ODO/sXfHmIfeEpykx4vr9zD7v3DtdPY2fki93tvd7hK1DrNvbVgxPFrTINLFmWkxsEebpKrRL0ex0pWPO5sFPWY4Fom/RWOaPL6u2exYPJ3XngNO5vUgP/UaW4LG6m7f7dWxn5vtcoVZLLOBXD5whFmc+mmOIEL1eECGTjRJMYGZ3MBzoEr4BpVr8nBe6Vz3Af+XnsOcy6kiMxitIHde9/mquDzFW6M7EOXW14TOcuhHmNQjlyOQUlRf8jBuYHBJQ+CAx6EYnC9fzHmfm9/zBm9HOd6/07A2TyhcajHscvth7bBzXekkEsxy71zCe7kbva4tya1OjcHrs1zhAunx8E9isVN76mgxKTvcfe+cHEbq8gKJjd7Xx2lsHvf7XJLPe4eclDy751/C7P5G3sccbBX41CuyiynR+44XBta+iWuL2nqXDXogpUoVwsKEThcRRbf4JJFb4lLHooGF8CnTU7e8s/uP4oFsq+c4wRsspIrTGyXCybzizXs9y7HuG+suskJFkkN7McOWpxakiCJZNgzFyKxxgXR2EtcX5LUQg8Elzz8xcZl7LWdLnGjHiSMfehwksHOgNO3yE9wfWhyD3qswiUPMgDHyIxDLpioXHtOmNzGPzHkUE2Rkdz43Ez8GAtkXZdjyD43s4HdOyE5dO8//OQZ7N6PXV3HzlZUjiC7EOcc29ducGiPALlccvH/xt6a2HqVA5PdFHf2WHIVmQdOHeytcaIixUscrLmU4Fjof7V9BvvAv7j4AXZ2fL6LnX19awY7++riDna2D7Kxpya4HngJhO+5SII9s/Dg0AKhBUILhBYILfDwW0A++H3uEsYmN8plgVKqdp6r/s/+S64Pfe/vcczgwz7Hxi5GuB7Zo5U97APfHnGbsexbXB/6mY9z+9/jkusNeuDI4gjcyU2O7kmlyY1T+SYXyLQhBz4oLpe43P1jbtmBzHAkl/abHHyf+o0HWBDN69xs7k8aK9i93VlO1pNcZSpVbrKn4Uax33toceS9G3uT2L1lEOV+8ADsBQtwO5XZ4pKHSIsbMzGmuL5k/gWuRxYFF9+XJWdzsjJJZ7lk8WyaG6e62Z7AgsnaPpckTxQ72L3Jg6Vic8Ektcad3bnKQU2iAc5iH3CoRwOUM51Lcyz0r649gn3jX155Fzv7/ttz2NmvvPQedvbdDtcq2jziZpInS5zmwN4+d28jwU1byGiVC6JmmwsmHVATXOeKItF4khszMeLcQydX/r04t4YFk3+/eg07+9nnuF5wxeA+so0x16YqpbmWSVRyW7lyRe7eU0mu+pfDWQ5Cd9JcJSrAvdjpTc7mvUWu/263Ob7FqWlOSjWicvPvT8xw976W2sSShxjYtjgeXcDufaWwj539foNbZnK1tIvd+9jhBMmkMLlg4oPbyPQehzwcPs0hD/E9LoAHj3Ns7Nko1wO3x5xgUdvhiEVpjetDu2OO61EE54I3ehyUPJnkUI/VDtd/74C7yKWwuCo40uSCKLmLnNxGNpzkIPTEG9woV3+eq/6/tXoRqw4+e+YmdvbqiGPnPhhyMHbL4iqyRwrc2OBmn0sepuIcjJ3UOT6VjNS5AO5zPlX4OQ7WnPkmVwU7Ke73Pv51rgL/8d4pLJA9v8z1wO/3uMpkJclpoWM/9snB5ExySnLjc1tNbu7/XJlj/id0jtsj3TRXkcW3uQrcS3KB7OBZLoCTji3zPW7d4OhVLkPvgvOxzSG3q7iU54hF3/7+49hTn7nGVcGvV5exeydMrhIdelyb6njEIS5cBMWeWXhwaIHQAqEFQguEFnj4LSBju1wM753iCHTGEVeBe0mOxJZZ5ar/4/PcvaeT3DKT6+vcPLQe5UZ7tkdcT/SRj93HvPOdBjcHPp3hZrEDcJkJufnuWHAVuFS4GCoEF0sEGUS1IXdxi2tTiSDP9Yr6Nke4KJU4+D5ucLDmT7Y5OPcs2BP99PxdLHlo2Fybiuy//2SPe2vZODdtIXsrXATXBlz1r/e4IOpkuEpUs7h76yZHHCSrA13jvrGuze0in8tzo3u7XW6ZyaU0N4utg1roXY97a1GDQ5p2q1xVJEWMc6rJW1xV5HATTWKscgHcyWLFgTA0jjDZriexiw9AqcWJHFf9b/5iFrP5eJ6riu70OD3y6zcXMZtfPr+FnT3mXKogJWTROXCHS5JFFJxwGXHftxhL7qUr4AKZYoXrDeZiXDBZuzGDOdXLz65jZ5OLVK6vcZyHZ67cw2xeinBTB6bGFaLXd6cxm0vZ5hSLhlMctOiZHIltzHUOhAT776Meh7hMZrhKdASOuFy7xs2gG6CErBNwfm1hhqsOug4HYw89bqUnOUZ2qtLgAnjsEDtbjEERGZfjegijw0VwB5z7N2JcnyoXGWEP/f2/5kRkys9w4jmWz83m3m9xSmzPTG5ib+1n+xyEPpfhNv5lDE7A5u13ue9bDmY4SNWPcT1Rvc1V4AlOd1+4YO9fA3vgNw45Wc/yFU4l6kGHI9gkQQa87XDJw8DjkKZOjeN63LvBEWyufeIOljQVlpvY2VJxOVay0LjkwQWlVFNvcPfuLHPQor3DOZcgwiWLfoLrgbdaHNTkgrK9yShXka13uOr/0ukdLJgsPnaEnb3a5Wbv64ccmUt6ZW4219zieibWFEd66M1w1YGf5O4d3+KSh1GZS1RrRxzsUS5wG6LaA24T2hgUFWlsc6hH5dIDLIiWDI7EtiM5m5sZLlnkmrHYMwsPDi0QWiC0QGiB0AIPvwWkIjlokayCtR7XA+8ucRC4gKpSAAAgAElEQVR6Yo2rgvunwOq/wEmpDrtcJUq6KHeLg++tHEeYvHh+GzN71+H67/s2ByXvgMI9nsvFEnn6n3Is1dX/koM9/AgXRAUo5OLmuIRNb3KtA8G1JUU0yUFszS63jcyPc2+tVOHGBp2Ac+gkG/s7b1/BEpfffuoX2Nlfu/8UdrZc/SMuazIPOQR/BPbAtQH3gfsgmSswuKRpuM8R6BbOHnAfuMoF0ZrJ2fzomKv+G03u3pUil7jEKlwxiH1gJwc/8cQqdrxM3ucg1cE059AVg3NsAgzgkSpXBXsJ0OZJDlKt/phTahotcyTVy0vcvOQ9t4Q5VVJ3vxT71QyiN9pT2O9dMjmbS3KlpzrkKnBV51Tg9A7HvndACH3u25zNN7/IoR6556qYc8mAAjYJnduEVklz7Pvmd7lgsvUCl7A9NbGFvfPrdU4y2Pa4IliS/VhyI5iV4oyuJDjkQQOTpq3Pc/cuT3ObsfYPOK6HMsWJTJB65LtHnKhI8kXurV0ucu2a5RgnIbsb537v6oBrmUgBLrdwshykSmrAk3rkToazuZLgYOypJNcb7A45fWrb5RLV9R7HHEzEOeKgBvIOJkzunZcld/ZEjENc1upFDHmQMs5BLp7K9WPVQxDGBoOoCirvadtcIJMLXOKSiXM67EWwJ2qmOW3sQHDCPbMxrgLXBPfO7THnz1/J3sSCaM8F/RqpWCQ4RFXoHO9AuFnw4mAA90EW+uGQg7mGoC73+pCrghfzHHzftrnZe5LEVoxwjo1smVyI7mEBfC7GvXPpN7nBfxK+t0pcpjoGxXN8LlkU0QlOTGXvPsdKFhxXUwhwbHBT4Xr/0QjXrtnrprFgUpfc+Nzjcw+we78/nMPO/vbWeexsGWly7FwXJHMFJhfAZZxTJAsiHLSIoj3YJyaEmuLaVOmfcZVod5nTgM9e5DbATca5fuzzuXvYS3fGHN/i9eoydu/5LNcyIWsDzODhwaEFQguEFggtEFrgYbeAtKY4qMmocaQHoXC5iya5eejxmENcrB7XrlGzXBVsRrmzu0tcz8TLcEhT3+ZIqmaK86lkH3rL4vgWz1fWsVj8vd2z2NlSAXW5dW77nIjWOSi5m+Oci0rqkce5xCV2m7O5fJ5joQ+LXPIQTXBnz6bbmFP92ducQ1ef4AiyS7EGZvPvHpzDzv7s7C3sbKlXOcc2PM194LLOVf/lH3BnN65ib01EalyPrH+Be2sL0SFm9DHHI8Pu/DcH73S4HQ9jcNri57vzmN3vJTii6N9dfB279/eaF7CzpcKhXCKW5ioTq80F0frjXJYcRDnynt7hArgKti2wr/vkYM/nWiYxg0uaogYHY0fnOaeaBZPFtsURJlVw/n0myukdSKfEPTadQ7FFAI7XqDbXf49UuSAKklQFqOshtg653uC4zyWqdpZTQytVOFnP2+tlLGfLnuXQHnKRyg1wjKzvcSi2VBwumAyOuYxtrHOVqLA4m/smV/2T+6ET73NvbfQY51SDOFeJyrvcLvKtCNc7IJc0PTjKY8lDOsYlbOQO9rUqKaXa54KJJ7hqUOHimBAl7qELjbu4GnCQS/88ByWT91aOOOa/VeZIi2KfEzQZpzhUczLFKbFNgfPv620ucTk7wWkOSOUU94Pr97iPzMmCzgUMZMGAg1RFhLP52OeSh8DiElV9xN17XOSq/0SSS5LTMY7bU4xyaodnk4dY9U9W4JfTnIyrJDfn2FGuGjRaXEXmgAG8/Bbn0KvPY9+3INeojjmQS7hpLmmKxjgSm6lzycNEjJuPXUpwo1yboO7+q8UPMefigx+4tAZcAx7cuie8JNcDVx0uiHYXuLMVsgoG1+ZO/Ziz+f7HMb8m7F0OYRMz3L23BLeb+p0bS9jF/87zr2Fn6wqXqO45IN8Cs3h4cGiB0AKhBUILhBYILfBLW0CWv8tV4NVXOJhLbXN9ySDP3dsJuB64NuCw5EiTq4IPPs/1YzVw852mcSiXNeT82pWJ/V/aIX/UP/yNuQ8+6v/il/77f/Xex37pv/2ofzgOON/ynz/65kf95//Sfy/rj3OOTYIqcG6OY4rG1jnnEuXGY4U+4DgPmTuctGb1KS6Q2eAucnufGyMjOQ+3U5Vf2iF/1D9cjB191P/FL/33/+TJb/zSf/tR/7AH7kkm4XsZ5DiiSfEHXCBrfIqrgkfTH/W5/vJ/P5rkErbi21yWfO+PYr+80T7iX04YnFJTu5b8iP/6j/DnMa4vqeTtj/APf3j/9K3mPPaPj2lcLCGJZGsDTkJWxlMgvGdxcK5PjvYcc/C9WODGTBovcPcee1zykDG5saLqkJu20CwuWfSKHNqjgguiSDnTb+1dxJKHao3Tvr+8uIvdWw7anEKV/RjnVBWL+8C9JFeZxAyudaBscJBq5go3XqMK7q2RErJunntrMsqdPRhy4jnuiEuSz88fYIFMqXDfWExyyIM0H3Awtl3geoNC535wrctVRY7DfeDR81wfWoKEql1wM5YElRa1SQ7tsYccuhcHlzRlk5xs78DlYslymuv9l01u7l+SGToJsSkDLpCReuRel6sOfJdLXFyPO5skc40rXHUwm+USto0et1DEAomDEckhD1sbnM13ktws9vlpToFOOlmuElVtrkcWaWJoj7CucVmy3+OyZCPKEQfjUY7U5BS4ZHGxwlUm3BcmhJHgEhf3gCNMNgOuTSXADY8vn7qHPbemw9lcjgucYwsaXDU4BJng0QiXJUff4h7b8AkugJcKnOZ/HNyLHYy5JHlzm6vIBEgkG8c5jksizxUHns9xmgIQSjZUzp9LcsmDOsGxc32Q7CE17gPvzXGIy7huYlnywikOctkfcgzZm+8tYDYXGS5hU0EBm1PznNhCtceNDZJ+7Yc3z2Hv/Kmz69jZXMqEXTk8OLRAaIHQAqEFQgs8/BaQ+j4HY7sTXJ9KNbgqWOFQTUHyDsaznObAscP1Je9WOSg5s8yJyNgu1/sfdDi0R1U4lIuctiBbRefOcju5TY1DmqQ7xQXRzNscoar9GGd0Gxzl0rlWsBj2udGeW/UJLN1eKHLwvQdqRLsRjvk/7HOFyUajgL21UpobaYr9Ay5p2vpfubdWinFOVWoNzqmax9wcuLHP3duJccmDN8edrYKqYN0jjrxHkntsUO2QRJp0kCjq9LnCZK+fx5KH6D/mELaK5Mh7XYdLFqWX5Rh01ae5rEmAQVS0uB88tcbZvLfEJWzRbS5h41yLEBLcuhdb7mDBZLiWxs7Wpjly7rjGVcEGqLyXMrhpKqlyfk1qJhfA/YBrBk/8kAtk3XmOOzi4xjkX7tYngWybkwyWcQ71mJjl5sB9EL7vZji/JsHRvQC8d6fFoVwiw3E91lsc6iGjca4Hbh1w2WL9MxzcExxzEFsEhBY1MFMdXsEKMpGMc2+NDKL1Y26kSXG4dNFTOPLeuWVuF/l2K4t9ZKTewXDEIaqSlJj0Exz0IEBZTxV0LjYopRpJcTDXRJGDczGvdnLwAbilSQHFVEibk+88pXPfWDrGJarrRxxxMJPgmmTSGXDVILmkSYCH+0kO3lMsrnUQHHIVWe8CZ/OkyTlVE0TYglspLI4mrnKtg1Yrgd1bVbiiqPsaNy45++ltzOa1PufXpNrkyD2Bwc1LGmBf0mlyrQMlwfVjRZ7L0Mevc/Ce8ilu2YG9ywUT7Qy3jWw+zfVEhxZXFBkqp28x+2tbWBAlN6G1tznCpBxLLogKncsWHXCpB/bKTw4eg62DMSieI57jNmMdNDgp1ekfcd/Y/vOceM6wzBUmszkueei6XHEwcjmb73/A6TwUz3FojxwnuIxNgHPBWo+Dkv0o51SFy5F7xjFu6kAFCXTTJc6hb3+uiOWLC/MH2Nl3785gZ6tJjhhcynNCLiNQeW88waF7EZ1rz3HeHPu8woNDC4QWCC0QWiC0wMNvAan0uUpUyXPkHv8YpP4XuGzRs7gRlzE49z+yub5kIc71giMZ7huL61wlWpxtYd7ZH3N10fGA0zvw1zgyV1DiuD3NHjf/LkWO+8hSb3KPrfMkF0Qn89xI08G7k5hjUxa5QEZqRO//hINzxSVOp/mwz7HQi3Hu3ktJrifasMAgWqlivqUx4oJovcPZXJJ7c/vPcQ5dB2dUk+Cspr7SxT4y9RecQ68nuA/cP8fNiRbBGdVGm2PAk8IeBZPza1mDe2vTJsf1eN1exvyaAfbApbLFMUVVDvUQ+kWuCg4ER+Y6U6pjD339aY68FwVJbFHwA++CKlETINJ0KccR6L5z6yL2jS1Mc993SudQTczgJweTYmgymOW0sT2b67+74LrBI4OrBsmdvYMNbl5SAVmqk5PcruLafU6hSj3HVaJkBV4pcyOLlseNct045tpzlRjHvi+YHOohpc6NkQUaV5H5Na7/fqxzqEdrzCUPcgZ06BscnHuU5myuFjkS284ON8JGBvABSJgkF0QlwI1gN752DivCL37xLna2dGpcMJFFrvpXfA7G1sGkadTlhB6mpjlyT/ppDlpsDLnkwe9yFVlxhuuJ7tc45b0KqLtPMqLXdjkp1Sd+4x4WRIceN+EiNXCUS+FiqIgvcj1wsmeSznPs3M6ISx7KUe7e5BY2YXAoVw/8vfVt7q3VNU7d0htyY6IGKGATkxzSlI9wvkX6YB9ajXHORZdc66DX5CBVLcfZ3PO5+djaiKuCG29XsOrAPMv1Bq0Gh+4VH2lgNm/s5LCzI3kO1VTByR4dXOLScbl2rBSguIZX5S7eKXLBJHmTgzVHFY5I5k9yLNU9i4NUxSLnVDlwT4hoieM8JCJcRdaIctKaWOZwcvAMqAG/O+T2DRz2uPFYLoqRLy08O7RAaIHQAqEFQgs85BaQRpLLVB2Vqw98B8xdwKO9NNc6UFvc762OOKOry1yPzB5yaM+4x52953Ejqun3QJnmV7iWSUxywh5dh7P5I6U9LA2QPtiXFDbnVFMT3EPvzXOOTUS4AG5UuQA+vsj93p7DEYtmJjhN8CNQ/a6c4n7v7UWuNVj5t1z//cNf53gmf+vKX2NB9NjjOE1S3ueIJmKFG4Afjrhgorgc/b7yfS6YNM9j35jQQc0Bb59jRI/SXLI47HCBzAT7sZllbnyuOc35NQkWg7rCFSbvHnG7DqQ1xcEeMYMjewS3OOKBn+WY4McrHOoR5UaxRW/IObZxhWtTNXY58h6JcpHEIsvmkqYADKKzBQ7tud6Zw6qD5gCswLVfUcYkmbioQ64/56xwjGh7zCEPpsklqsMmh3KZBe73thwukBm/4OBc6xy34bEywcm4qgo3/373qIQF8HiE+71l0OUqkxG4m1q2OChZneNaBwo4q+mAhCoFdC4KyPUg+++YRz052LrKjbCJBtc6IJfXGJJDVLvHXBWcmmxiT13GN7lqUFrc2e2LXEWWj3Pz0K0Gt7tWgL/3wOY+cCXOOTbMs/zNwWDSlPsOh3rUP85VZMMex7dI57lApoAcF9vlikE5muT6sfFtrh+rNzl4T5nkoCZZ4xAX/RS3i9wacPfO5rhqsN3hApmyz1Wi7c9wNld3uWRxXOL4FobGEcmuLuxgueoqCN/LQHLBpD/PJQ/klqYBuKNZcn5NkBuixn0uYfMzXO9fcJ+3kAvg/DuYsKngz21scBV4MM9d3NA4lGs+y5H3pGZxVbAyzfWCPZuDPWJvczB27woH70VucffWTnNvrb/KMcEjXc6pOuc4Ap1ucg7djXOtQZJf03c5lOuwz00VkfwaLnpjgEd4cGiB0AKhBUILhBZ4+C0gA7BnooJjRUqHg1SHj3OVCVcbCOFHOTw3kwIr8EWuN2iDSJOocnBudIkbp/LjXF0UMzmEzfU57zKV5NZD361zI2zSjHM/uL3NQapyxEGLSoVz6N4eR7DRh5zNvb8qYOm2+TLXI3O3uXnoIMdNepg6B6GPExyRzARHuXqgHvlKmlsf64G6+1KC9HuryD107vMWQufimBgXOJtbBod6RB7jMvRSgiNzdSW3ZlGAgkWmziUPWKZ4crCucsXB/gOuEv1Bi0tUkykOUZUji3Oq8Q84iG1U4eBcJ8UR6BRSeS/KTR3YoCpYvc85l9gst9SDhO8dj/vGjo6533uiwCWqqVnu7NN5rgJ/Z4OTcZXjPW5ONOByB+EXudbB2ON6ZKrGJS7jLndvS+PWDVoBd7aR5N652OZ8y/ESlywGLtcLbg+52fthn3vntRiXNKXf4e6NktiGec6hk0F06nvcB37wImdzxed6B2PwbFnnMlVXgoEszzWqNHBkMfUIt41ssMa1TNKnuXs3ulwAz3/uEOuaoCQ2C9wQlb7OwffVz3M9E2OLy9CdLNefi+xxQdRZ5KRz9QgXRCVI5rJMbibZB1cVk1NFpBKbEeV8i1S4JFmSDDojyhFNYkfcB94BITa7xDl0AS5SEYJDPUSLe2tOkkNcHIc7WwUFqrw0+I1xIJewQE1w45sc8rB7DivAhRxvcX0qucJpYx9+mkseyKUeKkhi0wwuS3ZB4iD3eQsx+R2OzHXwcY5vUT7DkZqq9TT2k49H3O8dAUfYor/DwdhFneOZSH2ZY6mS+2MlCC2qMS55cAYclDwGhXvI8TmlyVXg1ae4kkxNcSOLns9V/0qTIzUt/CUXTLY+y2ktBHnu3teWtrGETeYSnELVUY8TFfFrXC84AGexI9ucc7FnuY8smeXeuQu2iqw+lzwYIOJytJ7HnKoAv+/WOY7bkzrFCRbZDoc8dF3Op3JpKvd5hSeHFggtEFogtEBogYfeAjIV4RiyTbACTy9yWsn92zns4XinOAb8eMBlyfEIV/0LLkEXA8nxDno1brRHr3DvPArqkfee4XgHos9V/0GDO3sTbNdIkgIPPjVB9t81kHfggQx4xeYAn+MB1zJxLS5xEVwLXCTuc/ceXOaY4H2PCybGfe6dO2BxIDJcgk5+3/L23gRWDUY/4B6beL6J3TsR5cg9x9tcbzC+yE0dkLKeJHmPnAPvX+ScajrDcR7aVW43df7pKubXWn1uoika4YjBvQGXsMl8hlu00CpzF0+BIw9HHQ5aVKc4xzaocaRFvcVVg9riAHOqAahAp+ocfJ8AWybaJKcJrqmcqIi1x/k1f5Lza/kU931LGxT99zIczEUGUXfIjXIVS5xziec53sFhgauKsOh9cvA44DB0D+Q8kNKaS8Uj7CffaHCjXCq4XdIH90skQR6Z7Pe4Knhmlnvoe+vc6rvUFAclH/c4mMtPcD1wF9yDnj/FtWv6FsegU/qc+l3yTa4a9L7MjVOR7bn2fhZLXIIkh/as7ZSxe8vcj7gAPv4SVx3kZrlq0AYlB1VQznTwLtd/T4ALJhTumQvH5tAekeV64KNXOZ7JxkERc+jTZW6hSMvgaMkaqDBZzHJiaLL5EvfQxwfcOFUkyd1b+TCJfeDBObBfw33fwgGTJlIVzHfAKhgkkjked+8AHCuyXDBhi3MtUbJdU21zhYmMxrlARm4j87Y4iE0Bg2gA9orsJU5zQPkVHeUSPY68F6Q56EG+zSXJzhRHJPMLnM3Jt6amOBY6uqqYDKIRUGJylOQyVQWUcY3OcHAPOU41ArkeyQ84OVPrKQ5xGbS5MVED5CwqINKkCu7w8lscx6U7z7WCvYvcN8ZZHAORw4NDC4QWCC0QWiC0wMNvAUmOmYzADF1NcJCLr3Gw5hC0ubC5vqSIcf254RPcjGpE5+7tDrmqKPkIN+FCCnuQY8Gjz3LvfKVcx6Lx2k8XsLOlAa62dG0O7vGHXBBN3Ofge+sRTiM6WeREg8htRRGDC6KdNjc2mJvjJj1MUKjJA7XQRxbXrimkue97KsbpW9w/zUHo0jS4SpTsiQZ9LogOLnDEQQGykh1Qhz0Ad5F317n52LHOEaoGUS6Y9Ifc/HsRDGSdY07t0I5xRZEdcGeTIjISnVEdcB846M+FcDnqgQKe7R6kMajpwsfWsbPfb3JkrtIMNxeMGfzk4MYRx0KvTHJEUb/E+RZTcsXgjcYk9txmS5xwj2zXuYce2eOq4IA7WngJrirSK1yfyta4nii5dS9V4Rx6q8tB6OcnucUabXD7HIr2/JRTmIx+fA8LoiNQsMgH5/6lmeZmc+VdLooOp7j++zjB9UQVUIktXuB6RS2bq4L7mxzykFnmKnByZa/UOGnNzTYnUJV6jiNzdW0uQSfbsQZIFJWZOEdqOrrKwT2Rm1yvyAJZ6Lb1q8kEb4PrBkmd5jZIYivGOVLTaMD1wH1Q36Kc4NCetX2u+tdAroflcIWoHNhcHzqd5JKH7iUM7RHJN7nkYTjJIQ+eyiUP7Q5ncw2c9PDBzXd9hwuipMKk1LgWWUrnCLJBl4slgcb5NX/Itank6G4Gi2TeCreVywPZ2J3zHISujjjUQ4DMwUyag+/JkaaDBlcV1Y45fo0Bju51D7l7D9Pc6J5xxCXoTpZLmoIct7RH+jHw4jvcQx+DRlccTq9YK3OoB7nkIWlwlUlzwFX/+gRHWnQPuMpEVLlENfIYB2Pf3uLY2MlLXPIwGecS9KjOse+5V47V/eHBoQVCC4QWCC0QWuDht4DUO1wMd0oclBxLcux7u8ZtWiChRfJzafS57XMkI3oqy1VF22CbapTlUK5KgkM9Ejlu6qDW4xDVfJSzed/lev9SPcfBPdom51SVMhdO/ChHuHDBvdixKAdj97rcGNnSZAN7bCSRTJNce86vc/D9KMuxkocgI9oFd7C3wRG2Opi4SBMcr7EKXO/ABWU902sc6tEG5S3JHjh5NjkPXf+QI7EVL3KJSw2s/ttNjvNgJjhC1VyeUyS7d28KS5KTFW5cUg5AzeDyj7hMtfocF0S9xzkimVbnxBbMPAdzWQr31kiBCz/PtakUcDF2Lsc51WaDa5FV0txkD6l2qKW5xGUIxlDpNjmHXnuWU0tSLS6AB5IbtxAmB2uSi3P6RxykWm0UsepARLjfu3bEBbJUmkuSYynubO6hCdEccciDtsZ93+48x6eS+etcMLHy3HMbTXB9aK3BVYNeGWxbgD2yWI5zqrbF/d5ji9vSRAp7RAtcJZoFCVXbVc6pyk2OZ+Kf4tA94z6XPMijpziHroOBLMhy91YiHKw5BteoWuDCgTQoGUxqJY8MjiEbPOAqMtvjEpcEqDmggsRB5SxHiC6BzP/Ro2AFTi638HJcIJMmF8DJUS5li8sWxymuT3XU4kZcCjnOsfVAMtd4kps6GL7NVaKjyxzi4jW4KtgF2zUHba4VHM2AATxxh8vQ+2e5IOqBsCbXOBDCy3C8A3HMaWPrWS6YNNe4YFI6fYQ9t+oOt5XLSXMtMsXhqn9txM2/+0mOb2E+4OKY2+J+b9m/yDm2s/9LB3Mum1/ixmusCY5AJ6JcAB97nHORkru3B8r2knPBCkkUzYDoHsi+98ocyhVNcLFEXOaqYHWVI2vKscMFk7Xf44JooHMZeqTAEao8cP5dqXHw3sjnWgdzf4nlqWLnS5zNtSHnW5QK9435oAa8OcONz6kq51O5L0wIt8IhydwXRlo8PDu0QGiB0AKhBUILPOQWUF58+Z9iadPGf8KNsIEolyBnc9UmR7AJolyPLLrPvbXRDAfnxje5/txghatMtCZ37/EkB+eOwZW95A529N6gmqncf44jFskOljsIP8n1RLU6F0T9BBdEk+tcENXA9ly0zgWT3svcmkXV4wC+YIL7vsc293ur4IiqNeSIZAJUmFTmOc0BaU1w1UEEdGx+FCRUgUxRxeeCaO8SF0VLP+KcS+Yu15dUPs/ZvLXOsdDHGa76H3N1iSAr0bHP+dT4AhdEg4C7t1RsLkt2ClzyIEBGtMIVB8Lg3rlQFrnfe1jmkKbmZW7rXl7h4NzUArfK1Aa3cpHCPf0+Nw9Nat/r4JRJ3OCY/1IFg4ksc87FGXEwtjfgkiajw2WLvsvdezjJlUUBWA0ObA55iEdAx6ZxraLekAuiySTHvu80OLGkdoNLkscFDmGTisM5dBJ6iN3jKrLBAgfv+SYHoY9JIZcpTivZ73FBdPSAm1FV9zjf0rvAfWNjLncQjs69NQEmTfNTnGDR1uoExmWXgvvGRFDlZlQdLlkUmTInrWm9z/UlxXnu3uAzF/P/kTv98D/jSGzKMhdElS7nW5JJDlkc9LnChFxeo6lc1hSZ4L4x6YN65JE9DsZWuN9bRHWuF9xf4SpRDRxxsbucY9v+LJagi1yMI7H1wT3J+hYHY/fnuN9bRrieqJbnEhc34JBFC9RhlxIcaQrOcJkLuVDEDbhesE8ut6hxTjV6xNk84KaKxKDAQaoOuFhDmeOCiRnnev/lFIdytS0O9RiBpMV4jiuKZIQjigoXlN7zfc6ht7ucrKd6xDn0IM9Bquohd+/hHHfv6Idcr0gFF4rIIodyJaMc6mH7XLYY1bl3XjviuB4JsGXCRTEOZQpPDi0QWiC0QGiB0AIPvQXk4CyXLao7ccyApJSqX+QgtliDI1QNua2aws5gT02oQ64/N5rlqiItylXBdofjPDRAJbZinoPQTbACV8BS1HE51EPq4EcWTHBMsomvcpBq9UucY7MucDYXfY606JW4QKZ2uA88csjZ3Jnl3pqe5JJkH9z4R6rAuaDKowHqkZMiMtIEL174P7le8ObvckFUIYlkIIFO63GVaOSYQx68RzihBzKYxG5ypKbBAvfWjCMuYbPAfmzJ5Kr/+ga3mloscfeWvQ74kX2Kqw5Ej6sO1DzXtvAGnGPTQA14qwAqsR1x35gwubGiwRKHesS2ON9i57i35nrc953QOdQjmOB8qnifI9BJVXKBLDLPZS7k8vnot7gf/PhlbrzGS3HORQG178c6942Ruw4W/4K79/5zHOdBmeDkTCcyHezit95axM6OneKWPIwf5ZIHmc9w8N7gZ0XsBw+ucj/40TXOsalVbhY7dgDC2GARLOfBpMnh4NydV7i3FoB7FgopTt9iOs4F8NzTXOJSG3Ja6IdHHENWpkzOuZGcw/EAABwOSURBVIhnG1gAb2xykqJjg4PYxhp3thfjArg1yXEeilHuG+sEXObiFEAIPc5VRa07BcyvVR/jgig5g75fzWI2j8S4dy4HDjduEQElRUWCc+gKuD9WGXPzFlaF68cu/jl3duPvc/1YcuveGGxb2Otcmyp9roUFk7WdCna2ASrQRRNcwuaBvAPZHnAZeirGVSZGnMuacl/n2PetL3Cyf+4hd+8HX+aqfwOEsWN3uQR9OM0lTUGEQ5pIDfiJyjEWwFVQXCMT4ZCH1XfnMZtLcqVnfYuDsUWE60OLr3Cr71QwYRvrnFPNFDmuRxec9AjSmG8RIsp9Y7Nf5xK2vS9zZM1Gm+sFF9Jc73/ocShX6UId+8g4PBW7cnhwaIHQAqEFQguEFnj4LSBtcBWa2eAyVXGeg5INyfXfrT6nQCdAAl3G5CC29h5XBgcT3GxuZJt7a71JzjkHHvd9K02uTVWrc+1YWea+7wuTh9hjkwroVMl1ogLcRlZtcwSbWIrjHTj3uEDmznPJopbmgqiicjC2t8IFshb4e8eTHKGKK0uEKIA67Bq42bLvcomqjKRBhz7i+hbjLnc2KSqSOdXEssV6miM1DRzuI4vFOIdO6jSTZK54hrN5BETYKlOcvoUPyjTvt7hZ7P47nIyrNA2Oje0MuSCqWlz7HyRrYsH7bw7WMlwlOrS4AE6OSxoalzR5BxycOyhxAdxZ5aDk0kub2DfedLjtkoU0R1JtPs6Rc6XCkTVFDISaLFDeMgIukCFX/lXynEoU5tVODu5+j5vNlZ/m+nPGNMdKtnrc+FzyGjcH7gRcq6hxi1PW9ONcqyhW4ZIH2V3nFGzUCbBjM+YylwCEmuqdJBbLyJHFs5Uadu+DBc65cKwDIVSw/65FOOSBXOm5ccgF0SeeWcW+saHHIWy3D8AEXZvkgqjb4rSSSQjdynBtC1ItSXA5kyDnRMcpjsy1f7eMOVXy4NRCGzt+MOSq/7kyx3GRCpeo1kEt9HKWW8olvSrXr4nNcBcfVjnBAxNsHRigfG2/xyVspMSkHuUStmSB+8YUkOxhgkSydo1DuVoxjnfQsbhY0qpzNp+f4XZ6SHOaw+9JhmzyPtcrsotcKSo1LktWON6giCbBaYsNzrkYF7k+dKvPBRMtzs0Flya56r/V4QoTv83B2PEJLo5VO9xYsBx1uKpoCC71kI9zH7gPsu9tyfUGM6DUYvtOHoNUE2c4fWoyiNodDkpu+VySvFTmpJLbZNJU5HxqPMJNuPRG3DuXxj6XNQmOfS+cKcyfi2Seq4o0sAK3HG5sUJnhuB4kadH3ONijDFaiTVATfAAKe0RNLpCR8+9HLQ55MEyO48J93Vz8DE8OLRBaILRAaIHQAg+9BWTAFUXCy4CZS4Q72wbXS5rgDLptS+yDiZockWzQ5yA2sjqI6Vw12DG473tvnVPmSk9zWgukYFEAIk3ONlf9Sw+Ut1QTnFONgsvnY9/gSA+NJzgSGyl4kDA5ZS4f5HoMwOUWbTJZHHCtwdwsR2LzwB0P9TZH1kznuLbkoMol6JKch45WuAydrAbdV7nHJjc5ucPoHJewkWSu4D7n2OQ8Rywy/5TTpxaf4t5au82x76fLHGFyt8uNkU1mOeRhxD01IY1jjq05yHEM+LHLtf9jWc6pGg3u9yaXHXibHMyVuMBJa9rXc1jbwv1djo09PgA16Hpc9Z+f48iaoxzXj92pce88dYX7vqVzmgsmwuVmsVMFrgrudbhMVZzl0kX1PifbS2r+R8DRvdF5bj4WyxxODjYPuGASucJVwaTi4GKGC2S9EVcMRnXOp3KsopOPTOlwx/cEF0THDpe4SJB34IGzuZE699ZG3+f0qRMvc9KajsvZ3FvhKlHlXS5RvbfAtchOL3CLc2xwNXV9iyMtSnWPy1wEuFDEAxE2AS6fJ8VUrChXFQ0cDkIvXuOkFlMRToEuAL/vQYyDsQ9Oc22qscUlTfc2JzDQRe1y95bzHMolvQynzCVAdq4YcD+4Weaqg94ATNiwz/sE7QHfGtn7r/U5Ah25izwb5b6xQo5z6AObS1xIBrz5HnfvjsmhuVKYv5oBnFwoEo9yI01gDBWtdY5oorpcVdTscrAmqcQW9DnExZ/mfm/yGyNXmaZjHNpTv8oFcLIQlfo+N8OmrXCbkpJR7rG1QIcei3Kje0qeS1x8UEQmADf+iRz3eyfLXCVaPwRH2MAIbtS5pOloliNEmwnunZP9d26WCnzk4dGhBUILhBYILRBa4GG3gHSKHAU+rnKqYIHgILYSuAC+3uJU4MgtbDLJZej6DlcVeUOO8zAwOHQvNs+he8MW1xMl/bkKkhatHvfWhM3VwTJR4MgeUuP67wNwBZz1Dkcs8hc5jWitz43PKSlu9Z3H+XMxBmFNweXngoQ1p2e50T3L48i5JGmxPeA+Mh+Ur5X2PXCe6jQnf+eCC0W8RzgRGQ3MkgUoYKNqXAB3pzi+BUkkUyQXwTPXOVJT8NkuhsyObA7tyWW4YpBkwDcaXAyVygIXTGIGB2smweUW1W2OjZ2f4RYtWKe4dg35gUuDQ5q8FhfI0ve4arB9lfMtHdChR+McUbRnc+2a1t0CljRlTnPKe7KU4XpFpuQcuuVxmaqa5O6tCq4SNQ3u3mRlYoPrRKMNrj/XOcNV4CqYNCkg2jOT5RL0+x/OYEH0wrVN7Oz1Iy55kJU4F8A3jvOY0Un92vi7XL+mOcNlyXKaQ3s0jQsm8btcFexzP7cwWlzyMAY3Yy08s435tckY15Y0rnBIUy7CwfcjkEAn339nGXtsl69uYGf3Xc6ppj7HfeDVHkeg6+xzvSKhcMhDmhuPFWQA905zTlXZ4ZJkzKmdHOwEXNuCDKKWDyKqYJtKPnJtHXtvS3FOI/rHB6ewe18r72BnmxrHQr8Lyjy6B9yO5s5prjIxSlz2EAGnTGa+yr3zxnlOd//e7WnMt7x47TZ29mqTWxg0cb6G3Vs2R5xjK5vc7F4uxlUH2K99cvBhn5sDL6Y4Za79Jogle5zmAMk78N/ktnId/I9cL9ixOHRv6ewB5l7yBudTSVLy3iaXPMh6j8sWA8Ftr3F9bib5jlfBPrJ6nYOx56c4xEVLc6xkdZNLkrtt7mz1Elf9S3CVqb/Nad8P4qDNFQ5pqre51qAKrmjmWCZYCAsPDi0QWiC0QGiB0AIPvwWkAwqadC0O1hyOOJjLjHDjVLkCN3VAyteODzlSk8oV/0JWuXfuT3AzyZGfc8iieI6D74sxrk3VdrlvzHM5RDVicv5cemBv0DE4ogkohS6KCe4jI8UW+jbHeYjMcYnL6IALJrlbHMjWKnBOtX+FU787k+ECuOVzLPTrdW4O/OIM1/snJ5rk2fO7GI5QiHBzwW9uLWD3zkQ45/Lg9hR2b7XAVWS5NJc0jVJc4jKscGePudF7YUS54mCvza0yzcc5n0quSSbPljrX+5cjl5ufi8Y46OHSNJexeQFXFc2crWIB/Pi7k9jZ4uNcAFfAGXSfi99CkdzsvdPi2nOOz00dXHqE82s2WP3r4MhiMcolTVIDV3qOyOF70KkOQRlXH0welOc5zWAHnDqQES5DdwpcJap2OTg3WuOSZPNpbhtZAC4rOtzndjycWjjEioO1JiilWu1yc8ExUAt9v8eNUy1kWthj2zzi5GsjOhdMRre5mWSnxCFN0X0uiNo5DkOX3EiyIJc0dR0OeSCD6EKC86kkr0gOutwPvq9zQZSENasDbmaRvPfU/8AF8Pv/kJuPVZscjj2a4myugMhD9zSXuBRBtUMJIqo9l3vn7phDXPyAa5lIMeKYos0qV/0vL3C94PUHnJBLNMsR6Fb/AZewjbn4LfQh51yCGAffC4vzLQIksR20uXeeS3DQQ8LgSKpdcISteR+E0Ke+D2YP3O8tDv+ASx4S6xxx0HmUG0qWDe7eSW5/jPC5UWzRTXHJg9HiArgO9t+tR7mkqdHhRhbdBPd7dyxuBj2+wG2Ak+3/lGPnDnc4KDkJrpfsnuUylwh4b2WZm8XuTHOQqtzinMvZf84tWrj39zip5FiVK0wGDhfIEiDCVt/mSGxfeOJdjFf07Y3z2NmSJFzEljm2ZikOJi7grGYdXCeqS64yCcA+lTPJoR53/5sy5lzUJNeuaUc42MMAx2NH4CKV3AwnYFPQOX8+l+cIdBy+hrmV8ODQAqEFQguEFggt8PBbQDaOuF6wonJCDwqHsAlDcszgwTEH50ZSXOvAaXL3VhzusRWvc2c3XubOFqCIDIk0jTmXKixwr4YPstDJzZZy7HJFeDzPMSa7Q258jhRb0A85aNF2uLcmQOGeMdcSFfWXuBl0tcGNFQmdi2SDNpcsViocjE2OU93oTmPl9EKKawXLwgTHoOuPuA88FeX6c8c9bkdzEOUcW+lNLpLVPsahHgrYfxcDjrwXaXEV+GiKE5EplTmf2gELExJ5WG2UsAD+2YVb2NmyucMpVI117iNzbc6xqSAT3E9wRLKjy1wANw+4ETaD8+cCRBaFzklEi+E851sGNodyeatcS3SU55JkYXK/N7lGVaopjiFbyHLMQXKhSATsgR82OHhP4b4x4WS4wwPJtQ4Cg0NcQO0cETnkEjYrwZ3tgxMP8Qz3iztg//2d+ixXgX9saQM7vOtyfeiuw8H3KtiPVdJcwhZwAlXCeMC9NR9sW/hJDnGJbXEo12iSS9gEyCsiuR6ezyWqT85uYXHsyI5jZ8uWzfVjd7vc3twhOC+ZjHH998DinKoiOadqT3DwXmKNs7k15s4eTXC/twKu9Aw6HIQ+f4bbytX4wRQWyKK/yZE10U2HN2/OcUaf4Jpk7ohzbEegVnLmFnfvEcczERFOa0EMpjkYm+Q8KAYXwDVw2kIHxwbdgOOZ9Fe4INqwOQlZUvtejsEe2RjcXavvcJCqM8PNQw+f4ZIm7Q4HNXXPcs6l/FMuaao9xyUPkW2uEgVdi7BnuDZVz+Jagwq4GOv2IbcgKmJw6J6M5kDiwS6XNUU4FFukMtz8O5k09eY4x2aCIjL1F7hkUYKynm6KS1z0GY4gm/8et+Ph+AWO81Bc5OahowaXoMd1zq9xrAMMuA8PDi0QWiC0QGiB0AIPvwWkNeBgrvwKl7E1G9y8pAGy0Ds1rjqIgJuSbPCda8dcJUruxZbTYLtG5frvzWe5iky0OX/uprn+e7vFkbEvTHLEQTlVOcbSEAUMZPoB+NBT3EOXHe7s9BTXrglA5n9zxE1bCIv7vTHHcnKwv8XxLUSMSx7GoKCJ43Jv7dLUAfbcNtvcGlWwNBCi0eV64PJ0F/vBTZD0MCxx1UFnwInITGY5ObRuliMtRn/OBbLBJEegU11OxlXvc4HMTXBd0fNnuN3zjRH3zj85vYrFEtnscRd3Drizs4sc8kAuMyFRDweEsZsG99YCUOBiOMEF0eL73NlujAvgzUc5Ill8kiPvmRpHJHum+AALoqQwl3RAYQ/jmMsW2x2uZyI3uEo0Ac5DexzgIqwo1zKRp3uYc3FAFbjak9i1Tw7mYGwdbFOllrjxGlIUrGxy39hGr4A9dJlIcj94d44L4BJcKOJMczC2m+a6JqTmAOjPRVJyFZkd4QLZWOMqcNnm3rlb4b7vUoyrwIcepwEfUbjqf6OV5wL42UIdO3xN4zKX5iHHQo9kuJ6oSHLOxT3gUA8lz9lcBRnRWpfrx5Kb0DKrHIR+/CKXsN2tljF//tj0Lna2rnI2/6/P/BC7tzRUTkUmG+UETfJL3IjLbotb4ZoE96Db81yWTO4q1sBpi06Uq8Axr3ZycPNZzq/lM5xv8QMO1TyyOJ7Jh998AXtu//hv/XvsbHmjPokdPpHimOBHQ+6xkUSyVpe7twYuM8Ee+cnBQ4+rgkWMq0wiuxzvwJjmeqK96xyy6C1xo5qJCIdyZT/OzWIfuFxBJklpzR2wEk1/jWNUFX+/isWTnQOuX1PKck61+xoHLY5mwSDa5JIHhSuCBbna0gV3z+fA6v9SjpvFvnU8gfnU79fPYWdzeAt25fDg0AKhBUILhBYILfDwW0D2mhykKmwufxi+xFVFcXD2fuxwNp9OcGIq7z3CScimYhy0aIEolz3FleCRWxxJNfsYJxFtaJxfKxkcwrYCTteQPDIpj7hxC9/kxkzMEjc+5ziczZcXOfje8rl7n5vk7n2/UcRS/egVbvDfaXBJkw1uvkspHHFwNtnG3lpE5UiqZYPjU3313qOYzaWb57LkfIUz+qnsEWb0X6wtYGeTy+etPY53cPWxdczmBjgHnganDoKbnEZ07zRXifZG3PrYlWlOztQESQ+vteaw7/vXV25iZ0vBFcFiKcNBTWmdY2suzXAf2d4xt1gjvchVB9e3ZrCPzAfVDlNgAO8tc0FUTXF6B19c/gB7a2ejHJHs9nAKu/cj2T3s7BJY/UsF7EMHghNbOBxxPbKjAcc7WCxwSdOd+9PYR5ad4NAeH1wwMXC4US5Z4NpUXpOrgu/0OEZ0WnKFydc3LmPf9zMzm9jZuyNwjCy2z42Z3J0sYUY3dK46cFyuF0wmD8n73L0H6Qj31sDtc719LlEl5UxFmavAyaUebzSXsXe+XODakq+trWD3Vrg6VMjRBEe4MN9LY0Y3nm5gZ485yWDhg/qW1lVOoepUmfu9N+qcsEd+hmtbHCc5pGk84pJFcqnHCNQjHzmcYws8bromtsoVB1ItcjCXOsOxFtvgbmpnwD30Z05vYInLls6RmlI6N8rlDLnf2zO5SjRoc/B9eYFj32Mf2MnB+w0Ozo3HuVhydo5TYhtNct+3fHaB26O60+cIVbUuN+Liqlx1MPQ4p7qSARfndLhRrnyRm4/t9rnVtSLKtanIPQumxk32nJviAtm9ny5iucvFz9zFzt4ecuqW8lqKa/6XI9zFv9m+iP3gcxMckWy9ycG581muKtpf5aRUxykOaZqd4t5aVeH6740BN7I4sLgk+UyJS5LFGW6VqTvmuFyrTa44kBbYkC3o3A8+mzvGAji5jWwuzwXRNVDQJDnHqcCRm9DiOgeh55LctsH6Xc6pBjkuYVtTuQTdBcclex43dTAJLuXiOv9Y+AwPDi0QWiC0QGiB0AIPvwWUhT/5J5iUy6tnbmMW/NYNbmYxU+J6oqRWsiG53mAE7Evuvw6KyJznmP9mhKtEyR0PZ5f2Mb82cDn4fiXNTXpgBj852A04+F7GExw796cHHOnB3OaYgx09hr033eSCaCbBiUx4PveRxR7n+tBkP3bQ58Zr4ve577s9xREHG22u91+McsninRrHcTlX5pQ1pfcOxwSPPMn1Y8Ulrgoe97ksmexLNrvcXHDgc92iM+AilXt9TiyplOe+sd6TXO+/CW4bNG5w39hdg3trT05vYUXRezVOYVK++ptvYRf//zbOY2d/Yv4edvabtXnsbFNysGY+xWXojdsgqWmSk2pye1yyqGQ4kmo8wgXwtstV4FOf2MF8S2sEIovgBrhcjCNrysuxbewHfzcN9gZBHfbJBKfLfWxzzoXsgft5LnHZBndyp0tcEM2YXMtkr80hi77HtWteKK5h/vyvqmexs9e6HPue1BSRJrjD9VyW29E88Lj+XAJUBctFuGzxjbfOYR/4xBmOYEOq/p3Kc/rUEqyK+j1wrKjEydc+EtvCvrHYJId6lHVuTNQfcwibvD3i8PuYxlVFCY0j75GiAz/a5UT/Lz/Gqf45IInN/TOuN6j+AZck7/W5XQdXFzgo+WKKY6Fj0fvk4OUI99byGoc0rdqTmNnlv7v9OHb4ozPcDtfaiGNr1jqcjOuLcxzElpKcVvI31i9h71z/HNcyiUmuKqodc+98Ms7ZvO9z6N77w3nsnS9EOJRr1+VUPTMah2rK2SLHBL/+9inssc1d4rLkiM6Ncr2xt4TZ/PmZdexs0ubpGNcLdsAZ1ZkCp3YoVU6HnUT3PuhwvKJegmtb2AG3X+LX0jcwvyZzINFEXtnFLn4qxWWLxzGOrXn/mGNj/3DzNPZ7VzJcRUbKmb6zM4vZ/HSF0+WumNzvratcgt52uCB6aHEtk9dXudZg5Ar3e3PDsZhbCQ8OLRBaILRAaIHQAg+/BeR0lIO5ZsDtVH+6eQ379To9bpRrqsAxZKeTHFP0mRy3B/3Q4SqT5pAT9rh9i6v+vfNcbbKnczu5Mad2cvAbb3K6HslFzrfc7kxgZpenopwM3DmT60OLBczmYnvEzSyu97mzn8xxLPSez0GLTyc54uB/fOcx7KF/6gmuN/jzw3ns3g/A7zsLboD77PPvYDZ//WAZO3vrG5wkuPwPu1wl+gdzHEO243F96KjG3fugy+1ofmKWq4L/p/Vfxz7w55ZWsbNPr3BJMrniMWlyY6IXitw41XsH3FhwBOz9a2qAfWOf/Mqb2NnKP7r5OWwb2e0uNz9HjtccWRys+Wr5JvbYThmcY/vToyexez+T5tj3mxZHWjywudaB5XPLTB5JceTcJ2JckvzeaB77xtLgKFdF59qS8i8eXMGMboDjVGdyHEP29haXuHy6dAv7vb/TAVe46two1/+z8xRm84kYt1DEAFe4bnVzmM2X49yEy2mdEzSp+9zWvZTKfd+LZAAvJbkP/OnCJvaRvVblxg5mp7iH/n/dew6z+ZkilzQFoNzh8YBr1yyluLf25jZHNPnSmevYO/9c+n3s7B6Gpwqx7XD8mpjKtSVnJEegk0/mt7DHpiuc2MLjRW6JS1Zyyj3/ZvV57PdeA/tUz05xBDqzzEkGz0Y5oaadPLdQhPQtbZ+bMrkDynr+oM4tMzmX5tpzZHEgux732GZMzrms97je4H8x9ToWRP/wJY7cU5Qc2nN3xLUtSM3/f/ezZ7C39vsf+yl29p9tPIqdnT7NJegPRpxfG7jc6lqSMPlBnxuXlG/826vYQ/+Hf/Sn2Nn/5kefxM4WX+EC+GWTW/JQAhcONDxOlzuncXvQ/+eXOUIVqRHdmOF+70OHQx5Wu2XMr/kBN3tfG3G/dznKFSZy5rc5aPH6YB57bNY81zP52hE3unctxfEOUlHu7CroVIcat9yCXLNYDTgWetvlkMX3W1OYX1tIcqhm3+He+UaTW2ay/h43B86lTNgTDw8OLRBaILRAaIHQAg+/BZSnv//fYrxFx9MwC3586j52dlLj1moeudwa1bfq85jNvzDNqYLd7nP999evc8SiJ65w8+/v7XGCJn948SfYO//f338JO/uPH/0BdvaMzk1bkKtMlf/uxhexAD5hcAPw7phLHsizFw1uRtUac+IamGc5OfiNDjeyGNc40iLZjx153Fv78vTb2HN7Msq1RKs+14f+RJTbCPYXA+7e8lKMI7mQgWzP4YQeyCrYBffmkr/3t3e5RQuvztzGHPqDITebi1365GCSUPXD5jns6i/Ncrr7f15/HLv3J6Y5OdP7FrfMRPnGxmWsAv9Wi1OB6zgcyeXTBU7ONBAK9pHVXI7UNG1w5B5SQvbrbY4w2XW5BTI5g2P+r5jcTPIw4Ea5MMdycvATMQ55+K2f/F3s6sr/e/8JLID3Ai6I/nWb216z2+fGTL4y8xb22CIKJ2iyaZewez+f4JaZrNpcdXC9N4/ZfCXOBVFybLDjc6p/5MSDJrhlJh8OZ7B3/v8D/1HAM0KF7bUAAAAASUVORK5CYII=;" parent="iqJVpxYbWQjncIScGIDG-19" vertex="1">
          <mxGeometry x="14.270860752829698" y="15.000000000000002" width="46.23761855369542" height="34.397302610618176" as="geometry" />
        </mxCell>
        <mxCell id="iqJVpxYbWQjncIScGIDG-4" value="" style="shape=image;verticalLabelPosition=bottom;labelBackgroundColor=default;verticalAlign=top;aspect=fixed;imageAspect=0;image=data:image/png,iVBORw0KGgoAAAANSUhEUgAAAfAAAAFxCAYAAACMQPqbAAAABHNCSVQICAgIfAhkiAAAIABJREFUeF7tvfmTZed53/eec95z7rn7vvS+Ts++AJjBTmwECVIgKVKUFKqoMJFkx+VYLqUcJSknldj5wbGrErucSqVS5XLsVGzJJYqiSTFcxAUkCAoEAQyAwWw9093Te/dd+t6++z37TetfIH741BQPfm+88z73Pc/yfb7P91HO/vf/Yiyg/+QIOvjk2EByZ0/8b29ihx/+8dPY2c7jfezsqVwbO5s8uG9HsOMTERs7u2NFsbM9X8XOjhkudrblcU41qnP3bg+4t8a9NOyZhQeHFggtEFogtEBogYffAtJJcZeIHHNn++C963+fq4KH0wFm9MiHCexs+VILOzsYK9jZxx8WsbONR6vY2eVEDzv7eBTDzj7qxLGz/RpXiYpFDmGLRrjqXwYRDEEXVp5zbMkd7t6dZe7eiU0OdOlf43omcwkuWzRUD3Oqsy9x9z6yuITN1DibO4aG/d5Gnrt3M8KdPbQMzObpGOfXpOxzwWTMvXPRPsXdW1rYWxN2ljv79HQNO3wlxp3959uPYPc+Ws9jZ//Wc29hZ//oYAU7W1c5lGsh3cTuvbPPvTWlq2P3bgYc4iJNDlkUIw7dE2BRJGKHXPV/9KSPPfSewxGqXDBbfHXmNmZzf5pDXMjWARlEjz4oYb/33HMc4hJLcZXJECQOmhmwAicrMo0jqQoPbNeMVa76V/sc7GG7HEv1X3/wDOZUK8UOdvZy+gg7+4PaFHb2mUIdO/uwyMFcbcfE7p2OcQHcWeNITcMxF0wkyK8RgoslQqhcFTwqcgE8vsud3axwPdFPnF7FHJs75qrgCAg1keNUe/009nsXJriErdpLYveO6lwP3Ks42L2VgPOpMuBaB5jB/+ZgzeKMPuYKUeFxMVRInYPvmw7HziWh5HPJQ+w7O1PiquD6kHvouegQs/mD6zPY2T0uTxWROU5jYjrLMeCll+WyJuMIjGTYMxeCRD0yGxzyEH+R68/dPJjAfvHLkwfY2WQFntJBSDXCwXu3H3Ctg6lLHFlzf7OAvXNxm0Me3Ke5kUUpfK4SjXHFwUkU5d6aBZL3ak9wF1/kTC6emNnGTt/ucz3RlQSXJOsqiLiMOMQlnuVITYrCfd9aipuHDrIcoWp7kyMtytgel6kOuaJIpB5wDz1/izt7lOdwrvoclyX3bI7c03uTy9hWPzXAEpe8wZ2djHDVf6vPjRU1fs451dzVBvbWGjWO8xDd5ZJkzptjP3V4cGiB0AKhBUILhBZ4+C0gfa4wESqHuAhyhK1xhcubnBwHa06YHMw1n+IED45e4iDVGkjmyhocmSsX4WyuFjgxlcZj3DdGLq9pWBySbC1yDHjpxTg4N7HD9d9JGdfA4GyuupzNO6+XsZTX+jWOaGKAveBKkrt3A5RS3WpzvANyI9jI5saKDI0rDjSwB05O10g/yRndi3K9AxJ5UDwuiI5NLnnwHuFGPe7WuOTBBJcdmJKbMjkCiWRJEO05eoPrQ/sXON5B/Q7H9VAdzqfakxzqIUWE0+31OQEb4XOqniK9xgXR/J+8h1XB3b/kZlQzJgepLiQ4SPWHD05jv7cKiiW5DlgcLHEOXfW49lz+DKf619jlEBdykkuKEdc7sPNc8qCNuIxtVOLOXvtnj2EOXTQ5ZrCf5Rzbo5ldzObkDPrbd7jBwUSRq0STIJxbb3KTHlLj/Lma5AhVOriFTZJwrlnjnKrHjYmi1X/0kEsevC4HudTL3LrB1VQFC+COzyXoRpqrRF2Pu7cpuWAS9LkeuJPlbF7KcVyPKjjCJsdxsAce4wK4yhEHhZPmIPRT3+R0mvc+lcECmVbm+u87He7eUYMLJitlTkrV8jkIfeMOp8QWneTeeSnOnU3KFddUbpGKVMDtVJKbMhH521ziUnucy1QPX+CCSXqDg9gin+Ay9Dq4YOJcnpPWrI44OHerxsl6nr7AtUzuPZjEkmSjyPnUwz4XRJNpjl8jtSFXBZNM8No1LoganPa9GExz1X+Pa4mKcyCsqalc4uIE3Dsnq6KIyUFsxyNOiS2S5ngmWOZwcnBnyAmaOEOubSGTO5zZh1xrUCicTxUmpykiLE62VwRgu2Yi1sUe+t097qFftznmf7DBbQRLX+IY0TbYf390cg9755bPBbIoOKppHXPJA1d+Y88sPDi0QGiB0AKhBUILPPwWkH0uQUfXahZuclCyneaY4OT4XGKby9DlZa4/99TSJuYp3vnBOezs8y9sYGdLsG0hQXiPlK+9c8whTaQKXGGSIwbLQOcCWeoBF8icBHc22JYUEU5TRHRAnebXNlewYBIF+7Ezz3CEqu0OJ65xscDtKg4E51ucgGPf13tcy2QhB/YlMc8iBPdrn1yarP7jXKtIDDmiqJj7LseY1AfcHPj531/HPrO2w907oXOz2LtNLoDv9rlpi1qXY98vF7jevx9wHdn9HrhOVOdGNaXR4bJFg+MVoUFUcKCH2PhNUEM2xzFkoxr3kd1ocxnbxRJXiRbT3Fxwo89Vg4rCfeBDj2tTGZJrU7WbnDJXz+AY0dLl7o3OYvfmuWyxeB0rBkVnmbu3ZXKAT9PhHnoEXCgy9DgFukaHC6IRg1viYnvcO7dBARvP53yLrHHvPIhwCZvUuHFJUX+Mm1GVnFSyyKxy0EPtOW5GVU1wVfDGcR7LmhyXe+e3DrjNWBqojW3f5CB0J89Vons9LpCpx1z1b57ifKr+Ggffy9J74GN7iYPv47tctlh9ilMNynyIxTGR/w0Ozp2Oc0zR61+7gBn90ufXsLPXW1zSxDE9hJg9xanf7VZz2O+NrqYGNf+957hWkdx9mQui6XtcELW41bXC4eK3IBGXlMERqlbinFMNvsh9YySB7krpAAsmr89wLRMXDCbBiIPvzRyXNjn73O+dnOeKAzk2uQq8t8A5tuL7mG8RzQvcvXWwdbDZ5qqD2Rg3ZhLRuH7s7lcXsYdu/s597GxV54hF9Vuc3GF0nqsG80nOuVSLXOJiu9zZUrG5KnjiTa75317k7p29y927P8MlD9kot73mW6sXsWByahLcyvUit8Tl/T1uK1cqxVWDQ4MrinyQSFZtcdBiIsH93p1jrvqXKhjAG5e5YKJxaK4IJHdvu8BVJpv3OUJVtMxVB/e2uHvPTzewxKUY5Wy+BYrI5BJconr8C676dxc4p9oZcrP3AoyhXBmKuZXw4NACoQVCC4QWCC3w8FtALn+Vy5KrT3FzoiOQxDbikmSRfMDlbArXChadJDdeI0bcGNnmZhnzUsVzD7CzowY3sljrcNWgPc/NBcdTnFBTEHCoprvGtQ7k1me4IKpzfAshOZRLaNw7FzY3sihiVcyfiwuzHCN6rcFlixcr3OjekcVpDjS6nF8Tt7gAHrvEMaJVUIFutMUF0fxFrk0ldY7jIibe5KLogy9w+tRukssWySDqfeYYi+AFk8sWb3ansXsnZrhs8VaN20416nOSwWQQncm2sbcWkxzqsQmKBpFojxwscIzJ7QyXoRvcOxdOjmOhR7gYKhotjq15Q+MY0Xqcc2w/Xj2NOfT5SW6xRkPlvrHYN7lqsPslLmErgUmyBq6P3d7iEDZugO3ErZCrTANO9U9oQ64CH3ItURHPcKMeGrij+dwE1zuISa4nSkKq6QgXyA5+i7N5/3vcB+79Nqe1oIMBPJLm2PdStjmCjQHC9zonnSs8rhAVKkgkU8CPrNnmeqLzaQ728MDl87URZ/P6G9wGuMuv3MNQj+tPcqhmy+bOdkD1O7vDtWuUS3/0LzCsiWRjR5rYNyZsTpDsZAadu7dX5iqThVlOTKU15BzbdIojNUkwYQvGHMrVAsl73ZGJfeCkzcdYFDtBksE96NJscTf3De4js7k9CwL0LUJwJhcTk1wlWgJFRRxwxeNanevPXZvZwYLJgw73gfctriKbznDknjvrHM/EzHAtExMcWZSxKkewqT/OlYNgS1QoDhdF/RinxFYHpRZbfa4Kns9zvcH9IQf3qIIrDrDM4eTgMwUO7SHvHdviiEXeRQ7d67Y53yJ3XuGMrnAE+BPcg3vqZBA9+39wvYP7/4ibjx2DQg8btQL22B5b3sbOzugcaTEFktgckHdQH3K8A+s0VwULm+NyyT2ubcHJcmFuJTw4tEBogdACoQVCCzz8FpC+ycFckRaXP4y5hE14grv39hc5HVe5xn0w2kWOzKVwHRPO4CcnR8Hl83vtDHb3pMmNFSmgGprS4Hr/gclBqjFO5FFI2eeCiRcnkwfOqy7+CQdj73yeg3OV89zcoGlw83Pt+1wfelPn7l02uVnNeITriV4p7GHJw70Ol6DHF7kkeXSP04huX+Z4ZDLKybiKAUdaFGCbSqz9HseQJefAYyBb0wP3JM9e5FL0nTqXPNQynCLZ1RLHgNdBco8LOrZeh5OnHue5RFXGwLNJMtdYchW4XeDOjtY41AP8vkVvLYtVJpcf38DOTukcuedcllOBm4pwI027FvfWWi6n1FQ75pKmscP5NcUCe6JkAB9Oc4FM73E/uJvkeibkAhlSPIdM2EhJUVLggjx7e8QhTU2HC6I3DyawZNGtc1XwzOkadu+9Qw5pyme4RUlScblesMq1qYTR5pKHeJVLHhIcmiv2X8C+b7Hf53pkZBX8YYuTFJ1JcBX4UpzrDW7GuGBynOa0NfImt11yb8D1/rOz3L3l1OtcA373Fe6xGW0ucRlMcMnDiBPmEhFOz0QkDY4ZnJIchF4EFeiWwSDa9zlGdLfPzQVP/KWBZcm3Hl/Ezo4sclVw3+Hemtx/8VcziII8E1REZszlDkI5y7HQ77yzgDmX6llOwIYcYStGOKe6PeB64KrGtSWVv82pwK2A4jmkjOt+n0uapJfg4FzjmCMe+FyrSLicPxdulpO/4+oSIT7z4jtYACcP3htxgex6Yxq7+rOVB9jZ9z+cwc4+3OV6/4NT3K4D1eD8mr7NeTYpu1wQdbJcpuqluMQlusfZXMS4h679gstctkocoWqrzQXRSpJDPcjRvYTGtUyWL3Jz4CScO53g5sAfqBzvoAMmDyCgiiWp4cGhBUILhBYILRBa4KG3gCS3ciU3OSJZ61Gu+vc5xEXEb3P9Gv8Jrhpc/fES9rH+zhd+gp39g8Mz2NnnCtxYkQtqJXvgfmjb4zhNdxpl7K1l4xwT3I1yiKqU3L1Fd4kLosLjkgdSQtbjNt+JcoJ7bIUXuLGiGDgvub/JSeeap7gJlw9r3PhcBJSvJbewbYG750n9edvlkiZp57kgGkS4PjS5qljvcskDyb4nd3LnwBnVXYvrz108u4NVRctJMGmSXPJwc5PTiE5Pcytc1QjHr7FA5IFM2CQZyLQB14IfG1ziktrkzgaRReFc5TSDt465IHo+fYgF0dqAIw6aGvd7bzQ50uLUBMfGnk9yYgsHbU4sqX3AScgaWU7nQZKCJnaBq8DBrXvC6HMBvP4olzSlJJehn05z1SDJiO5bHOfByHIB/FThCEuaPnyf0xwITnPo3oUKp7u/aXIJOvbQTg6WZE80iHMOXbG5QNZZ4EgPbo6z+XGbm1E9kFwweffBLPaNv3L2Dnb29To3D/2p6bvYvY/OcO/cAFEPUnefXNmbWOIkg6U+wN65UMY6drib4xy6VeQqcBHlAngyyfXnzmY5RnQlzrHv7YAj2BTioHPBPIsQezscfD8zxyEPd360jFk9foULoj44dSBHZQ7GHoMkNhJCJ5OH+CoHqSrPYN+3mDa5vuSsyfUl7/YrmNEvZ/axsz9ocypwF05xQi4TsS5mc+dxLllsrHNJk1oke+AdDkq2K1w1qLW5x+ZHuaRpuMKtgHMGnOj/0OcSl4aTwJzq6QSHPKyBG6JUMENvWdysZiC4Hnh9l1McVMGxYE3j/Ll08lwQzdzgIPQBNyYqpM8lTakPuf57+2PcW8Mi6MnBt464/dALM03s6l2HUywi+7GOx31jdY9LFtU4N7pnFrl2jedzv7eM7nOHd5e5zIXcyqV3uQBucUmykKBmcM3mxkwuF7kl7GWd06dOGRy0mNY5vsXtm3NY0rRwlntr4wxX/ZNiKk6XQxa5SII98fDg0AKhBUILhBYILfDwW0COJjhYU+9w1b+b4e7txznkwc1xDPjcDzl474PPcD2TXo/bXbt0mdsPTVbBFYMjcxkVTjJ4u8qRueYqXLtmc58ja2YmubcmZY8LoibnW4TLIaoiMLkAnnuPI+81r3E9sjjYl/zkCjeTfKfHJS6FSB8rcaoO94Hnk1w/9qDNCZr4ZF+Sq0vEcY1TO5RBhLv5gNN5EKl1LnHprnDVf/ss93trA87m9jHn0GtF7uyyyVUHO0MumJAkNnKhSD3O6Vvsv8+RNSMjsP8+w032SHWCg3vcHjfaY2c5BrzW56gHqss9dLfCORcFJNDd2OaWW8xVOCZ4JcYJ2Gx1ueTBBBepKNtcu6b8KCelun/I/d5ixBUmUkoOzg16HJzrRblKlJxZnP0rjp278WUuaXrhwn0MztXAmeSOwzn0uRgnYPP+ASfkMmpzSVNshUNcNJWLJeox51vIrZrS3ud0e4XGBVE/ycHYssMlLnsf5xy6muCSh8kIN06FZQ4nB6vgusEjUMBmKstJaw7i3FiRC8p6bm8Xsac+fY4TLGoPOZ8qVZuDVCXYt3AD7t7pe9zZ/VnsGxPGfe6hr8+XsIuTbGwXJBa9+b1LmM1XXniAnb33M47c4y5xSfLCHMdK9sB3Hlzn1qhKEN0TvslV4NEqF0StAuZbUJurXc7mv1hdxIx+cXkXO3vocdBi4iq3WGP769zvLT7G9f4Vh0P3LPCt9SwO9XAyXByTXoEjFplbnHOx8pzRUw+4QKaBiEvvIsfWnJ3mgsndwzIWwIsZbpTrQp4jNVU/z41yjcBAVm1zEw+tHqcBf7rMVf/DFMc74NK1E5dGZi6g5r8gYexAcomLmbSxQOaCesX/1aXXsHv/y299Bjv7M792Czv7Jqg/L0Ey11yeIw6u73Ftqp1OBntrs2mOb8HNM2HmDg8OLRBaILRAaIHQAg+/BaQKrtUMMhx8L0Zc7iJBQRM/zY16cA0TIZ4pb2Jf66TO7SJ/6rk72L0TGrfM5DwI32fARSo3jjnlPSPGKS12jrlpqqoGTjSdzJlg/425WCJUn+tD529xF689yf3gjs11bPZHHFP0ns4pVJHs3I7H9UQtn0sXuyAzmFSgc0aczSslbky09S7XOpB+gquCFYcLJgoYwO00lzyY3Lik8Ge4t+YEXPJwq8cpsdVH3AIZL+DufWRxyYMpOYXJYpQj7+0FnBpaZ8iJ5ziTHPIgSX1qcHRP+EkumNhpLlNVubcmolGOxJY3OMcWUbm3lkxxMPbrO8sYuvfJ+VXs7L1RFju773LJAwmhj464hE2Jct+3FGOuGsze5s7uLnDV/3Cag9DHoPpdAmTn3vznnKjI6Hc5lurTE1zv/9HJPSyQtV3Ood+ucqstNY3zLU6fSx7IlZ7+jznkQY5Vbqyocwr7voWX5rImBRzlit3jPrLRLAdjL/4hp8xFLjP5TusC9pE9dYqz+es3zmD3jm1x7zzyLLeT2zrikMUgxxWD6gvc6J4svMddvHGVSx4S97nHNqpw9x6d5yDVmSSnUCUVrjJ5bJ5TYiuanM2bNtd/V2Jcgm4+yxGqFJBAN3PlAEuatnY5HfZimfu95bDCBXA1ywWTYYa7t25yzmUMasD3HU7u0FC5UY9Xircxx3ZvyDHgDbD3f2aWU4HbOeZ64CoYwLMprlW0E+G+b8vlikHZX+ZYTcoAvPgxB3N509zCAd/i7n1gc2pJQYlL2LDofXLwt25dxI4/P89VZNilTw4eDbk21dkpLnFp2xwTPBrjZJoTJkfOlXqTC6IqZ3NBsrGdBvfQzRlOG9vucPd+srSF+fRhwCEPX77yNnbvrVEeO7tlcyS2T67cxe69PeAIVZv7HIy9NM1poacMLoBzVGzsiYcHhxYILRBaILRAaIGH3wIyyiUuoneBK8H1Qw7mSoLbyPplDkJX+hr2xWhgb3AClFLVFa43uGdxveAeyLfIZLgW2WsNcFfxgPMtu03urZGb0GTvPNcDF+AIm5vmHFunwLHQx+BHlpjlGNH3upzc4aLJZclrI+7eb6wvYQlbJMr5tZ8Jbhd5PskJFrVvcFMHiTkuaaoNktg7l2NQUjS6xfUGY5xPFc3HOBa6YnFVsHOX0yM/2ODO/sXfHmIfeEpykx4vr9zD7v3DtdPY2fki93tvd7hK1DrNvbVgxPFrTINLFmWkxsEebpKrRL0ex0pWPO5sFPWY4Fom/RWOaPL6u2exYPJ3XngNO5vUgP/UaW4LG6m7f7dWxn5vtcoVZLLOBXD5whFmc+mmOIEL1eECGTjRJMYGZ3MBzoEr4BpVr8nBe6Vz3Af+XnsOcy6kiMxitIHde9/mquDzFW6M7EOXW14TOcuhHmNQjlyOQUlRf8jBuYHBJQ+CAx6EYnC9fzHmfm9/zBm9HOd6/07A2TyhcajHscvth7bBzXekkEsxy71zCe7kbva4tya1OjcHrs1zhAunx8E9isVN76mgxKTvcfe+cHEbq8gKJjd7Xx2lsHvf7XJLPe4eclDy751/C7P5G3sccbBX41CuyiynR+44XBta+iWuL2nqXDXogpUoVwsKEThcRRbf4JJFb4lLHooGF8CnTU7e8s/uP4oFsq+c4wRsspIrTGyXCybzizXs9y7HuG+suskJFkkN7McOWpxakiCJZNgzFyKxxgXR2EtcX5LUQg8Elzz8xcZl7LWdLnGjHiSMfehwksHOgNO3yE9wfWhyD3qswiUPMgDHyIxDLpioXHtOmNzGPzHkUE2Rkdz43Ez8GAtkXZdjyD43s4HdOyE5dO8//OQZ7N6PXV3HzlZUjiC7EOcc29ducGiPALlccvH/xt6a2HqVA5PdFHf2WHIVmQdOHeytcaIixUscrLmU4Fjof7V9BvvAv7j4AXZ2fL6LnX19awY7++riDna2D7Kxpya4HngJhO+5SII9s/Dg0AKhBUILhBYILfDwW0A++H3uEsYmN8plgVKqdp6r/s/+S64Pfe/vcczgwz7Hxi5GuB7Zo5U97APfHnGbsexbXB/6mY9z+9/jkusNeuDI4gjcyU2O7kmlyY1T+SYXyLQhBz4oLpe43P1jbtmBzHAkl/abHHyf+o0HWBDN69xs7k8aK9i93VlO1pNcZSpVbrKn4Uax33toceS9G3uT2L1lEOV+8ADsBQtwO5XZ4pKHSIsbMzGmuL5k/gWuRxYFF9+XJWdzsjJJZ7lk8WyaG6e62Z7AgsnaPpckTxQ72L3Jg6Vic8Ektcad3bnKQU2iAc5iH3CoRwOUM51Lcyz0r649gn3jX155Fzv7/ttz2NmvvPQedvbdDtcq2jziZpInS5zmwN4+d28jwU1byGiVC6JmmwsmHVATXOeKItF4khszMeLcQydX/r04t4YFk3+/eg07+9nnuF5wxeA+so0x16YqpbmWSVRyW7lyRe7eU0mu+pfDWQ5Cd9JcJSrAvdjpTc7mvUWu/263Ob7FqWlOSjWicvPvT8xw976W2sSShxjYtjgeXcDufaWwj539foNbZnK1tIvd+9jhBMmkMLlg4oPbyPQehzwcPs0hD/E9LoAHj3Ns7Nko1wO3x5xgUdvhiEVpjetDu2OO61EE54I3ehyUPJnkUI/VDtd/74C7yKWwuCo40uSCKLmLnNxGNpzkIPTEG9woV3+eq/6/tXoRqw4+e+YmdvbqiGPnPhhyMHbL4iqyRwrc2OBmn0sepuIcjJ3UOT6VjNS5AO5zPlX4OQ7WnPkmVwU7Ke73Pv51rgL/8d4pLJA9v8z1wO/3uMpkJclpoWM/9snB5ExySnLjc1tNbu7/XJlj/id0jtsj3TRXkcW3uQrcS3KB7OBZLoCTji3zPW7d4OhVLkPvgvOxzSG3q7iU54hF3/7+49hTn7nGVcGvV5exeydMrhIdelyb6njEIS5cBMWeWXhwaIHQAqEFQguEFnj4LSBju1wM753iCHTGEVeBe0mOxJZZ5ar/4/PcvaeT3DKT6+vcPLQe5UZ7tkdcT/SRj93HvPOdBjcHPp3hZrEDcJkJufnuWHAVuFS4GCoEF0sEGUS1IXdxi2tTiSDP9Yr6Nke4KJU4+D5ucLDmT7Y5OPcs2BP99PxdLHlo2Fybiuy//2SPe2vZODdtIXsrXATXBlz1r/e4IOpkuEpUs7h76yZHHCSrA13jvrGuze0in8tzo3u7XW6ZyaU0N4utg1roXY97a1GDQ5p2q1xVJEWMc6rJW1xV5HATTWKscgHcyWLFgTA0jjDZriexiw9AqcWJHFf9b/5iFrP5eJ6riu70OD3y6zcXMZtfPr+FnT3mXKogJWTROXCHS5JFFJxwGXHftxhL7qUr4AKZYoXrDeZiXDBZuzGDOdXLz65jZ5OLVK6vcZyHZ67cw2xeinBTB6bGFaLXd6cxm0vZ5hSLhlMctOiZHIltzHUOhAT776Meh7hMZrhKdASOuFy7xs2gG6CErBNwfm1hhqsOug4HYw89bqUnOUZ2qtLgAnjsEDtbjEERGZfjegijw0VwB5z7N2JcnyoXGWEP/f2/5kRkys9w4jmWz83m3m9xSmzPTG5ib+1n+xyEPpfhNv5lDE7A5u13ue9bDmY4SNWPcT1Rvc1V4AlOd1+4YO9fA3vgNw45Wc/yFU4l6kGHI9gkQQa87XDJw8DjkKZOjeN63LvBEWyufeIOljQVlpvY2VJxOVay0LjkwQWlVFNvcPfuLHPQor3DOZcgwiWLfoLrgbdaHNTkgrK9yShXka13uOr/0ukdLJgsPnaEnb3a5Wbv64ccmUt6ZW4219zieibWFEd66M1w1YGf5O4d3+KSh1GZS1RrRxzsUS5wG6LaA24T2hgUFWlsc6hH5dIDLIiWDI7EtiM5m5sZLlnkmrHYMwsPDi0QWiC0QGiB0AIPvwWkIjlokayCtR7XA+8ucRC4gKpSAAAgAElEQVR6Yo2rgvunwOq/wEmpDrtcJUq6KHeLg++tHEeYvHh+GzN71+H67/s2ByXvgMI9nsvFEnn6n3Is1dX/koM9/AgXRAUo5OLmuIRNb3KtA8G1JUU0yUFszS63jcyPc2+tVOHGBp2Ac+gkG/s7b1/BEpfffuoX2Nlfu/8UdrZc/SMuazIPOQR/BPbAtQH3gfsgmSswuKRpuM8R6BbOHnAfuMoF0ZrJ2fzomKv+G03u3pUil7jEKlwxiH1gJwc/8cQqdrxM3ucg1cE059AVg3NsAgzgkSpXBXsJ0OZJDlKt/phTahotcyTVy0vcvOQ9t4Q5VVJ3vxT71QyiN9pT2O9dMjmbS3KlpzrkKnBV51Tg9A7HvndACH3u25zNN7/IoR6556qYc8mAAjYJnduEVklz7Pvmd7lgsvUCl7A9NbGFvfPrdU4y2Pa4IliS/VhyI5iV4oyuJDjkQQOTpq3Pc/cuT3ObsfYPOK6HMsWJTJB65LtHnKhI8kXurV0ucu2a5RgnIbsb537v6oBrmUgBLrdwshykSmrAk3rkToazuZLgYOypJNcb7A45fWrb5RLV9R7HHEzEOeKgBvIOJkzunZcld/ZEjENc1upFDHmQMs5BLp7K9WPVQxDGBoOoCirvadtcIJMLXOKSiXM67EWwJ2qmOW3sQHDCPbMxrgLXBPfO7THnz1/J3sSCaM8F/RqpWCQ4RFXoHO9AuFnw4mAA90EW+uGQg7mGoC73+pCrghfzHHzftrnZe5LEVoxwjo1smVyI7mEBfC7GvXPpN7nBfxK+t0pcpjoGxXN8LlkU0QlOTGXvPsdKFhxXUwhwbHBT4Xr/0QjXrtnrprFgUpfc+Nzjcw+we78/nMPO/vbWeexsGWly7FwXJHMFJhfAZZxTJAsiHLSIoj3YJyaEmuLaVOmfcZVod5nTgM9e5DbATca5fuzzuXvYS3fGHN/i9eoydu/5LNcyIWsDzODhwaEFQguEFggtEFrgYbeAtKY4qMmocaQHoXC5iya5eejxmENcrB7XrlGzXBVsRrmzu0tcz8TLcEhT3+ZIqmaK86lkH3rL4vgWz1fWsVj8vd2z2NlSAXW5dW77nIjWOSi5m+Oci0rqkce5xCV2m7O5fJ5joQ+LXPIQTXBnz6bbmFP92ducQ1ef4AiyS7EGZvPvHpzDzv7s7C3sbKlXOcc2PM194LLOVf/lH3BnN65ib01EalyPrH+Be2sL0SFm9DHHI8Pu/DcH73S4HQ9jcNri57vzmN3vJTii6N9dfB279/eaF7CzpcKhXCKW5ioTq80F0frjXJYcRDnynt7hArgKti2wr/vkYM/nWiYxg0uaogYHY0fnOaeaBZPFtsURJlVw/n0myukdSKfEPTadQ7FFAI7XqDbXf49UuSAKklQFqOshtg653uC4zyWqdpZTQytVOFnP2+tlLGfLnuXQHnKRyg1wjKzvcSi2VBwumAyOuYxtrHOVqLA4m/smV/2T+6ET73NvbfQY51SDOFeJyrvcLvKtCNc7IJc0PTjKY8lDOsYlbOQO9rUqKaXa54KJJ7hqUOHimBAl7qELjbu4GnCQS/88ByWT91aOOOa/VeZIi2KfEzQZpzhUczLFKbFNgfPv620ucTk7wWkOSOUU94Pr97iPzMmCzgUMZMGAg1RFhLP52OeSh8DiElV9xN17XOSq/0SSS5LTMY7bU4xyaodnk4dY9U9W4JfTnIyrJDfn2FGuGjRaXEXmgAG8/Bbn0KvPY9+3INeojjmQS7hpLmmKxjgSm6lzycNEjJuPXUpwo1yboO7+q8UPMefigx+4tAZcAx7cuie8JNcDVx0uiHYXuLMVsgoG1+ZO/Ziz+f7HMb8m7F0OYRMz3L23BLeb+p0bS9jF/87zr2Fn6wqXqO45IN8Cs3h4cGiB0AKhBUILhBYILfBLW0CWv8tV4NVXOJhLbXN9ySDP3dsJuB64NuCw5EiTq4IPPs/1YzVw852mcSiXNeT82pWJ/V/aIX/UP/yNuQ8+6v/il/77f/Xex37pv/2ofzgOON/ynz/65kf95//Sfy/rj3OOTYIqcG6OY4rG1jnnEuXGY4U+4DgPmTuctGb1KS6Q2eAucnufGyMjOQ+3U5Vf2iF/1D9cjB191P/FL/33/+TJb/zSf/tR/7AH7kkm4XsZ5DiiSfEHXCBrfIqrgkfTH/W5/vJ/P5rkErbi21yWfO+PYr+80T7iX04YnFJTu5b8iP/6j/DnMa4vqeTtj/APf3j/9K3mPPaPj2lcLCGJZGsDTkJWxlMgvGdxcK5PjvYcc/C9WODGTBovcPcee1zykDG5saLqkJu20CwuWfSKHNqjgguiSDnTb+1dxJKHao3Tvr+8uIvdWw7anEKV/RjnVBWL+8C9JFeZxAyudaBscJBq5go3XqMK7q2RErJunntrMsqdPRhy4jnuiEuSz88fYIFMqXDfWExyyIM0H3Awtl3geoNC535wrctVRY7DfeDR81wfWoKEql1wM5YElRa1SQ7tsYccuhcHlzRlk5xs78DlYslymuv9l01u7l+SGToJsSkDLpCReuRel6sOfJdLXFyPO5skc40rXHUwm+USto0et1DEAomDEckhD1sbnM13ktws9vlpToFOOlmuElVtrkcWaWJoj7CucVmy3+OyZCPKEQfjUY7U5BS4ZHGxwlUm3BcmhJHgEhf3gCNMNgOuTSXADY8vn7qHPbemw9lcjgucYwsaXDU4BJng0QiXJUff4h7b8AkugJcKnOZ/HNyLHYy5JHlzm6vIBEgkG8c5jksizxUHns9xmgIQSjZUzp9LcsmDOsGxc32Q7CE17gPvzXGIy7huYlnywikOctkfcgzZm+8tYDYXGS5hU0EBm1PznNhCtceNDZJ+7Yc3z2Hv/Kmz69jZXMqEXTk8OLRAaIHQAqEFQgs8/BaQ+j4HY7sTXJ9KNbgqWOFQTUHyDsaznObAscP1Je9WOSg5s8yJyNgu1/sfdDi0R1U4lIuctiBbRefOcju5TY1DmqQ7xQXRzNscoar9GGd0Gxzl0rlWsBj2udGeW/UJLN1eKHLwvQdqRLsRjvk/7HOFyUajgL21UpobaYr9Ay5p2vpfubdWinFOVWoNzqmax9wcuLHP3duJccmDN8edrYKqYN0jjrxHkntsUO2QRJp0kCjq9LnCZK+fx5KH6D/mELaK5Mh7XYdLFqWX5Rh01ae5rEmAQVS0uB88tcbZvLfEJWzRbS5h41yLEBLcuhdb7mDBZLiWxs7Wpjly7rjGVcEGqLyXMrhpKqlyfk1qJhfA/YBrBk/8kAtk3XmOOzi4xjkX7tYngWybkwyWcQ71mJjl5sB9EL7vZji/JsHRvQC8d6fFoVwiw3E91lsc6iGjca4Hbh1w2WL9MxzcExxzEFsEhBY1MFMdXsEKMpGMc2+NDKL1Y26kSXG4dNFTOPLeuWVuF/l2K4t9ZKTewXDEIaqSlJj0Exz0IEBZTxV0LjYopRpJcTDXRJGDczGvdnLwAbilSQHFVEibk+88pXPfWDrGJarrRxxxMJPgmmTSGXDVILmkSYCH+0kO3lMsrnUQHHIVWe8CZ/OkyTlVE0TYglspLI4mrnKtg1Yrgd1bVbiiqPsaNy45++ltzOa1PufXpNrkyD2Bwc1LGmBf0mlyrQMlwfVjRZ7L0Mevc/Ce8ilu2YG9ywUT7Qy3jWw+zfVEhxZXFBkqp28x+2tbWBAlN6G1tznCpBxLLogKncsWHXCpB/bKTw4eg62DMSieI57jNmMdNDgp1ekfcd/Y/vOceM6wzBUmszkueei6XHEwcjmb73/A6TwUz3FojxwnuIxNgHPBWo+Dkv0o51SFy5F7xjFu6kAFCXTTJc6hb3+uiOWLC/MH2Nl3785gZ6tJjhhcynNCLiNQeW88waF7EZ1rz3HeHPu8woNDC4QWCC0QWiC0wMNvAan0uUpUyXPkHv8YpP4XuGzRs7gRlzE49z+yub5kIc71giMZ7huL61wlWpxtYd7ZH3N10fGA0zvw1zgyV1DiuD3NHjf/LkWO+8hSb3KPrfMkF0Qn89xI08G7k5hjUxa5QEZqRO//hINzxSVOp/mwz7HQi3Hu3ktJrifasMAgWqlivqUx4oJovcPZXJJ7c/vPcQ5dB2dUk+Cspr7SxT4y9RecQ68nuA/cP8fNiRbBGdVGm2PAk8IeBZPza1mDe2vTJsf1eN1exvyaAfbApbLFMUVVDvUQ+kWuCg4ER+Y6U6pjD339aY68FwVJbFHwA++CKlETINJ0KccR6L5z6yL2jS1Mc993SudQTczgJweTYmgymOW0sT2b67+74LrBI4OrBsmdvYMNbl5SAVmqk5PcruLafU6hSj3HVaJkBV4pcyOLlseNct045tpzlRjHvi+YHOohpc6NkQUaV5H5Na7/fqxzqEdrzCUPcgZ06BscnHuU5myuFjkS284ON8JGBvABSJgkF0QlwI1gN752DivCL37xLna2dGpcMJFFrvpXfA7G1sGkadTlhB6mpjlyT/ppDlpsDLnkwe9yFVlxhuuJ7tc45b0KqLtPMqLXdjkp1Sd+4x4WRIceN+EiNXCUS+FiqIgvcj1wsmeSznPs3M6ISx7KUe7e5BY2YXAoVw/8vfVt7q3VNU7d0htyY6IGKGATkxzSlI9wvkX6YB9ajXHORZdc66DX5CBVLcfZ3PO5+djaiKuCG29XsOrAPMv1Bq0Gh+4VH2lgNm/s5LCzI3kO1VTByR4dXOLScbl2rBSguIZX5S7eKXLBJHmTgzVHFY5I5k9yLNU9i4NUxSLnVDlwT4hoieM8JCJcRdaIctKaWOZwcvAMqAG/O+T2DRz2uPFYLoqRLy08O7RAaIHQAqEFQgs85BaQRpLLVB2Vqw98B8xdwKO9NNc6UFvc762OOKOry1yPzB5yaM+4x52953Ejqun3QJnmV7iWSUxywh5dh7P5I6U9LA2QPtiXFDbnVFMT3EPvzXOOTUS4AG5UuQA+vsj93p7DEYtmJjhN8CNQ/a6c4n7v7UWuNVj5t1z//cNf53gmf+vKX2NB9NjjOE1S3ueIJmKFG4Afjrhgorgc/b7yfS6YNM9j35jQQc0Bb59jRI/SXLI47HCBzAT7sZllbnyuOc35NQkWg7rCFSbvHnG7DqQ1xcEeMYMjewS3OOKBn+WY4McrHOoR5UaxRW/IObZxhWtTNXY58h6JcpHEIsvmkqYADKKzBQ7tud6Zw6qD5gCswLVfUcYkmbioQ64/56xwjGh7zCEPpsklqsMmh3KZBe73thwukBm/4OBc6xy34bEywcm4qgo3/373qIQF8HiE+71l0OUqkxG4m1q2OChZneNaBwo4q+mAhCoFdC4KyPUg+++YRz052LrKjbCJBtc6IJfXGJJDVLvHXBWcmmxiT13GN7lqUFrc2e2LXEWWj3Pz0K0Gt7tWgL/3wOY+cCXOOTbMs/zNwWDSlPsOh3rUP85VZMMex7dI57lApoAcF9vlikE5muT6sfFtrh+rNzl4T5nkoCZZ4xAX/RS3i9wacPfO5rhqsN3hApmyz1Wi7c9wNld3uWRxXOL4FobGEcmuLuxgueoqCN/LQHLBpD/PJQ/klqYBuKNZcn5NkBuixn0uYfMzXO9fcJ+3kAvg/DuYsKngz21scBV4MM9d3NA4lGs+y5H3pGZxVbAyzfWCPZuDPWJvczB27woH70VucffWTnNvrb/KMcEjXc6pOuc4Ap1ucg7djXOtQZJf03c5lOuwz00VkfwaLnpjgEd4cGiB0AKhBUILhBZ4+C0gA7BnooJjRUqHg1SHj3OVCVcbCOFHOTw3kwIr8EWuN2iDSJOocnBudIkbp/LjXF0UMzmEzfU57zKV5NZD361zI2zSjHM/uL3NQapyxEGLSoVz6N4eR7DRh5zNvb8qYOm2+TLXI3O3uXnoIMdNepg6B6GPExyRzARHuXqgHvlKmlsf64G6+1KC9HuryD107vMWQufimBgXOJtbBod6RB7jMvRSgiNzdSW3ZlGAgkWmziUPWKZ4crCucsXB/gOuEv1Bi0tUkykOUZUji3Oq8Q84iG1U4eBcJ8UR6BRSeS/KTR3YoCpYvc85l9gst9SDhO8dj/vGjo6533uiwCWqqVnu7NN5rgJ/Z4OTcZXjPW5ONOByB+EXudbB2ON6ZKrGJS7jLndvS+PWDVoBd7aR5N652OZ8y/ESlywGLtcLbg+52fthn3vntRiXNKXf4e6NktiGec6hk0F06nvcB37wImdzxed6B2PwbFnnMlVXgoEszzWqNHBkMfUIt41ssMa1TNKnuXs3ulwAz3/uEOuaoCQ2C9wQlb7OwffVz3M9E2OLy9CdLNefi+xxQdRZ5KRz9QgXRCVI5rJMbibZB1cVk1NFpBKbEeV8i1S4JFmSDDojyhFNYkfcB94BITa7xDl0AS5SEYJDPUSLe2tOkkNcHIc7WwUFqrw0+I1xIJewQE1w45sc8rB7DivAhRxvcX0qucJpYx9+mkseyKUeKkhi0wwuS3ZB4iD3eQsx+R2OzHXwcY5vUT7DkZqq9TT2k49H3O8dAUfYor/DwdhFneOZSH2ZY6mS+2MlCC2qMS55cAYclDwGhXvI8TmlyVXg1ae4kkxNcSOLns9V/0qTIzUt/CUXTLY+y2ktBHnu3teWtrGETeYSnELVUY8TFfFrXC84AGexI9ucc7FnuY8smeXeuQu2iqw+lzwYIOJytJ7HnKoAv+/WOY7bkzrFCRbZDoc8dF3Op3JpKvd5hSeHFggtEFogtEBogYfeAjIV4RiyTbACTy9yWsn92zns4XinOAb8eMBlyfEIV/0LLkEXA8nxDno1brRHr3DvPArqkfee4XgHos9V/0GDO3sTbNdIkgIPPjVB9t81kHfggQx4xeYAn+MB1zJxLS5xEVwLXCTuc/ceXOaY4H2PCybGfe6dO2BxIDJcgk5+3/L23gRWDUY/4B6beL6J3TsR5cg9x9tcbzC+yE0dkLKeJHmPnAPvX+ScajrDcR7aVW43df7pKubXWn1uoika4YjBvQGXsMl8hlu00CpzF0+BIw9HHQ5aVKc4xzaocaRFvcVVg9riAHOqAahAp+ocfJ8AWybaJKcJrqmcqIi1x/k1f5Lza/kU931LGxT99zIczEUGUXfIjXIVS5xziec53sFhgauKsOh9cvA44DB0D+Q8kNKaS8Uj7CffaHCjXCq4XdIH90skQR6Z7Pe4Knhmlnvoe+vc6rvUFAclH/c4mMtPcD1wF9yDnj/FtWv6FsegU/qc+l3yTa4a9L7MjVOR7bn2fhZLXIIkh/as7ZSxe8vcj7gAPv4SVx3kZrlq0AYlB1VQznTwLtd/T4ALJhTumQvH5tAekeV64KNXOZ7JxkERc+jTZW6hSMvgaMkaqDBZzHJiaLL5EvfQxwfcOFUkyd1b+TCJfeDBObBfw33fwgGTJlIVzHfAKhgkkjked+8AHCuyXDBhi3MtUbJdU21zhYmMxrlARm4j87Y4iE0Bg2gA9orsJU5zQPkVHeUSPY68F6Q56EG+zSXJzhRHJPMLnM3Jt6amOBY6uqqYDKIRUGJylOQyVQWUcY3OcHAPOU41ArkeyQ84OVPrKQ5xGbS5MVED5CwqINKkCu7w8lscx6U7z7WCvYvcN8ZZHAORw4NDC4QWCC0QWiC0wMNvAUmOmYzADF1NcJCLr3Gw5hC0ubC5vqSIcf254RPcjGpE5+7tDrmqKPkIN+FCCnuQY8Gjz3LvfKVcx6Lx2k8XsLOlAa62dG0O7vGHXBBN3Ofge+sRTiM6WeREg8htRRGDC6KdNjc2mJvjJj1MUKjJA7XQRxbXrimkue97KsbpW9w/zUHo0jS4SpTsiQZ9LogOLnDEQQGykh1Qhz0Ad5F317n52LHOEaoGUS6Y9Ifc/HsRDGSdY07t0I5xRZEdcGeTIjISnVEdcB846M+FcDnqgQKe7R6kMajpwsfWsbPfb3JkrtIMNxeMGfzk4MYRx0KvTHJEUb/E+RZTcsXgjcYk9txmS5xwj2zXuYce2eOq4IA7WngJrirSK1yfyta4nii5dS9V4Rx6q8tB6OcnucUabXD7HIr2/JRTmIx+fA8LoiNQsMgH5/6lmeZmc+VdLooOp7j++zjB9UQVUIktXuB6RS2bq4L7mxzykFnmKnByZa/UOGnNzTYnUJV6jiNzdW0uQSfbsQZIFJWZOEdqOrrKwT2Rm1yvyAJZ6Lb1q8kEb4PrBkmd5jZIYivGOVLTaMD1wH1Q36Kc4NCetX2u+tdAroflcIWoHNhcHzqd5JKH7iUM7RHJN7nkYTjJIQ+eyiUP7Q5ncw2c9PDBzXd9hwuipMKk1LgWWUrnCLJBl4slgcb5NX/Itank6G4Gi2TeCreVywPZ2J3zHISujjjUQ4DMwUyag+/JkaaDBlcV1Y45fo0Bju51D7l7D9Pc6J5xxCXoTpZLmoIct7RH+jHw4jvcQx+DRlccTq9YK3OoB7nkIWlwlUlzwFX/+gRHWnQPuMpEVLlENfIYB2Pf3uLY2MlLXPIwGecS9KjOse+5V47V/eHBoQVCC4QWCC0QWuDht4DUO1wMd0oclBxLcux7u8ZtWiChRfJzafS57XMkI3oqy1VF22CbapTlUK5KgkM9Ejlu6qDW4xDVfJSzed/lev9SPcfBPdom51SVMhdO/ChHuHDBvdixKAdj97rcGNnSZAN7bCSRTJNce86vc/D9KMuxkocgI9oFd7C3wRG2Opi4SBMcr7EKXO/ABWU902sc6tEG5S3JHjh5NjkPXf+QI7EVL3KJSw2s/ttNjvNgJjhC1VyeUyS7d28KS5KTFW5cUg5AzeDyj7hMtfocF0S9xzkimVbnxBbMPAdzWQr31kiBCz/PtakUcDF2Lsc51WaDa5FV0txkD6l2qKW5xGUIxlDpNjmHXnuWU0tSLS6AB5IbtxAmB2uSi3P6RxykWm0UsepARLjfu3bEBbJUmkuSYynubO6hCdEccciDtsZ93+48x6eS+etcMLHy3HMbTXB9aK3BVYNeGWxbgD2yWI5zqrbF/d5ji9vSRAp7RAtcJZoFCVXbVc6pyk2OZ+Kf4tA94z6XPMijpziHroOBLMhy91YiHKw5BteoWuDCgTQoGUxqJY8MjiEbPOAqMtvjEpcEqDmggsRB5SxHiC6BzP/Ro2AFTi638HJcIJMmF8DJUS5li8sWxymuT3XU4kZcCjnOsfVAMtd4kps6GL7NVaKjyxzi4jW4KtgF2zUHba4VHM2AATxxh8vQ+2e5IOqBsCbXOBDCy3C8A3HMaWPrWS6YNNe4YFI6fYQ9t+oOt5XLSXMtMsXhqn9txM2/+0mOb2E+4OKY2+J+b9m/yDm2s/9LB3Mum1/ixmusCY5AJ6JcAB97nHORkru3B8r2knPBCkkUzYDoHsi+98ocyhVNcLFEXOaqYHWVI2vKscMFk7Xf44JooHMZeqTAEao8cP5dqXHw3sjnWgdzf4nlqWLnS5zNtSHnW5QK9435oAa8OcONz6kq51O5L0wIt8IhydwXRlo8PDu0QGiB0AKhBUILPOQWUF58+Z9iadPGf8KNsIEolyBnc9UmR7AJolyPLLrPvbXRDAfnxje5/txghatMtCZ37/EkB+eOwZW95A529N6gmqncf44jFskOljsIP8n1RLU6F0T9BBdEk+tcENXA9ly0zgWT3svcmkXV4wC+YIL7vsc293ur4IiqNeSIZAJUmFTmOc0BaU1w1UEEdGx+FCRUgUxRxeeCaO8SF0VLP+KcS+Yu15dUPs/ZvLXOsdDHGa76H3N1iSAr0bHP+dT4AhdEg4C7t1RsLkt2ClzyIEBGtMIVB8Lg3rlQFrnfe1jmkKbmZW7rXl7h4NzUArfK1Aa3cpHCPf0+Nw9Nat/r4JRJ3OCY/1IFg4ksc87FGXEwtjfgkiajw2WLvsvdezjJlUUBWA0ObA55iEdAx6ZxraLekAuiySTHvu80OLGkdoNLkscFDmGTisM5dBJ6iN3jKrLBAgfv+SYHoY9JIZcpTivZ73FBdPSAm1FV9zjf0rvAfWNjLncQjs69NQEmTfNTnGDR1uoExmWXgvvGRFDlZlQdLlkUmTInrWm9z/UlxXnu3uAzF/P/kTv98D/jSGzKMhdElS7nW5JJDlkc9LnChFxeo6lc1hSZ4L4x6YN65JE9DsZWuN9bRHWuF9xf4SpRDRxxsbucY9v+LJagi1yMI7H1wT3J+hYHY/fnuN9bRrieqJbnEhc34JBFC9RhlxIcaQrOcJkLuVDEDbhesE8ut6hxTjV6xNk84KaKxKDAQaoOuFhDmeOCiRnnev/lFIdytS0O9RiBpMV4jiuKZIQjigoXlN7zfc6ht7ucrKd6xDn0IM9Bquohd+/hHHfv6Idcr0gFF4rIIodyJaMc6mH7XLYY1bl3XjviuB4JsGXCRTEOZQpPDi0QWiC0QGiB0AIPvQXk4CyXLao7ccyApJSqX+QgtliDI1QNua2aws5gT02oQ64/N5rlqiItylXBdofjPDRAJbZinoPQTbACV8BS1HE51EPq4EcWTHBMsomvcpBq9UucY7MucDYXfY606JW4QKZ2uA88csjZ3Jnl3pqe5JJkH9z4R6rAuaDKowHqkZMiMtIEL174P7le8ObvckFUIYlkIIFO63GVaOSYQx68RzihBzKYxG5ypKbBAvfWjCMuYbPAfmzJ5Kr/+ga3mloscfeWvQ74kX2Kqw5Ej6sO1DzXtvAGnGPTQA14qwAqsR1x35gwubGiwRKHesS2ON9i57i35nrc953QOdQjmOB8qnifI9BJVXKBLDLPZS7k8vnot7gf/PhlbrzGS3HORQG178c6942Ruw4W/4K79/5zHOdBmeDkTCcyHezit95axM6OneKWPIwf5ZIHmc9w8N7gZ0XsBw+ucj/40TXOsalVbhY7dgDC2GARLOfBpMnh4NydV7i3FoB7FgopTt9iOs4F8NzTXOJSG3Ja6IdHHENWpkzOuZGcw/EAABwOSURBVIhnG1gAb2xykqJjg4PYxhp3thfjArg1yXEeilHuG+sEXObiFEAIPc5VRa07BcyvVR/jgig5g75fzWI2j8S4dy4HDjduEQElRUWCc+gKuD9WGXPzFlaF68cu/jl3duPvc/1YcuveGGxb2Otcmyp9roUFk7WdCna2ASrQRRNcwuaBvAPZHnAZeirGVSZGnMuacl/n2PetL3Cyf+4hd+8HX+aqfwOEsWN3uQR9OM0lTUGEQ5pIDfiJyjEWwFVQXCMT4ZCH1XfnMZtLcqVnfYuDsUWE60OLr3Cr71QwYRvrnFPNFDmuRxec9AjSmG8RIsp9Y7Nf5xK2vS9zZM1Gm+sFF9Jc73/ocShX6UId+8g4PBW7cnhwaIHQAqEFQguEFnj4LSBtcBWa2eAyVXGeg5INyfXfrT6nQCdAAl3G5CC29h5XBgcT3GxuZJt7a71JzjkHHvd9K02uTVWrc+1YWea+7wuTh9hjkwroVMl1ogLcRlZtcwSbWIrjHTj3uEDmznPJopbmgqiicjC2t8IFshb4e8eTHKGKK0uEKIA67Bq42bLvcomqjKRBhz7i+hbjLnc2KSqSOdXEssV6miM1DRzuI4vFOIdO6jSTZK54hrN5BETYKlOcvoUPyjTvt7hZ7P47nIyrNA2Oje0MuSCqWlz7HyRrYsH7bw7WMlwlOrS4AE6OSxoalzR5BxycOyhxAdxZ5aDk0kub2DfedLjtkoU0R1JtPs6Rc6XCkTVFDISaLFDeMgIukCFX/lXynEoU5tVODu5+j5vNlZ/m+nPGNMdKtnrc+FzyGjcH7gRcq6hxi1PW9ONcqyhW4ZIH2V3nFGzUCbBjM+YylwCEmuqdJBbLyJHFs5Uadu+DBc65cKwDIVSw/65FOOSBXOm5ccgF0SeeWcW+saHHIWy3D8AEXZvkgqjb4rSSSQjdynBtC1ItSXA5kyDnRMcpjsy1f7eMOVXy4NRCGzt+MOSq/7kyx3GRCpeo1kEt9HKWW8olvSrXr4nNcBcfVjnBAxNsHRigfG2/xyVspMSkHuUStmSB+8YUkOxhgkSydo1DuVoxjnfQsbhY0qpzNp+f4XZ6SHOaw+9JhmzyPtcrsotcKSo1LktWON6giCbBaYsNzrkYF7k+dKvPBRMtzs0Flya56r/V4QoTv83B2PEJLo5VO9xYsBx1uKpoCC71kI9zH7gPsu9tyfUGM6DUYvtOHoNUE2c4fWoyiNodDkpu+VySvFTmpJLbZNJU5HxqPMJNuPRG3DuXxj6XNQmOfS+cKcyfi2Seq4o0sAK3HG5sUJnhuB4kadH3ONijDFaiTVATfAAKe0RNLpCR8+9HLQ55MEyO48J93Vz8DE8OLRBaILRAaIHQAg+9BWTAFUXCy4CZS4Q72wbXS5rgDLptS+yDiZockWzQ5yA2sjqI6Vw12DG473tvnVPmSk9zWgukYFEAIk3ONlf9Sw+Ut1QTnFONgsvnY9/gSA+NJzgSGyl4kDA5ZS4f5HoMwOUWbTJZHHCtwdwsR2LzwB0P9TZH1kznuLbkoMol6JKch45WuAydrAbdV7nHJjc5ucPoHJewkWSu4D7n2OQ8Rywy/5TTpxaf4t5au82x76fLHGFyt8uNkU1mOeRhxD01IY1jjq05yHEM+LHLtf9jWc6pGg3u9yaXHXibHMyVuMBJa9rXc1jbwv1djo09PgA16Hpc9Z+f48iaoxzXj92pce88dYX7vqVzmgsmwuVmsVMFrgrudbhMVZzl0kX1PifbS2r+R8DRvdF5bj4WyxxODjYPuGASucJVwaTi4GKGC2S9EVcMRnXOp3KsopOPTOlwx/cEF0THDpe4SJB34IGzuZE699ZG3+f0qRMvc9KajsvZ3FvhKlHlXS5RvbfAtchOL3CLc2xwNXV9iyMtSnWPy1wEuFDEAxE2AS6fJ8VUrChXFQ0cDkIvXuOkFlMRToEuAL/vQYyDsQ9Oc22qscUlTfc2JzDQRe1y95bzHMolvQynzCVAdq4YcD+4Weaqg94ATNiwz/sE7QHfGtn7r/U5Ah25izwb5b6xQo5z6AObS1xIBrz5HnfvjsmhuVKYv5oBnFwoEo9yI01gDBWtdY5oorpcVdTscrAmqcQW9DnExZ/mfm/yGyNXmaZjHNpTv8oFcLIQlfo+N8OmrXCbkpJR7rG1QIcei3Kje0qeS1x8UEQmADf+iRz3eyfLXCVaPwRH2MAIbtS5pOloliNEmwnunZP9d26WCnzk4dGhBUILhBYILRBa4GG3gHSKHAU+rnKqYIHgILYSuAC+3uJU4MgtbDLJZej6DlcVeUOO8zAwOHQvNs+he8MW1xMl/bkKkhatHvfWhM3VwTJR4MgeUuP67wNwBZz1Dkcs8hc5jWitz43PKSlu9Z3H+XMxBmFNweXngoQ1p2e50T3L48i5JGmxPeA+Mh+Ur5X2PXCe6jQnf+eCC0W8RzgRGQ3MkgUoYKNqXAB3pzi+BUkkUyQXwTPXOVJT8NkuhsyObA7tyWW4YpBkwDcaXAyVygIXTGIGB2smweUW1W2OjZ2f4RYtWKe4dg35gUuDQ5q8FhfI0ve4arB9lfMtHdChR+McUbRnc+2a1t0CljRlTnPKe7KU4XpFpuQcuuVxmaqa5O6tCq4SNQ3u3mRlYoPrRKMNrj/XOcNV4CqYNCkg2jOT5RL0+x/OYEH0wrVN7Oz1Iy55kJU4F8A3jvOY0Un92vi7XL+mOcNlyXKaQ3s0jQsm8btcFexzP7cwWlzyMAY3Yy08s435tckY15Y0rnBIUy7CwfcjkEAn339nGXtsl69uYGf3Xc6ppj7HfeDVHkeg6+xzvSKhcMhDmhuPFWQA905zTlXZ4ZJkzKmdHOwEXNuCDKKWDyKqYJtKPnJtHXtvS3FOI/rHB6ewe18r72BnmxrHQr8Lyjy6B9yO5s5prjIxSlz2EAGnTGa+yr3zxnlOd//e7WnMt7x47TZ29mqTWxg0cb6G3Vs2R5xjK5vc7F4uxlUH2K99cvBhn5sDL6Y4Za79Jogle5zmAMk78N/ktnId/I9cL9ixOHRv6ewB5l7yBudTSVLy3iaXPMh6j8sWA8Ftr3F9bib5jlfBPrJ6nYOx56c4xEVLc6xkdZNLkrtt7mz1Elf9S3CVqb/Nad8P4qDNFQ5pqre51qAKrmjmWCZYCAsPDi0QWiC0QGiB0AIPvwWkAwqadC0O1hyOOJjLjHDjVLkCN3VAyteODzlSk8oV/0JWuXfuT3AzyZGfc8iieI6D74sxrk3VdrlvzHM5RDVicv5cemBv0DE4ogkohS6KCe4jI8UW+jbHeYjMcYnL6IALJrlbHMjWKnBOtX+FU787k+ECuOVzLPTrdW4O/OIM1/snJ5rk2fO7GI5QiHBzwW9uLWD3zkQ45/Lg9hR2b7XAVWS5NJc0jVJc4jKscGePudF7YUS54mCvza0yzcc5n0quSSbPljrX+5cjl5ufi8Y46OHSNJexeQFXFc2crWIB/Pi7k9jZ4uNcAFfAGXSfi99CkdzsvdPi2nOOz00dXHqE82s2WP3r4MhiMcolTVIDV3qOyOF70KkOQRlXH0welOc5zWAHnDqQES5DdwpcJap2OTg3WuOSZPNpbhtZAC4rOtzndjycWjjEioO1JiilWu1yc8ExUAt9v8eNUy1kWthj2zzi5GsjOhdMRre5mWSnxCFN0X0uiNo5DkOX3EiyIJc0dR0OeSCD6EKC86kkr0gOutwPvq9zQZSENasDbmaRvPfU/8AF8Pv/kJuPVZscjj2a4myugMhD9zSXuBRBtUMJIqo9l3vn7phDXPyAa5lIMeKYos0qV/0vL3C94PUHnJBLNMsR6Fb/AZewjbn4LfQh51yCGAffC4vzLQIksR20uXeeS3DQQ8LgSKpdcISteR+E0Ke+D2YP3O8tDv+ASx4S6xxx0HmUG0qWDe7eSW5/jPC5UWzRTXHJg9HiArgO9t+tR7mkqdHhRhbdBPd7dyxuBj2+wG2Ak+3/lGPnDnc4KDkJrpfsnuUylwh4b2WZm8XuTHOQqtzinMvZf84tWrj39zip5FiVK0wGDhfIEiDCVt/mSGxfeOJdjFf07Y3z2NmSJFzEljm2ZikOJi7grGYdXCeqS64yCcA+lTPJoR53/5sy5lzUJNeuaUc42MMAx2NH4CKV3AwnYFPQOX8+l+cIdBy+hrmV8ODQAqEFQguEFggt8PBbQDaOuF6wonJCDwqHsAlDcszgwTEH50ZSXOvAaXL3VhzusRWvc2c3XubOFqCIDIk0jTmXKixwr4YPstDJzZZy7HJFeDzPMSa7Q258jhRb0A85aNF2uLcmQOGeMdcSFfWXuBl0tcGNFQmdi2SDNpcsViocjE2OU93oTmPl9EKKawXLwgTHoOuPuA88FeX6c8c9bkdzEOUcW+lNLpLVPsahHgrYfxcDjrwXaXEV+GiKE5EplTmf2gELExJ5WG2UsAD+2YVb2NmyucMpVI117iNzbc6xqSAT3E9wRLKjy1wANw+4ETaD8+cCRBaFzklEi+E851sGNodyeatcS3SU55JkYXK/N7lGVaopjiFbyHLMQXKhSATsgR82OHhP4b4x4WS4wwPJtQ4Cg0NcQO0cETnkEjYrwZ3tgxMP8Qz3iztg//2d+ixXgX9saQM7vOtyfeiuw8H3KtiPVdJcwhZwAlXCeMC9NR9sW/hJDnGJbXEo12iSS9gEyCsiuR6ezyWqT85uYXHsyI5jZ8uWzfVjd7vc3twhOC+ZjHH998DinKoiOadqT3DwXmKNs7k15s4eTXC/twKu9Aw6HIQ+f4bbytX4wRQWyKK/yZE10U2HN2/OcUaf4Jpk7ohzbEegVnLmFnfvEcczERFOa0EMpjkYm+Q8KAYXwDVw2kIHxwbdgOOZ9Fe4INqwOQlZUvtejsEe2RjcXavvcJCqM8PNQw+f4ZIm7Q4HNXXPcs6l/FMuaao9xyUPkW2uEgVdi7BnuDZVz+Jagwq4GOv2IbcgKmJw6J6M5kDiwS6XNUU4FFukMtz8O5k09eY4x2aCIjL1F7hkUYKynm6KS1z0GY4gm/8et+Ph+AWO81Bc5OahowaXoMd1zq9xrAMMuA8PDi0QWiC0QGiB0AIPvwWkNeBgrvwKl7E1G9y8pAGy0Ds1rjqIgJuSbPCda8dcJUruxZbTYLtG5frvzWe5iky0OX/uprn+e7vFkbEvTHLEQTlVOcbSEAUMZPoB+NBT3EOXHe7s9BTXrglA5n9zxE1bCIv7vTHHcnKwv8XxLUSMSx7GoKCJ43Jv7dLUAfbcNtvcGlWwNBCi0eV64PJ0F/vBTZD0MCxx1UFnwInITGY5ObRuliMtRn/OBbLBJEegU11OxlXvc4HMTXBd0fNnuN3zjRH3zj85vYrFEtnscRd3Drizs4sc8kAuMyFRDweEsZsG99YCUOBiOMEF0eL73NlujAvgzUc5Ill8kiPvmRpHJHum+AALoqQwl3RAYQ/jmMsW2x2uZyI3uEo0Ac5DexzgIqwo1zKRp3uYc3FAFbjak9i1Tw7mYGwdbFOllrjxGlIUrGxy39hGr4A9dJlIcj94d44L4BJcKOJMczC2m+a6JqTmAOjPRVJyFZkd4QLZWOMqcNnm3rlb4b7vUoyrwIcepwEfUbjqf6OV5wL42UIdO3xN4zKX5iHHQo9kuJ6oSHLOxT3gUA8lz9lcBRnRWpfrx5Kb0DKrHIR+/CKXsN2tljF//tj0Lna2rnI2/6/P/BC7tzRUTkUmG+UETfJL3IjLbotb4ZoE96Db81yWTO4q1sBpi06Uq8Axr3ZycPNZzq/lM5xv8QMO1TyyOJ7Jh998AXtu//hv/XvsbHmjPokdPpHimOBHQ+6xkUSyVpe7twYuM8Ee+cnBQ4+rgkWMq0wiuxzvwJjmeqK96xyy6C1xo5qJCIdyZT/OzWIfuFxBJklpzR2wEk1/jWNUFX+/isWTnQOuX1PKck61+xoHLY5mwSDa5JIHhSuCBbna0gV3z+fA6v9SjpvFvnU8gfnU79fPYWdzeAt25fDg0AKhBUILhBYILfDwW0D2mhykKmwufxi+xFVFcXD2fuxwNp9OcGIq7z3CScimYhy0aIEolz3FleCRWxxJNfsYJxFtaJxfKxkcwrYCTteQPDIpj7hxC9/kxkzMEjc+5ziczZcXOfje8rl7n5vk7n2/UcRS/egVbvDfaXBJkw1uvkspHHFwNtnG3lpE5UiqZYPjU3313qOYzaWb57LkfIUz+qnsEWb0X6wtYGeTy+etPY53cPWxdczmBjgHnganDoKbnEZ07zRXifZG3PrYlWlOztQESQ+vteaw7/vXV25iZ0vBFcFiKcNBTWmdY2suzXAf2d4xt1gjvchVB9e3ZrCPzAfVDlNgAO8tc0FUTXF6B19c/gB7a2ejHJHs9nAKu/cj2T3s7BJY/UsF7EMHghNbOBxxPbKjAcc7WCxwSdOd+9PYR5ad4NAeH1wwMXC4US5Z4NpUXpOrgu/0OEZ0WnKFydc3LmPf9zMzm9jZuyNwjCy2z42Z3J0sYUY3dK46cFyuF0wmD8n73L0H6Qj31sDtc719LlEl5UxFmavAyaUebzSXsXe+XODakq+trWD3Vrg6VMjRBEe4MN9LY0Y3nm5gZ485yWDhg/qW1lVOoepUmfu9N+qcsEd+hmtbHCc5pGk84pJFcqnHCNQjHzmcYws8bromtsoVB1ItcjCXOsOxFtvgbmpnwD30Z05vYInLls6RmlI6N8rlDLnf2zO5SjRoc/B9eYFj32Mf2MnB+w0Ozo3HuVhydo5TYhtNct+3fHaB26O60+cIVbUuN+Liqlx1MPQ4p7qSARfndLhRrnyRm4/t9rnVtSLKtanIPQumxk32nJviAtm9ny5iucvFz9zFzt4ecuqW8lqKa/6XI9zFv9m+iP3gcxMckWy9ycG581muKtpf5aRUxykOaZqd4t5aVeH6740BN7I4sLgk+UyJS5LFGW6VqTvmuFyrTa44kBbYkC3o3A8+mzvGAji5jWwuzwXRNVDQJDnHqcCRm9DiOgeh55LctsH6Xc6pBjkuYVtTuQTdBcclex43dTAJLuXiOv9Y+AwPDi0QWiC0QGiB0AIPvwWUhT/5J5iUy6tnbmMW/NYNbmYxU+J6oqRWsiG53mAE7Evuvw6KyJznmP9mhKtEyR0PZ5f2Mb82cDn4fiXNTXpgBj852A04+F7GExw796cHHOnB3OaYgx09hr033eSCaCbBiUx4PveRxR7n+tBkP3bQ58Zr4ve577s9xREHG22u91+McsninRrHcTlX5pQ1pfcOxwSPPMn1Y8Ulrgoe97ksmexLNrvcXHDgc92iM+AilXt9TiyplOe+sd6TXO+/CW4bNG5w39hdg3trT05vYUXRezVOYVK++ptvYRf//zbOY2d/Yv4edvabtXnsbFNysGY+xWXojdsgqWmSk2pye1yyqGQ4kmo8wgXwtstV4FOf2MF8S2sEIovgBrhcjCNrysuxbewHfzcN9gZBHfbJBKfLfWxzzoXsgft5LnHZBndyp0tcEM2YXMtkr80hi77HtWteKK5h/vyvqmexs9e6HPue1BSRJrjD9VyW29E88Lj+XAJUBctFuGzxjbfOYR/4xBmOYEOq/p3Kc/rUEqyK+j1wrKjEydc+EtvCvrHYJId6lHVuTNQfcwibvD3i8PuYxlVFCY0j75GiAz/a5UT/Lz/Gqf45IInN/TOuN6j+AZck7/W5XQdXFzgo+WKKY6Fj0fvk4OUI99byGoc0rdqTmNnlv7v9OHb4ozPcDtfaiGNr1jqcjOuLcxzElpKcVvI31i9h71z/HNcyiUmuKqodc+98Ms7ZvO9z6N77w3nsnS9EOJRr1+VUPTMah2rK2SLHBL/+9inssc1d4rLkiM6Ncr2xt4TZ/PmZdexs0ubpGNcLdsAZ1ZkCp3YoVU6HnUT3PuhwvKJegmtb2AG3X+LX0jcwvyZzINFEXtnFLn4qxWWLxzGOrXn/mGNj/3DzNPZ7VzJcRUbKmb6zM4vZ/HSF0+WumNzvratcgt52uCB6aHEtk9dXudZg5Ar3e3PDsZhbCQ8OLRBaILRAaIHQAg+/BeR0lIO5ZsDtVH+6eQ379To9bpRrqsAxZKeTHFP0mRy3B/3Q4SqT5pAT9rh9i6v+vfNcbbKnczu5Mad2cvAbb3K6HslFzrfc7kxgZpenopwM3DmT60OLBczmYnvEzSyu97mzn8xxLPSez0GLTyc54uB/fOcx7KF/6gmuN/jzw3ns3g/A7zsLboD77PPvYDZ//WAZO3vrG5wkuPwPu1wl+gdzHEO243F96KjG3fugy+1ofmKWq4L/p/Vfxz7w55ZWsbNPr3BJMrniMWlyY6IXitw41XsH3FhwBOz9a2qAfWOf/Mqb2NnKP7r5OWwb2e0uNz9HjtccWRys+Wr5JvbYThmcY/vToyexez+T5tj3mxZHWjywudaB5XPLTB5JceTcJ2JckvzeaB77xtLgKFdF59qS8i8eXMGMboDjVGdyHEP29haXuHy6dAv7vb/TAVe46two1/+z8xRm84kYt1DEAFe4bnVzmM2X49yEy2mdEzSp+9zWvZTKfd+LZAAvJbkP/OnCJvaRvVblxg5mp7iH/n/dew6z+ZkilzQFoNzh8YBr1yyluLf25jZHNPnSmevYO/9c+n3s7B6Gpwqx7XD8mpjKtSVnJEegk0/mt7DHpiuc2MLjRW6JS1Zyyj3/ZvV57PdeA/tUz05xBDqzzEkGz0Y5oaadPLdQhPQtbZ+bMrkDynr+oM4tMzmX5tpzZHEgux732GZMzrms97je4H8x9ToWRP/wJY7cU5Qc2nN3xLUtSM3/f/ezZ7C39vsf+yl29p9tPIqdnT7NJegPRpxfG7jc6lqSMPlBnxuXlG/826vYQ/+Hf/Sn2Nn/5kefxM4WX+EC+GWTW/JQAhcONDxOlzuncXvQ/+eXOUIVqRHdmOF+70OHQx5Wu2XMr/kBN3tfG3G/dznKFSZy5rc5aPH6YB57bNY81zP52hE3unctxfEOUlHu7CroVIcat9yCXLNYDTgWetvlkMX3W1OYX1tIcqhm3+He+UaTW2ay/h43B86lTNgTDw8OLRBaILRAaIHQAg+/BZSnv//fYrxFx9MwC3586j52dlLj1moeudwa1bfq85jNvzDNqYLd7nP999evc8SiJ65w8+/v7XGCJn948SfYO//f338JO/uPH/0BdvaMzk1bkKtMlf/uxhexAD5hcAPw7phLHsizFw1uRtUac+IamGc5OfiNDjeyGNc40iLZjx153Fv78vTb2HN7Msq1RKs+14f+RJTbCPYXA+7e8lKMI7mQgWzP4YQeyCrYBffmkr/3t3e5RQuvztzGHPqDITebi1365GCSUPXD5jns6i/Ncrr7f15/HLv3J6Y5OdP7FrfMRPnGxmWsAv9Wi1OB6zgcyeXTBU7ONBAK9pHVXI7UNG1w5B5SQvbrbY4w2XW5BTI5g2P+r5jcTPIw4Ea5MMdycvATMQ55+K2f/F3s6sr/e/8JLID3Ai6I/nWb216z2+fGTL4y8xb22CIKJ2iyaZewez+f4JaZrNpcdXC9N4/ZfCXOBVFybLDjc6p/5MSDJrhlJh8OZ7B3/v8D/1HAM0KF7bUAAAAASUVORK5CYII=;" parent="iqJVpxYbWQjncIScGIDG-19" vertex="1">
          <mxGeometry x="9.664385364569625" y="10" width="46.23761855369542" height="34.397302610618176" as="geometry" />
        </mxCell>
        <mxCell id="iqJVpxYbWQjncIScGIDG-5" value="" style="shape=image;verticalLabelPosition=bottom;labelBackgroundColor=default;verticalAlign=top;aspect=fixed;imageAspect=0;image=data:image/png,iVBORw0KGgoAAAANSUhEUgAAAfAAAAFxCAYAAACMQPqbAAAABHNCSVQICAgIfAhkiAAAIABJREFUeF7tvWmQZed53/eec9+z3H3re2/v63T37BtmBhjsJECKhCRSlkzTtE3JthI7+qDESlIu+0OiSuSoKi5JjlOOEluuyKnyIilaSFECIYoUARAAsQ2A2bfet9t99307W5pf8h23p/yrKR58xu1n3ue877P+n/+jzP2L3/QE9J/aVyDJQiz+H5uY7K2vzWCyBady0b/Yxs4dCfcx2ZlwC5M9E6list/ensNk52JNTHbS7GKye47EZG+UU5jsVKSDyd7d5c6tYqf2Bfsa8DXga8DXgK8BXwNDa0BGN7iUrDWJJf9i/Re5LFhxhv5eR/5hgEsOhJTukf/9w/6B5v3ksD898u/cRe6NjZhc1ePsaP7Iuhv2D5CZ6H47Ouw/+8i/OxYvHflvDPsH1DRnz+99ODvsP/vIvzNa3PuW9ZP2kQ8w7B8I7nDlnvgq50wac1zho5cZ9msd/XcZsMz18uc+PvoBHsO/cKsxjv2rbZe75zG9h507FBtgsknBCYPLDrQG50RjTxUxtUslzDlwV+MceH2eMy5kBm4nue+dP0hgF31ypoLJXjT2MdmWF8Bk/6f3n8Rky4iFyf7KyY8w2d/ZOY7JjhgczkR/gsN6TMVqmM6l2+WcKGhbhKthOheS86FCVrjvffXF+5jSf/vh85jsf3bym5jsu41RTPb4dBmTfSrFBU0aGKFXq2FM5xWHax14NpeBuynunsvkdc6g145zZWyzwGXgY+9wpaaVv8t975ulMcy4/O35DzHZf1i6jMlO6Nxd++T+NHbuKxluymSjk8bOHdA4gI1qcplJPMTd82KXC5rkII7dNSEi3AfP/gXnwIsXgpjSA1UOaJKY5h7Zdo8b9TgT3cG+9/6Aa1uYSa4P3bBNTOfv7XAA2VySG58r1iOYzptd7nsHVM6uyc4kF7GJAedES2e5TNTRsXsuFLDUVO1ygcurxVOY0r90/AYmuwk6smMjHCIaU/ihYGsvhInXEnVM9plxbupAFVxicm1zCtO5FA7XO5ANDmCjcBgXYWW4y+aGuICtVuB6ZPOzB9gjqwy4EpuhclUuTOGHgjM6R54zcYK7a1s3uamD8MUN7JOTCPhoFMzAAyAbWrCAfW8xiHGyXZPr/St9ruqRWeDAHus7WeyDr3uc7OeOP8TOfXt1EpM9cYbLROPgCNtOgstMmpaBfW/b4+xao8ZVXKST4j64W+BqyVaMy4L1Mld5sGJc8CADnGwFlO32uO+93uR6//EM14/9y3fPYs5EJLg58HCSywZ3P+ZAqso0R6Wqr3H9dy5s4Z6XL9nXgK8BXwO+BnwNPPYakCSQrD3N9WMzH3KxS2OWuzeeylUe8pvceE1mkiN6aL/F0d9FFzlyjZkop/MNg8uCyX6sC24rap7nsmAjwGE91gZchU3qJQ6NPUhyDjzAvW8x/jYnfOtzHIONN8GNFc3GOWey8wLXOriU3MKixYM+BzQh58DvNXKYzkOSa4ne2+JIg9w+50QVsEUmrShnXMa/zyHgVYc7986LXO+fDFwmchyIrWVzOl9KcFzJxQE3m7va5Couy3EOIdu1uCCZlD2e4yhF2wPufddJEFv8PldK3nuRy8Aj61zEZoNBkxfgSug7ZW4jmFXjELJLlzhubJLQ5HSCmwu+U+eywb0ax441KHBcC3PL3PfeW+cmPbwYV/WQXa7aI2SLc6ImyEjWWuCcqFHkdG4nuWBxdp6bzf3hwRxWUj2V5oxqoc/N/ZOb0EBOEaFnOBS65XK2JbfIkQbtr3GVJkmOU7k6V8ZuzHKXTbG41oEV5YIHt86VucZmG5gTfVDlQGy1ATejevv1Y5jOr37uFiZ784Az6AHJ2VRN5SqqDZBKVQW5NaQrOYPuGdxl8yTnwPUal4kqHFhT9Ljqnsi3OUDVS+MPMGdSszgHbs1woMWMwTGxuVUuUA1PcrP3EY0D566XuFJyeI5LDiTpRBWLc2ShPcymitY0FzSNv8VFyds5rvIQ1Lg+VQhEDlYsjsY1eIcjuJBnuXuu17jkwDrgltfIz3Nl7MwoB6BTOLMmpHHAjZEFubak6HFVTSG4uEUcXOK+t2dwTtQE50RX29xlK/U5Bz7zhQ0sSl5tcTqfeZob3XuwyrGhYR/7UHCxyFXYAkWu4iLtMJcNNpY42WqPC5sCoOy5b3Ac0Q9+hUOC9xwucIlIjkzl7n2OjzyUaWM2XZNcBj4Z496YAm543Gpw2f/sBJf919JcbxDMBbG37Qv2NeBrwNeArwFfA4+9BqQb5IBki7/0HqbA/f/2aUz2gBsTFTsvccK9Doegkwp3z99em8fumoxz2b9tc71gU+fu2k6De2OLJ3axu9YacBU2ReGquY06l4FLZcCVktd+4yp22YTHfXCtxem8PcOVFo19rox96kluHnrE5BDRO22urEnOYmeDXPmeXG3JGVQhyP67DHMBm9PhmPekCu4Dd0JcViQ8zolOf4cDcxXOc4AL+0luxOVug2PmupPnZE+PVDCbPhrivjd26EPBuw2OcbDc4ECLJxe57P/hPgdaVMg5cL3OObIuuJObZEvae5ZzogZnzwWX+wuxUeOM6tMz65g/2etw6NyswTnwrsO9McflbCpYWBQ9m6uwhUNcq8hd44ImaXDjc6I7zl10xeZkj9zgKg97X+bIFnJhjuYR86CHgls21xuci3ARW2XAGTayjD0e5Yg9yK17d761hD0zjetSicFnuEBVVs9z5Vzsa/9IsMcB8PPPccGD+YAj15hZ2MQ+uQRpHlsW58Dfzc9gOm+tcf337HFuA1xnwPVEZxLc2lznMufI+jZnzzUQQCcVjQNzkWVswWEehNrkLhvJhR4C56E1EIU+onPpwXSIM+jftbmMzHK5N7aQ4tbmFrtc1aNX5Gh7jQNu4qGf4CqqUjS5voUIgV1RUDQYsAl7jOsVtSwu+w9JrnVQBReKZEwuK3puag3L/i2wwuaCslXQuHSnucqDPscZ9HKTC5rI8Vg0ARfgEheFu2vC7XOR6niQA1y8sz+HORMdZAUje8HkQhEyWDzoRrC7NhHmWODI/rsKepN8ngPIyug6V2rqjHKy7SRYQ+da4GL0da7i8q3WZcywTZ/mttdUOlxpMWZwG8G2O1wPfK3ErfQks+Cg5DBNBy1u/3smzLWpJsY5oKhsXuQeeGCXK6linuRHgkHYQSfDRQ+JRa43mA52sE8+EeGyInKU6+Myx8Nuvsk5E/EyZ9D3m9y59QBXWlzNc3PgMznOrnEpMGZOfcG+BnwN+BrwNeBr4PHXgFQCXDroToNzwVWO6CG0z12c+hKHmIyBBBcNkKf5ZJqjcQ2A6PuOxb2x+jmulGyAY2SDXQ5QNf0dzrbIX+ayYAcELUolz5WxvTGufB9d4cBcHY5ZU5CrTAfvp7DIZeZL25jsD6vTmOxaj1u0kAtzCPipZQ4wSSKDe1kO49I5w6HQS3VugUx7nwMtSrIf61Y4govWHBctGhWwcwFywIeucjt7yVnsy1GOSvVWm+tDl0AmtqkgN//edzknSrLfuaRt0bkx0ewiV2FDHXhoj3Nk/RTXOiD5yF2u8CDC4CNr2Fyl6WOLy8Df3F7Asv8Xp1cw2fkel5GRo3sFcITNDHCTPT2Ly/4t0KhKxeFQyRZXeRABcgsb1xoU3RwXuLgtrj83O8b1yHIah0K/H8tiTvRihKPO/e2VF7Bzn0gfYLIbPS5QHUlw6HtygYxlc8GDtFNc1CSrXKnJ4Kq5YuQWB7DZD3OXjZyP/fb+Scyo/vLMX2GyX87dx2T3XO6uLSa5Bx7XOHBu40NunMp9iWtbKFweKiyLK2vKQJRzJmqBc+CdcS4T3VjgWgfKAOz9q5zsbLCNObKVPodaVEEU+jf3z2E6TxmcE22D2+dST3LZf6nHERa1G1zlYfzPuEBVuuBaTQckgdfAhSLkJjSzyIWqoWUuWBw1uTL2795/CnNkJ3OcQbfBhSLvr85gOo/EuOmadJgLVEkil2yGW+G69xluukZ6DS560OtcJjpIcKxBgvOhQmtx5Z7SRznMqL51jjv36Rw3+P+wOoLpvF7lMrKL89zYILkRzAWNCwlim4lx5fv2Jte2kORSDxDjImphLnjALOqhYHCqSAhwU5L3Tc6R2V/nZpJJjuhmk5tBHzhcwEYCyeZAINm9AgeYnE1zALrA01zw8OPpxUgP6sv2NeBrwNeArwFfA49AA1KYXCm5Nc2B2EI7XB27l+UAdHac+97hUW5jUAcEDq5WuM1Yr8zceQRmYrg/EdO53fMffcTNv58+tzGcwh7Br8gVrpsGt1azCVIleyCBjfQGXKnJinGoZKPMFR/G3uHOXbjIfW9tkgseTJ0D0JXXOcNmT3Pf+8kEx0B3PTv+CNzhcH/iVJxj5vqgzJEGtXscwUUuwtH27qyDPXDjgMuC7RCXiaqcLxF7z3LBgxPkDt7f4tixXnnyk+Gs8SP41S2Qgc5QuMClYnPEPRcmdx/BlxvuT5CUosP9ix/Nr2JBDn2fb8YezSGG+CvBEW5V8SET2xD/4kf0E9fgMtHUPe7gvTQXqXoa1zpYOLvziG7Op/8zkQBXzk2CM8ljOgeg+6Ax9+k/1CP6RUTjnMkf3r7wiE7x6f9MMsmNkZU3uEqTNsJ973CIsy2yn+EcGYmAL1zgnGiIG80V1VEuaApJLhtcbXNlroTOkYq8XTv26b3AI/oFuZXrrbfOPKJTfPo/M3aGe+DNHrcganqJO/fOzbFP/6Ee0S8aWa6iKgNdTrg64LJBsLonSNlqh+uJtsD90M9lVh/Rc/30f6blcCxRD5tc4ELOBZsLHLGHCQaqx3IchewnBQ534Ca45CANVj3QEnqAS0xQJ+oaXO/fCXMVl5VVLkr+2sQHn97zPqJfTGncIpV3iz/1iE7x6f+MBgJNum2uwtY0uIAtk+J6/xGDW+nppbnWQbfPkaFJK8kZdC/AZYMeJ/qQSZVz4IrkSugCPPeDLsdHnpMcjeuXxm9+es/7iH7xdoUb5ZrMceQa9W9ymeju3+Iy8Nr3uDdmvsCdWwY4m6rM/cvfwLyJCpbvdW7qQHQmuKCJXB+7dGb7EbmGT/9nRoPcB6/0OUpRsv+e0rmsiNx8Ry4zuVnhqlz7RW7KZH68+OmNwiP6BdkqksE81wPvjHORy0Bw5/ZA9H3sFlfuMc9zq2uXwhzAJhTlSoshlUPIluzoIzKRn/7P1G2OxjUsOZ1PRrhqT36fQ6GPhrgAvdCNfPoL+oh+wXmxR3QA/8/4GvA14GvA14CvgR9HDUgyC/biHHJQbXDjFsLl0PeNZa58T5Y1d/sJ7H1/+84pTPb/cOXPMdkli8tM3i9y60RDGldxId/Y4jS3da8x4ICDB02u0iRJJxoockhRjaPlFnYERNCBG8F2m1yPjNyU9FMnb2FOdLXHbYja73HsWHmwH6uZXKsoF+dKyVtr3F0bnea2kYVB9L1UQGSwm+N6RWqei9i0BpeBD5IYZlH0bS5wGY1zc8EOuKN5pc0Z1bTBRclPzHKAyYHL3fOcyTnw4BJXUd2rc8mB7XCdaKkEOIOucH5MdEa5c4f2wYN74GVb4ECLT6Q5Gtf7Dc6J/vXRa1j2/1GLK2P3HG7Hgx7g2lRth6tq1nsccFCTnM5RBx4A54KVh9yyAwckU+lzYE1Bzr+XD7iSaiPDVVyeTnMscKrggiZD5UrJZBZ8N5/DgibD4HR+Osv1wEmWxy2bM+jSanNjRQIkkSF52IXgSmyCKzyIsXGOXAOzqIeCQyoHanq1fBY7+laTM2z7Za6k6gy4Klcswi31IJ0oWfXQNS5okuA4NGZYfiRYbXNO1CxyJfQW2KfqDLhgkSQVWTS4zKQU5hCyZ2Nc2+JWbAKzL5/sc7LPjHC7yMmqB4lCz4Y5rIfUghzwwOKqeyJ1jYuSK2e5g8dvck60doZzJq9ri5hB/3yMozM1Ve59/8nWeUznUzFujWpA5d53BgQO5sGpg9vrXNB04dgWds+ls8fRPOptLhMtXeJAD0aRy/4bJ7lyz9Q0x1f8mdxD7JG911nAZH9Un8Zkf23mQ0x2z+NAbOQa1SDYrunYHIAuneWmTG7scNz3klys0c9xzkRWuQfeT3ERurC5oCkMElzkNI5ikpzFroDI4NcKJzEHfiW1icmugaQiAYWzLbU+BxQtl7jq3vQ4t21QBnqcQfc4oiYBjuYeopq47F+A+8CrXa7a8+3CacygZ8FFKgmDAzXNhjnDdtDnJh7mIty5V9vc/veN21wmevmJFex9X/vwGCabawRjR/YF+xrwNeBrwNeAr4HHXwMyssll4P0GB6hyuXaN8DSuBy4bXMym/5sU9mJi/5jrv7/x1hns3KcurWOyr5WnMNk9i7Mtz4yuYed+2OAy8LMXuLuW1DuYzhPHuPFY6YA7PUhSERDrIUAyNGHHuB5Z9Re4cYvSayewB/7Zn7qOyc7pHLjnjQJXWtRANrSNdhr73n2QgW7E5JzovTrHdlhvcK1B2TzLkUyQ/VgBUsiKINcD17a4iI2kHLzyxduYUT0f4cZM/u3qM9i5nxvjMtGaxdF6vrs1i+lcA0lFqm3OkQ0GHCg5oHH2XIouV841clzEFv4Oh1qsPsuh7wcp7rLpHteueVjjSotXExyV6i/Mv4c5k6bDoZLJBTJjKW7iYafAsd9JnbMt2QS3xGV3j2sNShHinAlmWQ4FV5/l0LmiyjXggwWuB3763B72yc/HtzHZpGBN4d73/TbHCU4yc22tcOe+fIYLFq9tcpiHLoh5yGS5gE2m3+JKquXzXNlDBLlesA4CyXo57tw398cwX3YqxgUPpsKxod3rcTqv9LmSag2cf8+Au6mlymXBboNLTKwwt5raVrikSJaf4Xrgao1Dipp7XOtA51geRW2Sy8jIndx/vH4OCx7+3rF3MdnXaxzF5MNdDlj0zALXf/9gdxr73qUgt+FxdJabfx84nD03JGdTpbYHRk2jXGbilbngoce1Y4UAl7gcvM45k8mXOCDZ/Q5XUo1pXGZydYEbK+qAe7GjQa49V+ty4L2YyZ272eCIe3IRrv9+yMSGBYvCrXAldBBPJVzu2CLQ48o93WNctccFP/hqcwR7ZA+3uODhuWWOHeugw9E8ktng6Qy3+e79rRnsnltlDjBZAwM2SRKamAUOldyZ4nrBoC85pJDlFoIbUS4bPBk/wIxLWHLnPp3g1kv+xcZxTOeLIxxxD3boQ8H7HW66xipyTjQxwwHJyO1zXDpG3nJftq8BXwO+BnwN+Bp4zDUgvaU2doTuDodSlbkudu7AHQ5oYkW5DHzQ4XAHZBZ8Isgh4B90R7F7/srcXUz2N+5z9LVzWQ7MddDkMvDMXAX73hGDq3KZJIhtUOfGyNQMp/RAgCuh90Y42UJyDvzc7C72wF/b5qhUo7Mc0GStw/XfawMOUPXE1A5213ognakH9udSIY6Yq21xYOxul5MtIxkuA/fej3OPbAQMXMDGhWNwwUMd3BdMIkVVcEdzWHLAwZkQl5GRVKrFPpcFD2xunIqceCCBg50B6MBdlwOSdZc546KAGbhnkx6c+949myuhT0Q4kIsJsqFFJZf95zRukcp6m6s8qIKrcvXbnDNRQYDsZJh732TVQw7WuGhRhLhsUIBbuUSfc+AKuEglv81xBiugcXlvkxuv+erxj7AqV37AVdjIqocQ3PvWgxy3xv0KR3CRDHLl+91KAntjcvJ7HIvM7gtcRmZHuHMbIxyAztS5B66DKx7Ppbn+ezHCBck36hx5ThGcxb6a40hkmjY3ToUu9djnFql0PuGSg6XnuLsmy6dAJ5rinKhmcrK5IrYQ9SLnTIIJLnDZ7XBR8nKsgEXo5H7osSBXQiedKKnzuM61THZBwzbzDMe0SAaqsrUEOjJwExqJQrcsDmgiQCa2fpcLFtcqacyJfjn3CSa7YnOMZA9AClnSiUY1zomSFLJToxxoMSS5yuL6DY77XhppLitSrnPZ4OA4BzRxW5wj8zTu3AvjRcyR5V/lHplznOuJ7va5ykPb5gBVK1UOxPb0KFdS/fDOHPbGxqY4B379HndukeXA2NIGs0HvOBc8kKvvAk3OoDsZLlJ9+HAcMy7iNMc5UHE44p4HTW4jWLXLETWNR7nyfQEcI0uMcuc+neZoe0nMw1v5ecyucZ4EO7Iv2NeArwFfA74GfA08/hqQTpkjNNEyXK/ItTnEhWtwZeyA4WC3VgOXmegah/XISG7d4LPpVex732txNK7BAFdpemNrAdN5DNyM9VcPl7Bz//Txm5jspRTXGpQKSORi9bi9mnqNKz7YIc6BOwPu3NkUN6tpO9y5DYVzJiEV7M+pXLB4o8y1a86Pcdz3mBc7FKxL7nu/V5jFjk5yTEi9yhm2foBz4IMkd9kECCRTqxywqBzmesEvz93HHnjf40CL8QAXNG21uLngiSjHzJU2WthdC4GVhxbIRz4R4r73nVoO+96yP8qVFvUkV0IX97jxmkGaCx6MEtc66ES5ds1d8JElJedET4U4ApvPZh9ghu331y5isq/VuIkHkMVV6CGu0mRnuET0sIyN3TUZiHEltkGHywY9MnApcpUHl0sGsUv+I8EjJudEbzW4cm5ccpMekzo3VvTzx97D7lsffGSOxzmylsMF6N/b4/rv07EadtckWr/f5xy4MsdtYXOaHJGLanEZuNrmzj1wOdlkabFgxTDjYqhcRlayOI4JEnfgCu59dx3OnldrXHvuWILb/y5jEa6MXZviokXOnAvhgTu5+2kOQJeY5SLV2TD3yLI6h0Ins+BXS2ex4GEqVMVkb/U4Xu7bFQ75n1/lyHMS01wP/F6ZW+Ii4yZXYiORwd0eFy26Ya4HroJjZOTq2vkgN+pBjpElAlyl6ZWRG5gT3exzzuTtA44V7BlwictqmAtUQ+De+3dW5rF7LskdzWT5nuRCVwJcFuyBY4NzSa4nutblouRUhEMlbwy4c+cHHI3rX+4dx4zqQqKEyXY8roRuogh4rv+eTHJBsixUuB4ZOZMswF6Rtsdl//Y01zJZr3KlxfsFjlJUcAmZ+LgyiTmTp0Y2MNmkE33nfS54mD/NTR10wDEyE1xmUilweAvpFbjIRehcJpr+iOuChwrc6F5+gSvfDywQfQ9mJhMG1/s3Rri79gfvXcEc+NyxfUz2V1/4ISa7ZgUx2a/dPo3JvrrEMQ7uxeLYuTkUGXZkX7CvAV8DvgZ8DfgaePw1IN0YF6ELsBfcT3AZ+CDKZaLOARezaZNcL/izMw+x13o6uI3J/s2Dz2Oy//ELr2Ky36gsY7K7Dke2cA8kLLqwsIXp3AbHRB2bs6mSdKJqgGOw6Y5y5XsHXGYidE7nqsrpfLvN0XpqKa5t8Xcn38GM6u0u2H9PrGHnzg+4kupEhBun2m5xoMU0SNQUCnJkaNLrc5moC7bfRZQzqkqPi9hIFHrU5HZyj4W4PclvtzmWKMyLHQpOSQ6d2/O4KldS48693eUC1Z7FVR5yCe596yOcL5GhTe6idye5kQeVdKJgJuqBbYtKK4T5k9QoZ1RJesu+y71vkpHsm9vnsLsWNbhJj3PJPezc5BjZwwY3LlntcnZNdie56EFw1Vzskv9IsNbgMvBAkZOdmuF64N/486exb375pTuYbFLw6/lFTHwyyHHfkwY9FuCIuT5uTWDfeyHKMS0+cDmbKgXIzOU5XAbugCs9FYdrWwymuX5Nq8/Nv/+tL72OGZc/Xueywc9Pc2tUP79wG9P5/7n2Aia73jEx2asdLhMlnegbr57HdD7/4gYmW4J8JsLc5XomfdCR6TWurNkf5coels0FLprCVZq+PHsTe+AmuFAkI7m+5NdmPsB0/ie7nDMp9Lg1yecSHInMyZdWsO9tkxm4WuecyWCB6xWpIIFN8AC7a6K7wDlRU+dGFu+0xjCln4zkMdmFAccSVTO4DVFhFQRMhrnAZavJgdgetji2w806d+4+SFAl9QpXv+8luBK6F+Qy0dop7tzGFlfGrrS4R6amOWauf/Pe85gD/9ql9zHZNYcD92z109i571c4RzYR5cbIturcGFnlgKMED6c4vIVUuZaoUMucM3ETXDboWVwWLDkcmejPcDofMbiDf+n8dcyZrLa4nqjtcff8zfwCpvO5BLe050GJ+97H0twSl2aXwx0Yr3Fz/1z6jT0vX7CvAV8DvgZ8DfgaePw1IDtzXFZEziTLCtf7NypcCR1MikQizWXBbZtjDXJBpKiqcOx3d+s5zEK2fsBlovsvcoBJMgu+lNjEvjcJJCv+DDe6J7Uy58iwr30o2EpxgUtP4wofHidaBFUOd9B2uHZNqceBuSodrg89AMclI88VMfOSDXGB6mKkgJ07CTLvRTQOtBiJc7LlIGNhH1wrcWNkwuCcidLkeoMeuMK13uRWHVbCnCO7vzaOvbHJKa4vuZTinCgZNOkql4GvtrnKA1nt+XHlYZcC3JPshDgn6tlcGdsscLJln5NdC3FZ8IaWwpxoKseNFe3e5crY3nHuro0EOercjs0lJrd3uHHJa4MZ7I0pkvMlOyB5jsy9xWWDhWe4SFVxOeMSX+cuW32Bq6FPTnN0h+W3RjHj8syXP8RkfxDg3tg4OA9d7HJti5loFfveusG1Bi/MbWDnvr7PVbkWpjn+eVniSIOE4PA1h01wzpFVTnKyXS4JFgOQiS38FFdKzuhNzLC5YIWNLKmSwEEbBJqMxrlqD9k6mEtxo3tkxUW6JpcNkpvQOhNcZtKdAnEHIPqeNKpLSa4f23I4BHyzy8nuhLlScqnJZeC1Dof1aNY52U9luAz8QY3r/RsBruohZYqjM+0o3PC92uGyYHKJizvJfW/b4XReG3CGjcxEHZCn+ViUC5pInV+/OYtVXGSae9/k/vf5ONeeyxpchU0aYM/EjXE0cI7Gjc8pGlf18OpcDb3W5XRugyNNVZNDwC9nubGiADiDboJZ0ZnT4Dw0WL53SL4DsB9tOxRBAAAgAElEQVRLtqmkBdJ6KhyOTKgdDrwnc1zgYqsc8EAtceXc0BincwvMgsn+XLHPbcaaCXEZGTnKdSLMcf5HVS77f2+HQ8CTQTJX08SKTL5gXwO+BnwN+BrwNfD4a0A6YF/S2+d64F6cAx5YHQ7cI8CypgCz/4jBsSWZkrtr97a58blOhmvXJDLchqhPtiYxz6DPcnet73ItssUMh7fIBcEeuAoaVZdrBYvgGudEu8e4cq6+zZWx7XmOM3jgcMZlOlLDDHrq2BomeyrIzUP/6dpp7NxOg7Mt63VujeqV6Q1M59/9/SuY7DunudaBtEBgkbS4JngHXG0Z0LkRthDXIhPdE1x2sPuA29F87uouZlyy4Ay6oXLjkp0iN0Z26vg29r03qhzjIHboQ8FXfu4GJr7U47AeMvN9rszVnMV0LmydS/9dEAneOMaB2Li8RAg1xZXQ71S5MnYzwrWpEhpXcQlEueDh1gpXQl+az2NG9Z0qt4M9onFZ8FSYqzTJ4iXOoCsuJ1v0OPyeAvKwuzEuC7Z6XBk7GObaFj2QG7vncGHTD0ocL/fpSY7est7ngqaHW1yw+NzyQyx4aFgczwM5LilVsIyt17gS+tR3uOzg4T/gjKrg4hahggsHuusxzLicfeoeJntE55Z6HJhcaXE6xGVF31o9i33vJxa5GfQxs46d+883TmGySYIqqU9zu2tjH3MP/OE/BJ1oi8tEA2mulOzucoQmboTDHZBMTSQyuPR9bsGE87NcKfncAtcDnwSBg3HJJUWjMY4D/nJ6CwseZK/IGVX7J7lRD41L/oUFOnCnxxHYhOa4RzaV5JDgH1e4nujWPa6kGua6NeLjEqfz0TA3VrTS5DjBT+a4tsXJ+AHmRKcNjjRIKhEO7KHr3Avv97kMXElw/VgPHHHpBzmdJ3QO5ELKTp/nguSt+QRmVFMmd+6MwVU1yYVBszo3i/3rb/0kdtcuPb+OyZb6Gge4GCxzZU11nas8uBEOAZ+a53qD2C0/FHw9z5Vz50a4CL1rcUHTSIjrv5OOLBjgAvSkxgUuqQAn+39+/huYeUmA55Zzv8ftSd7+6RFM6e3j3CNTQDCXHuCCplKdm821GhyBzYbCzebKABcsjsc5UNP9nRxmW6aWuHYN6cC3rSSm87bLvW9T4arYICYZ+9a+YF8DvgZ8Dfga8DXw2GtArv8aF7n0C1w2KLocmCuQ5iK2coPLgh1w850W49D3pJXQJPfGWgPOtoxnuSz4oBfFPnnb4Yi5IgEOZ+KCa1Q7LqdzSZJroAC6dbD3H+WCByXAked4FlfwCUY549JqcnctZHKtovwtroydPckBqq4/nMYceGyEA9D9zMhH2Ll1hQtUX28cx87NDSQfHjkU5bIiW3BGdek3OWey8k+4aFGtcoAqJc0FLtjrPhTsgLvIXZPrv49FuJHFzgh3zy2bSw6aDseGpincRFOhz1VcpBHkyrmdJldiS3Iji2L1b3LjNW6BM6ouuMKV3Lrntbk4ueZwLRMzx6GSFyIcOPf6tXksZvvCsx9jsvMWZ9fiIBJcV7ngQQ5WuejBy3LBQ3MGu+fCmeAycHITmnGHcyadGFd50FPc9x5NcpnoToFDJTcsrsLmgSRRMcndtb8qLGFG9a+NfYLJfv1dbnWt1Bc41iAbLPdYUS4rEm2uxGaDRC4izJWx5W2Ottda5igme+AcuNS4vuTHxQnMoAd6nAe/XecWyKgK977vd7hzz5/exe6a9MBwUb/GZWTuCHfZQktcVtTc5Sou9igHqPI0rnVA0tc2u1ybatDhqh6BKFe+DyxwQLI7u5wje36B20a21eGqPYsxDjAprQGXifbmud6BCq4TDYDkGiLMZUVYmHooWAV17nF+TAzA953OcIFq3OSqHkGNC1Qb4CpTsnz/YZ5D/p+e5QBVUoBlD63CBQ/WOIeAr23FMV8WaHOjXKF9rrTo6Fwmak1xQZNscKhk9SxHpYrOoIe5wGXjNkcZXEoVMLt2Osttn4uAuAPplDnDxrmSH90zzpkIrnqPPbAfCW6c4ECLCjiDLgyufO91uVdWqnDtmkyaw/bUBhyA7vkn72Bv/HiEc6KvFzkAXcvmvjf3urFr5gv2NeBrwNeArwFfA4+/BqQHZgfWOFdajNzkGpPtc9yohyM4BLy5x8m2F7meqOtw1Z5Aj9O543D5QavHve+AylVcxlLcAhkTJFN5JXcL88Yf1mcx2VLpc49MgvSW7XPcI9NMDrxnXuPKPc0nuMCFNKoeuHt+kOHuGrlvwItyQdNBKYYZ9FqaY0PrOlywWBpwY6JxjUsOpFHmQC7aOjdGlrnOIUXX/gbnRO1ZrgHvgRmZBiKDVZB/3upyQNHgXe6eB6e5952KcCNsf/nwBBY8/NK5NzDZ5Az6Wotbi62c+Ue/hVn07tMcStXuc4GLUuSAg+4IZ9j0Le7cU09vY8ZlbS+DyY7GwOwAHN2r3ed2sBuzHICut8NlouBCMKEkOLtmhjjZsnGSK7EFwIwssMtlB3aEK99Lg/vezgJ37tWNUcyJLszuY7JX73NjRUaWy0S9LDcmStJT585wpCITUa7/Ph2qYG/stT96EpMt1TA32mPc4Po1HXA2V4lyOncGXOUhnuQMemaUY8fKBjnZu6ATnUpVMcO2cnMSkz1xgRunshzufXdsrgeOfexDwWTlQbp1Dq1JOlEB9iXJEXQNzMDVP+PKmrs/wRk20oHHQhxwcDzEEZrUjpUxmz4X5bLB+9Usdm4XpOX+/u4idm7zCve9pZBYC1wIkJ9agCsek29y5fv+K1yZy/0p7qIr4OKctz9axoxLdILrx6oK1zKJmVzgoqnceGzX4kCL7T7HMPnZqQfYG7tV4/jnZXCEK2uS28gCm1zloXKOe+AayI3dW+XGa5599jb2wLei3J7k0RDnwHfa3Lmxj30oeLfDOTJyOdXJzAGm9rbDAWR7YOtARr7F0R2WLnDZv8IFqiI8wfVELYsrJc9f5JDg5KKFajeEGbblOMdP/eHr3EjTsac3MJ3fvT2Fyc7OcVUusgdOVnvOpbl1ohyLC3bFfcG+BnwN+BrwNeBr4PHXgHLyG7+KpcFdcF8wul7S5eKmRJybvR+PcKCmiMaNFZEkEw1wscZGlQMtzia5TLTncOW9jsW1BmsdbqoobHCz2Mkg14aWnW2uhE7GP8Fpzpm0mhyIzZTcHHi1zz3wrTrXjz2d4ebAb96ZwZ7Z5AJXvieDh9EYZ1uwj30oOBvl8BaTYQ6ce6MIgthiszXsm0fAqCl/J4edO36Mm48lRz3y+0lM55NjXEb27vocdu7ZY1zwENQ4voNCnUtMCi2ODa3b5zJwU+e+9/oWNz73wkkOAS9tcPBfD3DZoF7llh14WNNCiAH4vYMRrow9sLmyptPkCC6C45xR1cFxqsE+BxzMLnOZqATpa7tvc5zgs5/hgGTTQS45kJ0tLlI94MCaQpzlHll9hxszESEuaIqBTGzlGpcVxUa5uxYDe/8VsGUSHOcmPToDLgtu3Epj1Z74MyVMNik4D86/S22Ma8B3W9zsHrnSk2Ri00Hq3M49rg8dGHAVl4nnuPnYFghqMsEKW7fB4UxGp7ge+PLzdzFfttHgQItpEEj2xnfPYTqXgwp30fUSV9YcjHOoxTDIy00iou1jXCZKbmkiHdlKmStrtjY54p7YLAdq2tznsuDQJNcyObjHbd1r7HGYJus450ukucc5UQ8sY4sWV+ZywC1sfZsbYdM0joFu6iQH5iLHitJhbmzw+BMcCj3f4VqDORCNfec6N3WQWuR6wZ0pzp6fGeFaB7I3xhlVLvc/pGEPcr3gbpU7uWpw35t04CT6vtDm+u+1ehgr79kjXLCIHfpQ8F6dw7i8dPUmdvR7NQ4JnjC5vfcJnZMtPcktHNAk50y6FW4mWUa4MheJiE5kubJm4X1uVjNwguuJkoRFg3/P7WB3vsptIyOBwYlZzpl0LW7aIl/mgqaRaQ5HJsNpTjhJaCIUbpYrGuUeWa3HcaHXO1zlIXqBK3PVm1ywaIMYl9bPcIGL6HPORElz45I3wc1Y5CKV+Rz3vg86XIXtx7PGhRWZfMG+BnwN+BrwNeBr4NFoQJJl7J7KZcGKy40VRX+HQ+fWvszpXAdBbDGD2w/dBCsPc0v5R2Mphvgr+Tcnh/jVo/mJeZkDVIWT3Az6xpsciE2e5VpkzT5X3Ss3OJyJrO9xzkQFe8EqOA8t/2uuP6fkubGiiMGVFhvgAx9NcKVkkvs+dIW75+RdOw6ucN18nmuJJnQuSF6rcTPoVptr10ilz1XR1RrXG5TcPRf6BAfeU8Cqx/5HHJDMm+E+eCDOVT22HnLzsZkZLgsmnagEKWRHTG5scMzkAlVd5aaKyve4pEgGupwDV+a4y8a5UCFKHa7kMp7hltekp/YeTX10iL9yY3NiiF89mp+Q6wYHUxxocTrO3bWuw2VF76wuPZqLM8RfOTnO8R0M8c99ZD/p2NwcuDnHBS7SjnOuzASJ95MRLiPL57mtXHqYYw2amuQM+miG68+RWdH9e1wfumhyJdWtrdlH5hw+7R8aHee2DR60OQKbT6unR/n/31zhFmvERjjMgxRBzoE798HL9gTnwGMprvLQfsjxka9GuFKTFuDu+a0iNw+tgFiPrT2OUvSJ5Y1H6R8em7+13eDeN8k4uDjHgTUrXW7znRQcj4vQT3JZUavHLVIxwT3JXOgghC65PtXOKscS9dz5e5gD2Axy1Z6kwfEdqILDHWw2OJ3PxTncQanHOTLH5VrB5S3ue0vP4cap0hHOnWztctlBU3DgvfAC2K9RuGgxCwKqggGOeW8hxhFc7He5CZcy6EzIQPVuiQtUG2UO25PJccngqRNbWIAuFZ0zqgHQoKtlDvQwfoYDmtgOB2oqtjjGomNpzpHdrnIl9IDKve/Ka+OYYetf4ZKDbILbuhc1uVHNlsHNYj89uo7dNVKwFC1uG1kV7B0oXEtUtPpc+V79M25esnWZy0RbMS5g29niqj1amUNjq09x4B4BEjXt7nDfO5TksD0XZnYwX5bUuHNXLa51wDUOsE/tC/Y14GvA14CvAV8Dj78GpBrnxopqm9wGGRHmSos1kP0uzeHIhKpzZY/1fQ4Bn8hxJdWGyWUHdonDeswe49pU5Xc5zgHtJe6BPyhlMI+Y1rmWSdvhqntSgkZ1EOYMurHFKV3lYibR/AJX1lTtH8+CT1DjjGq9yZXQhcm97/06B6Bzr3JvbCnBodBJNrSmzbUlNxpcW1KS1JokqUh/lHMmSg+UPeBAbG6VC5pSsxyJTKPLGReZ4shU7A4XPFgWd8/H0hwi2vW4qaKWxd3zqTBHnrPqctU9aYMX3alzBl3Y3EVPX+dkF69yoMXkXc6ohpa4softcAFbwOSAg802974DK1zroARu3Ss1uEmPaJALFk/FOSKXE6kDrHUgA5LrBbthrrTo1bnsoPQcZ1T1PGdUWxyrpxjTufGagc0FTT2Lk63HOJ17B9z77hW54CE1xVWaai3u3CT3fQrsv0tF4RiLjCDnyHpgKVmPgNmgyRk2N8V9b5KZSwXfWCMP0hVzhSaROMP1ghMmx0DnCk7p1QpH5PLNDy5iWfBPX/oEky3Fbe6B92Y4R4Zp/FBwNMSVmkoxrk9lhLjv3QT7c8UaV9bMTnO9wcpNrjc4tswxDpL8FiTeYiTNTVtUdS77f/WvnsDcibQiXAYeABHwdocrLXb7XBYsq9y5+9xVE+QDdxpc20IHAVUquC54ADIO1trc+Fxvn3Nk8WMc2+GL8yuYExXznGgZXeQi9EaNu2zmLudEuwaXBSvjXPav9DkQW6vB0TwqQQ7rsX9tjLMuoANffcidO5jhWMHi97g3VmxzPOyblzm8hRng3reU4E5usF0jBnOcIxtJcaWm4j63blA1uIvu1rgs2BzlDHryAjfSVAVBTXqWI/bobXFtSfUl7nu7He6NlTtc/71a5WRz8y1cXuBL9jXga8DXgK8BXwOPvQZkucRFi0aYAzX1alxJlUSKqnWuB+6muJFFA8yC+yChSSjJvTE7yOUHxSLHxKaNcSj0kM597y4492/ZXOvg+BRH2yuz3+XKHrUvcWNFZoIroVfKHCo5usWNmdRjnEG3elzgcoig4yJ9jpZb6JKjUk2kuRJ6s8UlB32Qc8AFwZrZMQ5AtxQtYO9bVk9wBt0BQU3GPQ4pGuBaJqLL7RsQ5IpHF2Qc9EKcIyMBNj2bA4qSs9i1MvfAbYMLkoXBVdi2y0nMiS7HQQfumNxsj7rNOdHeEpeBe6AzESBoUW1wBl1Lct87oHKGredwlYf96znMqKozHHAwUOIqLg5IEiUCnC9Jx7iKy60qN/EgjQqXgQe4VpFoRbhHFuhyOvfAMbJAjvvgwTe4toX+xSLmyNY/4fhr1WnOicYi3F0rJznbot3gME3eJDdlQrId1r85jr1v2Z3ilC4kF7GRI00KSPQgV7iqhx3ivrcNjtd0r3F9i/BZjhu7tcUBydQoFzykR7lRrug0Nw9te1z5PmlwAVvxeW59rFRCnAMPgFt7zA+4PlXrDIcUtR0u+1/+be6RbfxTzrhYIOeACfKwe2CAXlzndjSHNzlEdPYnN7BssDngCKq2Gxy/BVm+V2b+1W9gaZFncuAehbPnIvSQ6wV3T4G9YDBgs+uccZEVrg/tzXBBk/kJV+2xLoFZEYi+N3UuIatscU40McVVPTSV82NSdriMTAFBTTq360D0znPlPbcJ9udAJrZADKx6GNwD90DO/9YiNybKhWtC9Ne41oE3x7E8xic5JxozucRkp8Ah4KUzxvVMPJtLg+0pDhksVazoIZQ+p3MJZiaZOJeRlX44ipU1gxx+TvQ+wzkTe4UDc0VPcatMa9tx7K5NHt/FZCd00IF7oANPpTnDVt7nLpvncpUHq8IRPQRGuIvuulzwYIHbqZTTnCOr5Tmsx1iEqzRVj2G+RJAz6GKKO/eDFQ6NfXJpBzu42+ZaopxFxdTtC/Y14GvA14CvAV8Dj78GZO1OmjtFlutLqiDZggDDJqfEZf8CzP7bfa73793myrnqMQ7E1rW4zETXODAXZ1CFGIAkUTNzHCPZ/R2ONCjQ4KYOZOJkGbtv9SaHUo0sccw99TUOrammOMyDYXCgJnLRgrLIOVG3xxkXkhPc2+Nsi3mCCx7M17i2pPoVrh07nuX4DvYEZ89lrRHCHPh0hgN7tPogTjXFVR4kOMrV63JZMMmFru9w51bBQJWcj90HK03FMldxyfwMh1rUAty0RVLjguRdEsQWep9z4N3PcxFbscSNeghwtMcGEfDLv8qNmaz+Okel6oLjVGQp+eDBCJYc6OMcgC4R5pzJTKyK6fxhlfveiSS3jSx4l2tLyvYl7rKZIBI8M8INglcaHDI4ILnxuXu/ypWagh9xjyz+4gFmVE3JtS2sE5wTLf2AWzCR/CzXliTpTPsDjrCoZXNVrs4EV3mQF2Y4+P2tfW4+tlflDHr6fQ7c0/silwX3u5zOI89zpUXb4VCLu00uaCJHNZ1lLjEpdbgAHYsUDwV7Hjeae9Di2hZ6lrtrMiI5UBN52SanuSh5V+WQ/5rFRclajLtruuSARfXXuGzQvggaF5CBLpHgsv9mhwtUByUOvGdkOJ333+Rs6uAkZ9dkqcdFi+SeZBeMFj1woYhV48B72SmuP7d/DXSii1yJLRTiAJMjUW7SY+sBN1Yk0xxZUnaGAwZXmxyeqn2Kc6LROBgk51sgmAtMwast7rLlJjlHVjjgxkxMjevHhkF6S8vmRrnG4hzWo2dzraLENNcqquZBmxrjsmAdXKQSDXNBU8TgggdZ2eEMuhrhDLrb4ozLxCI3s1g2ODR2e8ABTXoD7nuTvcE2uOKxUOH6kskEl/0LcIVr+/vc7vnuOS4T7SqcbbEjHMaFkwxm375oXwO+BnwN+BrwNfC4a0CKINefkyDIZQBuQmv2OZCLAzJzVQ84oElyiQMtkkaiDgKqSKxH9R53146d5yZ7dBBvcffeJHbVzREu+2/sci0TqYDlnqDBAWyMd7hScvcFrpwrQCIXdYzrz2kqN//esznkfxoEkjXA9bEdnUtMYjrXE00bXOvgQTyLOfBREOvRDHLfW8bAcYt6iXOi3kmu/67UOACdClKp2iACPt/iemSBOufAE2f3MKM6EeeAZOsWl4GvlDlGMjfFzWLP5zg2tAer3JQJ9sAOBSvH/uDXPOof4GGShZAgI9mgxxn0kRRHX0uOmVhdTucnZvPUExN7Da68N5/kRppUsLJ40OESk939JHbXTs9wwaIEK2wxjUPAy0GTy0wMkNhj0OcMuv6AI1son+CiJhtE/s/PcXSmEcm1imyHG2FrWZxtGQ02MUeWNrlW0a7COfC7eW72PhLmytjnMmDgothcyYVkDQpvcoatc5qL2DxwS5PscXctX+PGJbthzpElQhy4JwTysFf6XJuqDQYu+hoHkO1Pcm1JM871/t/bmcGCRZkB2bGiv8WV9zb/Cy5iU8AlLlqNmxz0wNWWYwmuH2uCNK6rRa4fq6kckKzvcBW2QpWbf3dyHGWwAgIHJbjKlNw+Jw2N++Dl/4aLmkIu58iae9wDH4xzUXLM5ErJDXB0z3I5nVsg3mLr1jiWmXhpLkCfGOWYFu0EV1nsfptDoWtf4oLFcpOjI5ddixtp6oPsWBa4+k6NcY7MK3Nc6JlZDkC3U+W2cs3HOTDXIM1losUq1zowQlzQtHOf6wVPLnNYj+Y8N6ppNbikiBzFlg6YifaKXJ/K3OciVeckV3kwZzhubMvldB4PcbiD2wXOoKciHKDKGOfuubXBIcFjIFVyB6Qrji1wFNEkkOz1G8exShNXR8aO7Av2NeBrwNeArwFfA4+/BmSzyY00qVGulBya4jKTMritKDHOnXvr3ij2YqaP72OyJ6IcgO7HddvgxDlu9n5zk1soYsS53j/J+pcxuPbcHDiiKuPg+rlun+u/6yBqUYC7yPsgraeQ3Aw65r0PBZsBrh9LcqGPxDijOiDvOXjZ1Btc62BvhsPXvAsSuTS63OieJHeZVlc50oFunFO6anLI/3abO3f8NtcD301wIDYLJFOx73GjmnuzXIAe2OAqi0EObiFCT3JLe+YiHHkOGDOJiTCHK5LkjmYFHPVQwe6/A6JzHY5LRXic/xbOgBOeB+ktJXdskUtzhk0d4doWu/kU5k+mQhxwkFza0+pz2b8b4oyqbJLrBiuc0tUsx1AVSHF9KqfPWfT2U9y5TXCJS7/LZaLOOJcOVlvclEkI5BwIxTjbUutylYdWj7Pn3SZXWSxXOLIkaYMGPdDm0mB3n7vo4ye5Wc39CldStUEa1/gsN+Iy2OT6kpNnOTDX9j6XiVoWF6hOZ7i5/0KTm4f2QGyPCq6udbnunJDjWc6wFVc5J2oc//Hs15Bb2MiqhwPS1wbnuVKySxrVAAdajEe5LHirwK0yzSQ5u9b6LsfEZj3Bfe/LSxtYy0RKBWTPOcYpPW5wI2zFBpeRDXY52j81w5XQuz2OFWzQ5EqL5MrebIoLXEiGScfiKou1NpcUhT7DAehCIAo9Qq4TLbY4Z2IGOSfaAg16vwEa9CAXsGlrnHHpj3KjXJE0N3ufjnCgpr0ytwHO7nC4Ay3PBYuLz+5i2eCdPY7nwTC4913qcT5UWre4R+YucsbFtbkoeeb/5VCLO1/nLvoAhMDHb3IGvfs0x0e+X+UwD1aLc2TKgHvfyhI3/45570PB0QgHmOy/y+EtVi5y9lyZ+63fxBpVboTbIGOmufK9C/ZjByAiWmA37dC6tDknip4b7IEHRjiD7oAZeKDK3bXECa6MbdkccFAGuMpiq8NVVLkwlQwVfdm+BnwN+BrwNeBr4DHXgBQgUtQAs2ByE1owy7UOBFjGVlpcZkKSBrkg34HMcJUmu82V0ENJDnegcNVcUS5xY2TmKpeJehe5aSpF5UqL0tU54YbGUYr2Fe7c3QZHOmBucEbVinE6J9sWepUrdAXGuTaVkeKcaDvPAYvMLHfuidEqllMWg5zOW5sc1kMkOTC21Ee4CL1R45iahMn1TJQGl4kOlrnvbd7kUOhWnwuaXA4/d0ghy921EDhlEhrlgGQRkgVO45xJJMSNiVYiXPY/luVoe6UNckQrdc6ykVnRYI4D96gg2KOzyCHgZZgzbA7ICub1OQfeW+MCdCvFVR5sMCkKgPPQNTAh06Nc8KCC1Vzp1rmSKnjXsDLTjwRr4DYyspQsJFf1sHtcsCjaHDpXRLg2FTlOpd/jyrmBLHfP233Onpt3uApb/wzXtthd4/a/S5nmskHngPvg0Q2uH9s9y2UH4T/mekWFZ7hzkzvYI+ucA7ef4gyboXMVl+Yc1yoagBiX1DjHw54/yek8aHJ3zc1yQbIMg30LMceVPapZrifq1LnARfwsR2+pgf1YsuTSsrnvLUHCItflskFysUYqw/GRm5JzZIkEFyxW15LYEycnXGR/wJUWYyEu+9dj3ChXo8sFD32wJ+rucj1RN8SVNcEWmbAr3F1TIpwzib/Lnbv2NFfdixhcUpQJc8DBZo773ja42VLaD7m5wfqAkx27VMQitn6du2wk2CO4w1EONsG2hVbkMtH+KFfeM1e5e979LJcFj4CJiQrS/pU63KIkBYySlREuaJKuyUWLghuPFd4fcUvYjVe4SDUOGpfCEldKJkf3DG40VwwyXNAUvcIFyaUVbqVnfQLLDUQSXJyzV+P2aqSiXPm+A1axQRfKXXJfsq8BXwO+BnwN+Bp43DUg5QTXCw6ChAfqGQ4RrbzLjR10L3LnFqBokeLmwFuCK6GTOicXTCyd3cZs83Y1gcneLHM8rlYX5BwwOdmNKoftkYbO9cgUrronyHlJcZbrzzV3ONxBeJMbp7IucyMuFunAwY1/e1tcGVubK2BOlLRrFkgaND/BtUwKTc6uSZDXQ7ZbHAWdAhbwHQsU3uSiRT3HOUUU4o0AAB3ISURBVLK2wvXARZO751qLu2vOCFf2cMHFOdt3RzEHHpzkAnQSzDUZ5ihFmyBVcsQEQWyLE1ykul7kIvRUnAOSVTSOJUp+zMm2T3HBg2ZwlSZ5nxvV5DQuhBnnxkR7Aa5tEQtyBr3qcsFixuBs6i2PC9jSJvfKZNfmjAtZvh84XDnXA4H/7VnOkSlgea8PEpqYHEBWuOCug26bsy0yymEe6h1ufG4yya3VxEoeh4LLOxzuYPIEV3mQdZBUJGxwj6xwhwOShRe4D85BFoVwW5xB14tc26L5FBehiwaXiYa3uSC5e4ILVEMxzq4lDK7qsdnmAHQnlnew+MEGqx5yPMZRa+abHC+3O8I9Mtfj0HvhMFfeax9wmUnkfBl74I0Wd24N3E3dMTncgXC4UvLA4oLFj64tYPdcG+dKTc9Mr2Hn3mhygYvsWlxWVCtzzD2J9znjUnsSu2vC63NZUbDGBS56gANzoZvQwCUPeoQLkgddzq4FwJW9aoYL0DMxrgde6nHYnt0fTmIGXW7scqVkz+YM+uBlrowdVcEmOHbVhGgFuUy0C2ZFsSTXuOje5pY8hHa5yza4xAUPpuTK94kMt43sWLyEffC71RwmO3NlH5MtFXAp9+I8h4Avg7y9rS6X/Zvgikc1wAUuZFmzC66XBGkeRONpsPcP4i1Ias39AkdneiaZxxyZHuCCplKLy/65RhH2qX3BvgZ8Dfga8DXga+Dx14BUC1w2qE9zfcnaCldadIPcasuJBW7MJAoSHuyXucwkGOOQwZbB9YIdkFoTXE4lmg2QsMjl2pJ7Pe6NbV/jNsg44EIw6YQ5Z1LpcRyyLoflEuDGP+F4XNHFlNx+aI+75sK2ucvmTnLBQ+Q658jaC1xJVSlzo3tejDv3tQczWEo7do5rx5Jz/1LonGU7uJPFPrgAs2BhcDon9wWHQAc+kgIRsve41bWe5HAHrUUuYOMMy6FkcD+0AAmLzs1zs9g3NrkMfH6c44CX2gFXYiMfWXCOM+gdkH/eABGyJgg06YNZsBPlsqKRcW7aolzkFkyQtiX0MVd5GPkCB/1fr3Lz0EaQCxZ3we1z0p7iSmyxODf4T6467Gsc0QNp2MwA98gMyeEtEjluuYUGTpkIsgc+4HrBAw5eI6I6Nwde7XKBSwhcTd0HR1SlBq5Ca93nbroEM3BljSOweQiW2EIznAPXQCKXco0bM+mTc2QhrvLgGZwDD4C4AxvEuJAg1bjOJaLbdY6HXQ6KXNQk0pxBd8D1kmKMI5nwwKxop8GhVAt73CMLgI6MpO0NaBzWQ49wtqW3ywVsBwZ37ji5lQusNMWCXPAg1TjnTIIhTnYHdOBGiHtkiTBHrhEAH5kMc9kgSZbkgBUXp8nhaxyNa5kY4xzzXqXEBQ81jZsqSic4TBPZlpRS5y46yQrWtrjLlo1zdIcWuEaVzAbJFa5OlaOQjY1zy4rq4DpRd5VzZGKBcyYhkHOg1+XG58jx2Mo62AoeFLgSeqMOPrJxLvuvdTidN+ucbA+kt5xb4mgeS2Hunqsg774CUucmz3CjPTGTK6mu73Mji5dnt7Bk9L0bxzDZ6XkuIZPhcS5a7Ca4iE1xOJCL8xYYsV3iynt6lEPIqiA1V7PGBU0T3+LK2N4vcKx/nQFnWwyNa9csTxxgjiwkufe9fJybQa90uGouR8uFXTNfsK8BXwO+BnwN+Bp4/DUgSTCXNLj++wDs13QmOXRuCBwrIrPgQpMjFTHXuX0DB1c4JrYkOLpXr3KjmhI8d9LgQKofHUxiHlHhCqqiXuUycOl53Mk1sNSkpbgyV0fjQE0kErxe4HrBisUVm/RTXJvKBjEuJLAI8ySHgvsDrm1BzoGPRjnCopU8R8vt1bl2jUy/yWUH1c9wmWgszkWqvQB37sZODLNtwRzHvDfoc+x3A3BkMbzJLVKpxrgs2Otz5+55nE01c1xi0nO4N3Z2iqOQve5xPOyy8wo3ZhIFM3AdLHOpknPggRpo2IKcYRMgItqIc6jk9kmuhK6DLI8GOE41GuNsaq3PVffIFlnW5Kpc4TAH3pPxEGdcyHJus8c5E3K0xwK5770eF6ErKoe3wEoeh4KVJqdzB8S4aCHOqEY0bkT1OriV68n5DeyqXy+OY7JJwbLWBkdcktyYye5ehtO7yTmTAGhUPXDBhKdyPfA+WEKfPrGP3fOtHW4mOahxbIcfr05jOk+kuUzUdrnqXibMnbvSBUFsNki1WAUPrqW4ykMYzA76AzAjy3GBy6DFAU0SI5xx0cDKQybLrTKNgFu50hmuhN7ucpXFD9e4wIVcypWKctge6RxwGXgVlO0ZXB86keIqD67JTR3slriFIpFbnAN3nwd1Du4qJqlzdXB9bK3OgfcccNpieZqr9qwX01jVo/o+h4CXqWMcDVx5hzPoMs71yPaq3Fau4FvcKFfgWS4TzX7Efe/NJzhgUQB0ZLbFlVRJzn8HRMBjXuxQsA5We2ZGOD/WvcqNz0nH5XqDOljGnkpVsbu+eocbO5j5GY6veLvCUciu/z0OjS1KXFnTnOKMy+CA6w0WwE1ooSxHV0wSmpS6XOWhdC2H2XPzFFdR5bw3pm5fsK8BXwO+BnwN+Bp4/DXAIZoOdRcJcmVNsj9HXpsmOCcafo2jM+2d5wB0Krg4p73HtUxInEmgxZXv+32OiS0Ackzk17ipg9S5MmZWe+9w/XfZBS9b2OTmJUuvcry9YpFzJuT8e/tZLmDzBpxBV7iBBxHMc+e2z3ClZEtyTjQT4849cLjvfeI0twlts8615yLPcqtr5VicG3kgiVw2LnH9ObXA9UQ9sBUcTXD0tc19MBMFG1WDOPfBNZAy2OpwjiwV4saK7t/n8DWdCAdSJXewF+pcZVHOxbjSw36X4+UOv8eNz3WuchF6Msw5UTJga4U4JLgEwZqDCnduAXIOBNJctYfcD60luXPbICCabIla4D2XtQGXiW6UU1jfonuWY2qKBbnWgR7glh1sl7gyl9fh4B4kL7cHGvRBk5u9DyW5QLW4wdm1mT/j+C0m/0eOuOe9nRnMl5CC5Y0djkP2yswmdvaNMPfI6h0uK1q/P4bpPDbJtWtaDlfHbjW572085GSHOF8irAgXJD938R72xvZPcOXciSA3TjWT5s5d73HVXHl2cg+7bKRgkmpRAzeh7YHlnpDOVT06AS4bFNvcfKw4y82B93fAc+e5ymJqkWuRPaxxOx4aNhcsHo8VMHeyo4GEZCejeezg75TmMNm7FU7pEZALPRbhINH7m1zVIzPFEffULc6R9Xc52cYk58isdQ60WOhz2WC7zwWqux3OpoYkV3GZDnEscNJQuZ5oA5xJjoNgLpItKW5yvUFnnOMEN8Dd8y6Ykakep3N7lXOi6iyHBH/3g2UsMZk6CfKRV7kA/fPT9zGdWyB4T35cn8IOPhrmynu373Kbc06c2MZ0Xu5wGVm9yGUmxhg3e2/3OQBd5CY4svgMB2rCHtih4NMX1zDxEcmh0J/OrGPnHtE4X/K94nHs3ByyBzuyL9jXgK8BXwO+BnwNPP4akKrCET2MmFyPbG6R6/2TW3tqbQ4xqYD0loVVkO6wzcXJrQWu8jAR4to1u7tcOTcyymXBpT5XYbtf5dZqXs1x2f9eg+MzkWaAQwaHwXLP+g6H1jTBEReS2GP2JBc01cBRj/C/48A9zZ/nRvdI4h61wbUtbpdHsdTuYnYHk/1Shhuf+7/+9AvYueNnS5hsWepxERt26kPBk+MccrDc5HQeH+MMuuVy9Ja1PS5KbjzLAcncMnfXuj0OEe1EuMpDvcGNsOUj3D1fCHGjXDNXOFyRVDnCA/lwlyt7zC3fxXx44X2O0GTmaW4nd63LldALNQ7EpoLc2G6SG3HBHtihYKvDLRQRLhc0ZVNckBzRuLt2r8XZ1ITBjceGApzO5WSOm4+tDrjsYPFZrmeyAY5bdNe4CD17soj5k/026ExaXDk3uspVPZrL3IiqAo7PkRvBPtjgpmsWx7kMnMRyoQ58t8jxU+emue01HZsz6BJkYnNNrtxTqnMBmxhwQDIhOaBon8NyCS/AnVvtcN+7vB/HAlUP3D1PgpIfVDhMU9cCfcn5aQ70IFWuT7VV4FDJ2Os+FJyZ5Xr/xR0uWPRAJxpMcOU9q8mRqQRCXAbugt9b9LiqR2KCm72XCpccdAYc3oIkiZIHHe6Bk46M7FPlwRGXXgiMFqtcKZmsPLgxrh/rZLn+nFrguLGD0xyxhxXkHHgXpFLtOZxtIX1Js8eRJclqm0NMapLLwMkF8ELlSovkZiwvw40sCotzoolvca2D0he47D/7AWdWCxnOmTg9LlBVwFZRJc0BZMmRRQP0YzIBki2QvYMAWO7xbM6ZCHCUS/S4vqQAVV54kSslC5vTeXWZU7rT5ZyoEeeIXCToTEgE/BMzd7BoMd/jMA8yYXBsSSFw5IFELSoal4HrO1yvaDABlnNrYEamc71BpcGdO3mfu+dNcOpg8AR3z7NRDhh8v8gByZ5JrWAOXFO4SjIXnmPq9gX7GvA14GvA14CvgcdfA7LW5/oWVZCXOwmuEw094LLgbo7MBrmyJgliU9scqMnTuSw4/yJ317Qyd9cycS4L3iqAc4MHHGhxd5abcNnvcdwakmTHciyuALBb5cB7Jmdb0NlcOcIBqjxwZ69b4lCqZI4RyXDLitoG50w0kOfhzNQe9snXI1zwsNHmxoLJ5VQyFOQAF9kMF6mu7HAUsr0FLjNRS1z2b1c5o2pkOphh64W4iG3x/+EAdNV/wk0ddKscbW8PRMDbGmfPG1Vu2iKS5QKXt1YWMNsiWy2uhD6b4GhcU2kueOgNOGBRf4/LBl1OtLDI0R6NC9gefp27a0abC9icEKfzUpXj1igUuHKuaHKBKrnK9MWlB5wDf3Z+FRP+xvXjmOwQWN7TNRC1eKKG6by5y2VF2KEPBatVzomqo9yUCbm6VgGR/y7YGhRN7q6dOMMtabrzYBJ74stJjgNequA8tFbiIrZBhZvdC4L7Y0kCm5bNZQeayZWS7RwHJLNaXMtEMblANQA68AAYoEczHANdSHItk/PHNzEHXupzrQN5t8Itn7enOFBTNM5lJu0uV0smy/delHOigWtc9m88xbWKGnXQgYOz2E6Mu2vRKGdbmh2ubbElEpgTDYDslorCBeiyAToTpcg5smiOKyXv7nPOhNyT7IG9YJPb4SIaXdCJhjlH5rlcOXfqT7gJl/5/xVUezAgH1iRLyR/sTWHBA0kJLhWO7VC4QQ5oYjncbG7sLtc6qJ/kDLoCRsnlS1x5L3iHK7E5x7gqV3iMA4puf44LktUKB2ILbHGg5DvnOGdiWZxN7ba4RFS261zJRYS4SNXjqh6icYZzJkaUGzMZNLmLrlW4B97Lcfc8+jH3vmNf4KpcLZPjefA8zpElzhWxTHQAJkVBk6Ov7WxwrQOuzoRdM1+wrwFfA74GfA34Gnj8NSDJZQfzp3YxDRZbXJmLXG2ZinI9stIap3N7jKs8BMDef+cy9sREGGS/IxcGyW2u6lF0uexfrXBYD2+Ee98zFzkSGfn8FW4NW8vmSqorq2OYZctNc6hkssxF8pF74J5kx+GMqgIGDwdFbmzQjHAGPXCCQ6Fbe1yQHMxz9/z45W3Mnm/UOR526YL9mmsfcxR0WoZ7ZOkQxxF9d5MLXPQG17FRchyYy9vjgEUkUFSAgYutc7gDEF4jlCiHr5n84g7mRM/FONlpnbPn8p31eUzpZ85uYLI3qhzxfrXLAWyCD7iqR3eMM6pKgStregY3baFXuGkLe5YLkm2QOtcCmdjOLnGZ6P0Ct19iLlLGfMmV2BomW16a4ejveg6HDG6UuNGepsOVucQxDq2pNLjv7cW5zMSMcDr3OJ4mIcHqngXKnhjjnMl8pIQ5k2NRDgG/YHJ0pj2Q7wAtoZsBbibZiHM9MgmuG+z3OXINF1x2QM6gJ8Dd8+UGF6i6DtcyEWAde2BzVQ/X43TeBRMyTeGqe98pn8KCJlnqceXcgwZHttAHV1t6YPAQB2keawdcGVvd42R3Exzy3+pyVY9wnMMd2De4XQdOiuuJlgZcwLZSHcEc2V/c4Jzoz1/+IXZueTnNldAPIhxK9V13BlN6r8Y5k6mxfezc9SwXLNo1bsTFBgkupie4cm4XXJtbSnK4Awmygv3wIYdpemH5IWdbOhxQdKOTxs4taxZnVLFTHwq2+lxmkh5tYEfPt7igaTbH9efWPS47GAy4uxYEN0Rt3+Ea8KFpbiuXZXEl9Nlx7o2RY8FnxvKYTZ0IcoyD8t08l4mSJPAkB3wX7ENfHOfGLSp9LlhMJzhe7kqdAy3u1blScmyOM2wuSCJD0nqSbcmJSB1zohJciz2mc/ecQzxgn9oX7GvA14CvAV8DvgYefw3IxjZXUiXnY3MTXNRkatxIE3ll7+/mMPGGyencK3Cz9804V84NxcE58Dtc5cHgqtji+M+tYG/sQozDU/3rW89h537yLDcHrkz/2/8VG7gwEtwol93nDJu6wwEuvBkOEe2BPM0SZOayQFIRz/aLbP+5LfvC9MF/bpH/v7zPZh9gsiMBbuogqnKy1/sZTOfy+DGOiH3z+1z/ffo5bpFKcJLLBu+ujWOXTQHnwDmNC6GkuUBVqXMAusgc1xNVFCwvEctxjlTk/751FXvfoykOnPvfzX8HO/efb7+IyZZX0+uY8MHzXBZ8IsFFyW/tcqMeiuTGawS360CML3NGVQcJi/aDXIustQruSR7nKk13a1yr6Nee+FPMnlseZ8/3LG6hSB8cG5QOyNwzYnKPrG5xZeweiEIX4Dy0SHKUoqQTxSzqoWBd49gOxQw3yhV4hwtcfvLv/wD75B2X4zsg2dButScwnV8c5SZ75H+4xS0MXhjjuHMfbnNRsrnCgZqil7hVpo0dzqh6o1z6v1vhMlF5k2Pm6i1zfcngM1z5vmpxOr/X5rYNjujcqOZmm1tORVKCS3I+duOH01jUJCa4vuQgyfXnLmQ4JrY7YF/SBitNuSTXG6xf4rr/Glha9MBlJv/xJpcUkWDNiRQ32dOxuMrDXLyC+TFpuVzfwor9ePZjR45zcyZRyQUun5viELLvFjnAZFznMlEVDJpc0IkWGxx5jjfgbGp6hAsW4wZ3z0nZHZtbECVjJqf08BIHLBoNc/05XeX6kt99+xwWLf7tz3K9QdKJuiB6L6pxAdt2nWsdZGJcOXcnz5XQmz2uPffiGMeFboMAuo4DOvCXc/cxg/7Hm5wzeXKCQ9+TQBP7Mpcd7PQ4g353l+PlDoY48F4mwjkyQ3KBaonMwIPcasuvLHyM2fPNLteHjkkuEZ0PclguOQPSBpHlPUPleoPYCzsUPABbJgGwnJv9My4zcb/OOVGSG5vMgksVblXxyBgHoCOR4KRdu1PnAvRZk9v459M0kbfOl+1rwNeArwFfA74GhtSAXOlx41SWzZVzP6zPDqmyo/8sDALJSGCRA4Kaqj/XPvqHG/IvmK9xVIu9y1xpsa5xe+9nRrmsqNLhtu793uoTQ97So//sZIYjx5qLcEjwGy1uBl1+Y/3s0b/ckH+hmefKXB86U0P+q4/+s36XAz0kEhx5zo2HnM7HJ7kHvneWdGTcubd200d/LEP+BZnhJlxI3MHZJEeNfavGzaCPgzu5+y5HVyxHY9zYAbmVixyfI3uDZAYuRrm7diWzOaQrOPrP3v9dLgPv/jwXLKpVbjZXcCoXa7e5jGz0MjddsxjjwFxNmwuSpcKBFuV4iDOq5PB91uCARSmDy4J32tyaRbJlQgImA7/IlRZrTW6kKXGPY78LLHNkScFJzom+v8XxHTw7u3r0aHfIvzBpciQyr+6cHPJfffSfKf/TzZ/GbnrD4fjIj6664f/CbRAx2bO5ck9E48apQpKbOlirceM1ARV73mLgcBiXygFH25vIcg58OcVlwTMhDnfwsJUd3iAf8ZfTIa5NJa+GueH7isOxJZVB2fkeZ1zevrd0xOs6/M+fPMNF6B++zZ1bX+AMesTkiFxyEe7ceoAra55Nc33o89Gt4R/oEX/5YohjWuwluWDxN/M/cUTNDf9z5Y9WzmMhetvlZnObLpf9b/RGhv9ij/Evv7HCASYvjHP73+9XuIZsF9x8129xPfCXT97DXko4wAVNv5J5HTs3KZiDLApRBv2YfLd1DNN7zeLGLch1ouRijbkwV+ayulz5ngTvRQzOoJ8ZyWPvu+NwDny1wSHg/9Hs9zCdN0FK0X958DJ27jc3FjDZv3fldzDZcrvLLUJ3wQ1R2//bIqb0/Je4XvCDKJcNRmLcTDK5cGAhxgVNPZCn+c4BxzFxdpQLXMYlB6j6dvMMZte+PvIOJvur6fcw2R/1OOCg3O9ws9gvZFcwpe/+l1wf+lKI6w2GJBc8vH5rGfve2TGuN1gbcJWmj1e4lb1n5new773V5Hj3b/YmsXOnJDddQ567A5ax6zbXjvWpVLGn5gv2NeBrwNeArwFfA8NrQBaaXAau5TikaBgcaZoLc/vAZ01O9kcjXGZigCtcWxbXC/7pMzeGtw5H/OVHZe57F25wY0X/7PbPHlFzw/98+iyHgL80sj38P/yIvyyDVS6ywiZfnubWiT5ocz2yvzP+7hGvzPA/f7/JAS4ykiPuWRrhZlTPRrhy7ukwh4C3PA44+EDn8BYXn+bGY80AxzkwvFU6+i//8PrFo/+RIf/CK6dvDvnLo/8sRs6BT5ncELoFIiYTAZANrcv15/6X/CtHv7FD/oWnx7gd7GGVQ4KTd+0/Hjw15Nc6+s+2q9w9/9wMl5gkNc62XAhxlMF/PfPh0S/NkH8hoXI6/0/lJ4f8Vx/9ZzKkcqCmrM6BuX75jb9zdO0N+Rf+2oWPhvzl0X/2hZFbR/8jQ/4FE9zB/u93uUf21XHOsKVByuCpJIfGXmly2f9EiNsHHglwkx7/IH53SMtw9J99v8exHX4mznEOyO+VTxxde0P+hVv73BL2X7n6nSH/1Uf/WUBwtAM7A+6ipyS30nM0yAWL/2HnytEvzZB/gaSvHQcd2Ynw/pAaO/rPfirK4Q7uDbjevwXatW9XufG5X8z84OiXZsi/ICeD1SF/evSfNVIcE9vvrl49+gGG/Au/dOzNIX959J+RWfDvbz1x9AMM+ReWk4Uhf3n0n7X63D3PBrmgaQCuWYyDLbKQwgXo//37Xzn6hR3yL/zu1X835C+P/rNnYhzm4V6fS0SVN9cXMCrVm31uP7Su2Ee/NUP+hSmNI/Yg6Wv/9c4LQ2rs6D+bCnPl3ITWPfoBhvwLr/4B1wP/G197fch/9dF/ttnlKk1fGfng6AcY8i+UbW6/BDmLfWBxWxZzGtcykbMaF6G7gkPnvtfhkOAXTQ5oElW5HtnnslyP7HZrfEiTePSf/USMK6ne/PzY0Q8w5F9Igi2T79Y50qBbYS4xWelwJfS5EDdlUrU5sqQRjWvPyX2HK+/t2hyN6+/cfmZIs3T0ny0/8eNJ82gq3HjN3wf7VCY4g/6VsWtHv7BD/oV3G1yQ/MWxO0P+q4/+M5IN7f2DS0c/wJB/YW6Oc+A1i2NDe28wP6TGjv4z+evbP3n0vzLkX5gMcmXNf3iaAx78i3WO9P+fzr865Nc6+s9utSeO/keG/AtPhtaG/OXRf0b2yMiWyY0SV/WYm+IIiypgGZvcB94Bk8E3HnK7LX721PWjG4kh/4JPpTqk4vyf+RrwNeBrwNeArwFSA/Lro9wGmf994yXs7BciXB86bnB96JoTxnQeARep3Olz2eC/WnkR03mza2KykxGOXOOPt85h535lkivfX05wZEmXg5zsO7Mc1uOFKIftkZkA14D/8jgH7okGOGTwiRg3o0qWVPsOR+uZCnBbml6aeIA5k3yPQ+e2bA5f0xhwsj8fBWk9QcbBMzrXh76Z4shUXgY5JuQ/3/4iZlyeTq9isqclRyGrR7glLho4PncirGHfmwTQdcGd3Oej3IKJusMZdMfjuoO6wr3vBrhWs+9xINVxjeMzaXkcm6lyY2sCmwPvuJxBL7tcKZk0LrMaF7gUwfJ9JsCNS37QncUCl1GNA4qu9bmRpvfqHDLYBoOHCzEuYMMu+aHgbZBKNSa5aq6sONz83J/XuT7V+fAWdt/ILDggsHhNkOX7eXALG/m99y1uoQjJ+ncpvoG9b7Las9VPY+f+m8n3MdmfaNzq2rTk2nP/H696zOXyDflXAAAAAElFTkSuQmCC;" parent="iqJVpxYbWQjncIScGIDG-19" vertex="1">
          <mxGeometry x="5.05790997630956" y="5" width="46.23761855369542" height="34.397302610618176" as="geometry" />
        </mxCell>
        <mxCell id="iqJVpxYbWQjncIScGIDG-6" value="" style="shape=image;verticalLabelPosition=bottom;labelBackgroundColor=default;verticalAlign=top;aspect=fixed;imageAspect=0;image=data:image/png,iVBORw0KGgoAAAANSUhEUgAAAfAAAAFxCAYAAACMQPqbAAAABHNCSVQICAgIfAhkiAAAIABJREFUeF7tvfmTJdl133cz82a+fPv+Xr3al+7q6m16mV5memaAAWYAAhAwFCFQoEgqZIokbMm2fpAVoQg7HF4UlhWMIB2hsClZtoIgKZE2DRAAKYAAiH0GGAxm62V67+ra61XV2/d8ubrwL3T98IkOZv/+6vQ9ee9Zvud7zlFeeu13AgH9235FhSQLIXucbF/Hji1iVU5295yNCT+5uIvJzhgjTLbtS0z2jR8fw2R7k2NMdjQOyo442Lkbe2lMdjw3xGQHmAcVgvNimLpDwaEGQg2EGgg1EGrg6deA1HsudgptYGKy41xCJkYF7NgiVuPCRSvJZeCcxoVwfQ0T/7DBXTa51MfOrQYKJnvYjmKyzRJnz2NZLgsedDhfonQ4SFWufyqCXTbJIYsi0vaxc4/THPCxf5Vz4NqjBKbz/SgHa97dymDnvnx2FZOdj3AOfGOQw859d1DBZI8drmSSMLkAnZTdjnEBm3RzXMQW9LjLZic4JzoucE400uDOfeJVzpm8nH+AGdWbxSlM9suZ+5jsXYcLXCIqZ9c27s9jOhdXLEz2UqaOyb65P4nJtgcGJpvzoD8/ssI5ssE0B7H5Ondum+OZiN1eCrvoaoFDXEhn0vM4aPGd9jz2vUnBg0WOSBbnTAupcjHcTGLyVZfzJTK+yuH3NmfPhZPmDHrAJcEie4+7bMYZD3tkX965gMmOSs6gv769hJ1bl9z3nku3uHM3OJs6d5w7d3XAGfToTA/73rbN5cHS40rgQudKZGJsco5MKFzwMM5i91w0t/OY8M9dfBeT3bBjmOy1GqfzX156Hzv3H928isk++dwaJrtpcXdtMOag5HiEq78PO2ANnHSiClemOnxgnAP3ohwr2WxgtkX4GY61uDXkIpd7jSKm9A/Nc7yDtMZ971eXudr/yOMy8PUWR94zDQ5pOqiCfIsq973lsAIWTTRONjnIJbGJ2XPROsXpvAAywd+6v4ApPZ7lHNkbm4vYuZOLHKFqrc85MsfjAnT/HY7k4lzh4Hs1wpVrtFPc+5ZemkuDFZVzJrbBPbJxn5MtwKBJBUmLL5x8hDmyuhXHZD/cKWGyv7u1jMnudTlYUwXfWAA6k6TO+RIrwsnOJwfYPZeKzTGq9DbnyLwYV4d2OdsiZJ/73nsHXHaQj3KPbORyEFsiyWXB5SRHLMrHue9NBqobNQ55iBvcrIWGy82YaPS4AJ2z5ljMEgoONRBqINRAqIFQA0+/BqTsgllwhIPQ9Q4XuyS2uIvTuMjVisw4xxRda3KZyajPtXpoBve9pyfa2EXfG3EtTZbLtRX5HmfXtt6Zxr53MM3VoT2f07n0ohyUTMK5gosdhMt1emAP7OeC7W0Oanr2ElcDf6hz88iLca5XM6FxAdt+nxvs0axzcK7a5Fq5yhf2MPtiaFwN3Pa4gE2aNS56SGxxXnRU5NrIyGloQnI6j09xNVEXnJ4zHHFGNZPlauAqOO+g0+WiZFXnkqKl8xy89/jdGcyBBxXunuezXJAsrRJ32bQRFzyQA2wkx68Rhbe4kknk89wje//OPGZcXr1wG5Pdc7hRqiOPC1zice6uJU2OzJWLcFDy6ByXge81uZJJs8MhLpLshx7MccGDOuYycDniZDef4TJwf5erQwtwXjE52ON+kxsik49xkWqMHCrS5uB7BWzVJJ2odp8rz1lT3AAb6cU4g66ARtUzuXMLcFcxGbDZJoe4aENO9lsbc1gG/pnlDzDZ3985jskmBSfB7L/+OrfK1J3m6tDuHMe34NIxcVgRBYcOGE3OqNo50IGD1sUl1xV53FVffJarDT5Y5YxqAZyVTC4UeVDjkIdRhytbGM+A9Vjwfes6122h/YSD72UAkpoiXJeJSG5wzsQCkWSydOCDG+D6NtfKlXjIDXLpXOKmBt1Y5UhN5jpXf1dyXGlwcqaGpQf7Xa50kAB5B/aHm5jOJbjTQ5CbsXoLXAYeqXPBQ+YBd+56ljv3QYszLlMf28Ue+J9dv4TJPjFfxWSvRrnWvUJyiJ3bAqf+jeog87/E2TWpcdm/NOocK7lwgzt4/Rx3brC7RphtLjtQLa5kcvHMNmZU8xEO1syCrGQf5HpEwNnYEXAmeADqXIBjucl1oqNvc+UazqJi5jQUHGog1ECogVADoQaefg3I4nUuIzu4xGXBKsf8Fz5XnhPNFU7nqYfcg5kD61TcqYV43Mxj4p+fXMdku1kuN9npcEt7LpR3MJ3Xylw/dMAh6KJ3kmPfy/oz3EUnB5qU3+baDoYTHKmpP8nVoe1XOphxudspY7L3Blz9PRXlBppsDTOYznsgaTEX42rgZNkiFuVsquVwNjV9Gxyl6iS50CW6zzmT/ctcGuxxxGAhOMBF2PtchJ6pcJlJweQGmmz0spgTvbs+ickWIw5puvoMN3f/rW1u5sC4zXV6lKe4lqY6SIiWeo9zoiTfIrXBBS7t45zO7QznwWNljsxFZiYHYy5w6Y65nuR8sYs58O51joW+0eWCJtfmAheyXdKe4M4d3+TsuZQc2iNGE5wT1cBRqibXqilUhyuZFE5xmejQ5RCXxpAb83g8W8ecaExyM8F/pHO1/1qbC9hMEMb2rnC14MEuOEzlKmfXpFXknKif4j64CvZLxve5LLh9nmvdS+qcQS+aXPZvkqsOfS4zmdS5xRpegWOpqj6XkQ3BMhWJsOl1rg5tc59bSC/OORMBjnEle7GdOPfF829zZI/hPCf7gwY3zvSVyn0sC+6Da/e+cvM8du58mYPvS+AO9rUH85jO3QIXLDoVjkCX+oBD96SIcBmZAAd7dJa5wCXS4GBswQEu4mKqgRmXpdgBJttUOKQppnGG7ZeeuY7pfH3AQegti2OpWgscyhUBN6FFtjgn2jvH6VyS03Ny73KwR/NZzqgKwTlwJ8158B9tLGEGPbnEtVOlJQclH9hcCxu5RrU24ngH+y2uHpsrcKWiocU5Uf0cx0Ift7mATSbvc050yKGagtwP7XMqF8X3MB8q8pc49t5XX7+MHXzl3CYmm6y/3/vmMezc7jMcsSiT4JjBmSgXLLY73Cx01+WSIj3KJYPK4u/+LpaS6R2uFhyATpScAjcqc6UDkeKIRdMVbmNQJdbDHFnX4XpzEzoH33+wN4HpXAWhZOzQh4Kdhxzy4M9wgYsPtu5xYQt500LZoQZCDYQaCDUQauAp14BUQQ68wRFFxXASAx5EfIdDHuwMJ9tXOZ2TW5rIbWRS5UiqSbAPfDbXwkzz4z1uO1UsxhGqRhkOSk4nuQzcdjg4Vzpp7oGrDtd2QC4UGUxhtkUYbc6BW9w4cvFSeRVT+g/3uFrwYppj/u9bHIGOHJ5jRLhSUbfOkfcUnQvQpcaVBjstrkwlgwh3cCfNORN1xFUPAi5uER53bFHIcbXgqsVtiJpPcfX3n67PY4FL4HHvOwCHqRyb5loWhyCBrlrn3lh9l5Mdy3HZv1QHoDfBTIsQAThERjicYdM4hE20ehxL9YHGwZor2X3spl+a3cJkq+C0pLbNtfY82OWgpnyGayNTwSzYyHJtojGTI2tKbcilZH6Eg1zILJg8t1C54CEO1uemE9wq09Uut1jjucI65sB1hSvPCS5WFGTr3u0qx76Pmn8zSwfjETdhUpKZaLTKOROQXyP601zgkuTsuWhMc/W5RHkbc2STUW7IxNaI24y1GOMWqXRdLgN/3Mphdy2T4OBc1+eSQcXlfEmhwpUGZaTFHXw4zdXfycAlUufKFuMMZluEBo7tXe9xRvVaYQ1T+q7PffBtiwse7jQ4GNtxuffdbXPQg3rAkblEgkN7atvcPZdgmepwtSUXPJB1aJMjBgtwt4WQOvfIZhNcFjwOOIiNHORy43vLWOAy8wJX+z+ockGTsc/dtdR5DnFpd7nARQftmiSngpk1zoGTjqx7DEQeJAff50CyR93i4Ps1MPvvjEzMic69yI2QHYHrgienua4Dt8LB2BGd6wMfGpxscuaAnP4GN5968zWOGewkOEdGIg/qgHvgnbscjN0yQJirz+m8cmUXc+BkTbQLBi79Phc0kUxwt8NB6NMLnB8jRwZzlgUzK6HgUAOhBkINhBoINfD0a0DufILLgm2uVCRUkLUIrocWToaD76N7XLxY+EgVe60RjYP3+jaXFZUTXE+yVLl7frbE3bWuzWX/dpkj75Fkria4/10aXQ5K7s9iNlXIIVh/NzmdB+A8cuN5rjYYBzdjqYL73jHw3PcbXHIwAndTX1jmWhZvHZzEjCrJvi+muGBxv8ONDJYt7nsLdcw5UZMjTAo3yp3b9rgouZzg+iXX6nnMsEUMbsDFbJpj31+b5Nrnvvmzc9j31k9w3RZjcLHGuMYxwbkK+OFUT3BsL7dG5fB5kRPJ7CTnRMcFDt4z2hyMjVnUQ8GlNBc8NPocA94NuO9dHXHzqS+f45bX7I65c4/r3AAbEQUDF4trn0MdePoh58jaKxy0SM4EV8CIjXSi3TFXn3uhzGWDt2QFU3tK54bfGypX++863F1790+ewb735V9+gMm+fcANz7HWU9i5E9ucD5X9aezcQrO4g0e4dcHC4kZjC5JA1+pzEFtkgoOxOyDJpTXidH61tIEZFxJ5iH3iADt33zUw2QlwzsMww73vXpxDuaSd5eBcs8Yd3OJKokJwxxYkfJ+QHMS2OeJ60E3JGZcrBc6JNh2udDBhdjFHRsr+2l0u+08muTnsiuT8mAKOiJYkG5tcVuRwiIvQexzyYNY52VPnONhjKc7RXG7VOQj9bpfbTnVnl5MdiXBB0yuzD7HgYbrEvbGdG9w9F2WuVESucJVelKtDkxPJAs6PHdIWsfcthuAba1ocnPvVDS4zuVbh6u/cTRNiM84NevjQ5GPs6Lda3COrxDiy5maRgzVTKS77T0S44EH6MQ7WjKxxWPKYQ1RFjJvzIJrPcZlJtcqNMz29sIMZ9JjG6Zwkc31y9i6m84HLDbApRgfYuX0wM5ma4LL//pir/TcGXKmI86DYFQ8FhxoINRBqINRAqIGnXwNSHXKDPQQIY5NtZGaLI1zEH3D9kuK5DvZiHtU56v+1PAfn3u+WMJ1HNRuT/Ze3z2KyXz15D5P95s48Jnsxx+1J3lnj3rfW43yoPPHvONjjwW9yOPbyf38Lu+gP/wfOuATgOtG8wRn0+TR3zy2fC5oe1rhxpuUoV4/9+EkOvh953PeWGlcSvVvl+sAzU1zXQecxx/VQFn7vdzFKlZfkLpuCnVoIxeIqF6rNwR7+BEf2+NgJLivK6EMsWBz73LDFGZObfb9lccnBwOPq7y2bI4q++/4Sds9FkhsaZMS5xER6Ke7gJHxPZqKRJufANc6XCGeeu2trfc6gf66yjhk2J+DgvW2b0/mb+wuYzg3J3fOpOJeJGi3Ors2c2se+9+NdDuWSeoODe8h2KoUrQ4vCDQ550BwOemi9yLGxDZXTedPjWKpjEL7/0reuYUb1733idUz2f/jBi5hs/TR3zytvcYGL+iJn13STO7d009wHDzRO6aQDb53gYM3Sexzc093kljzMPc8Ryb53cAIz6JMxLiN79aPvY+cmBRePc2Suapt7Y6n/kuOZbO9zJDavzZVMZKBzqahic5CLiHDntsEpcGuvccFDfJojNf2kykGqr05zCybOxbhRqqtjjtSU0CzMh7ff5SBV5ST3xuIGx3FZmOX4FtUCuA88kuaUnvhOAntkzXOYaAFueBQk8qCDs9BP5LhRqlnJDfbQQLam43P1d3L+vJPmkgMx5EqiTor73jsDLis66IAO3BlxGVlvlnOiWp/L/sk96IHBlS3iYBvZySQ3/q4guazoe+2T2CMrGxx8fx+cGZyab2M6P1XgyFxdm1vh2nM4GJvkckmlzh2cXGYiXa6ditwAF4Bbe0YOlx386Vdexozqb3/um5jsHrgXe9rkaqJ/vc7xDi5PbWLfmxyd+2CfGxpUynBBsu9zvkT6Jgf32Nz4WiH7HNwz9X0uC967yjnRdpTrUX31k9cxo/r71z+MyfaGHMK2cLmOnTub4Pol52Mcie3rW6cxnZNOdGeV4x2QLckcjoxds1BwqIFQA6EGQg2EGnj6NSBlh8tEvRiX/ZPtc9sf4y6OwZE1hTvmssFv3eQyE8Xh4uSXL3AjRffHHLnnQmEbe2Tk9LtWi5s50NvkauBTl/aw790eRjHZkkz/tRFn2FSOXyPA4Vgif4sLmqp57nufOrmFPbJqj2PIrvW4aWjP5jmdk+tEN8bcXuygy5XIVl7kZi10QAKd43JJsPSK3HSszNtcEbx9hhtgU/wp58j2n+MIF7EN7tz2MvfIzhY4BjxJanLBNjIsWjsUfHOvgolX09ygpp7NEaJ3rnM618acTZWRBNcH3joPHjzBBS71ixzU5Me5wMWd5u7atcIaZlQfD7kpUbkI14P+lz+7gOn8M1e4KXDpGDdEJpnlWtg2fsz1BeucORdunCMlS6vNOZOV/50zLg/+G+7cmFU7FJz/GQexNS5zJ0+Ck7mGLoc0rQ85CP3589wEuh/vcZP3DHCl58O7U9wjy3PJQWWR63io7nPrRGXyHmfQH/xDrjZo3ufgXJfjmYjOMS5aPLbIEU16HhewkYtUXihxdUkdHPRggTu5K9EO5kTvg+NM2xZH5tJUjtujapxs2V/ioiazytUlh/Mc5mLuckETWa95/AGXHaQucvB9tc8Fqkmdg3N/VuUgVfn1LOZEK194F5NNOtF2l5vz0H/AyVaWuZkDUhtwmWhim8sGRzPYGxN2hovYjDb3vf0YFyy+/2AO++DxB1zAtv+pPnbuZyc4FvpPpjgHXh1xG8EmE1x7zUScm4b2SOd4JloAcrm8COdEow1ONrkJTXW4Dz4ucU7UzHLZ4ErpAHNk8gQXsFku13s/dDlWcuE5rlxTG3E1srkkN76W7DpwHQ7NFaQDTz3iMrLtVzjDJnvcub0od24VbHmY+AOuRmb9M86R5SQHsb17ZxELXFJTXDZY+NccpJr+Hznk4a0NDmmaK3JTokpZLvtvDzi7xnkxzKyEgkMNhBoINRBqINTA068BCW7dE0GEy0R9cBtZYp2Lm3orLnZrW1/gouRX0hykGlE5nRsXuVGqr68uYXdN/6fcXasecFu5TkyApSKQCb7X5YiiAQmhk7upFYtzZH6WY6GPh1xfsDC4oCke4aZELZmcYev5XAtbGtzKVZ/iasH3qmUseFipcDu5TckFi6bG2dRBm4Ox8yWuVCRJR6bvcI7MzXGOjJwwqe9yOq/HEphR3ba5gSY+GKEvRznkwfI43sGvnnoHu2tv1DjeAanz1oh7Y0aCSw7IwT0ylhphF93e45xJQC5h58jYggwePFDnt9qT2D0/meYyMuzQh4Kn49xAE/LcqsJ116xdn8aOnl/hpqEdL9awc9/f40om0iLhXLCFTQy47ABMyLBL/nPBxya4R/bgx9xozdt5bujA3736M+ybRzUuK9oEs8HemCuZHL+4iX1vMnAhs2Bd51pzpahxlw2ctCi0Plh/5+Z6CGeSM6rVr3EtLmf+ziPMsKXAaWjf3l7Bzr2UbWCyUzqHLB7UOEJVeZ4j75EOnCwdjHrcvAMpB9xQkQj3vkVvkauByxGncwHC2OXXuOwgJrnA5e1dLgNPmNy519pcTfR4loNzxZBD926tcRB6OsdN/SN3cos+972lDWZkNnfXhAAZ8IHGZf9qm7tsuQiXFZFTon5h/h6WiZLn/ovr57BzZ6Pc8BwR45jgRoxjgkd17ty9h9zo3CiIekihcoQLYXHj72SHkx1w/lv4Bve9N7rcI8tHudW1pTTXZoJ50EPBl1bWMfG75AKZNBeo9va4To9ymSNreiscqll/lMfuuQxczpskH3LZoFXiHBk5f14WOeOyt8FBqp954Rb2yPouxzNpudxIURJCj+pcJkq2DZ44sYPdc1PjMvCJBFf7X7nCzZjgvDd2zULBoQZCDYQaCDUQauDp14CMbnKU6P4xjn6v2Bzkog25uMkHEZdYiYOxIyqXkSU0rvH/ndYsZqUulbilHvtWEju353PveyLKZaIbPa5EpoC99xmDQzWlNcXBHoKchS45Bx5oHHwvWlzLg2twAdvOmDMup2McrLmU5NjYMya3nYps3btTncCCh7sBN0K2/W4RO3fuLmdT7/0aZ1OlEgUdeJubxGZ0uCjZTXCXjey9jxjcXdsdZTDjUjG4iWSNMUdqupRYx3SuCe6NvbJ4Hzv3Xz88ickOFrlM1LvItbApXC4opNLknKg64pxohNt7L6L73BfvnOay4PifpTHjYvzXXBbsBFzHw2S0jen8Zz1u+t3r29wmNGvE2dQr81zQdDDigkVy+l13yJFUJbmNzAdH0Nk2Z1Rzd7khMv0BFzRVP8pl4FqXa/U4HudYqpcTa5gDb3scA35iiWvdG3qcA+97HJxLzhzYanIlMg1coyr1JufInCyXDWoc2iP2L3MZuNHlZLspTna9x6223M1xyENMG2MOfM/myhYPe1w9dvVrXPbfO8mRNZ87+Ri7a3aPC5ryZS5YVOb/+F9ixSKlzkWLJJGMlK06XAaucAm4+NjL72PG5fsbxzHZUuPQno/PcRPospKbxDb2ufkWZN9/dcQFqrbHJaIPa1ywKBWQEe1HOeNCTqDT69wDd3Ic6iEinOweOEzlP1v5KebASTLXHz68ip37TInbg/7+909g537549cx2Q/qnCNLRblWTbvPZf+ykOXYewcut7VHgDs9weRAOByqKdLXuYtuLXPzDnIa1/9OEuj+wfG3MGfyn6pnMNm/8Il3MNnbYLfFbJZjBm+3OcOmgu2xsm9xRlUFGfB+jMsGfU7lIr7JQU3pz+xihu1UsorJ3hxzBLrdMQdr5g0Oxl5Oc7vndy1O5+RKz7vrFeyNxdNcBh4xOd6BHLajmNIVcJGKUeNgbJCkKhSwalFtcoatmgZlDzmkyZQc8aA55oiDL+RWMbv2hztc6eBYnhvcoxmgccG+thDDFudDOUYTqPBQdKiBUAOhBkINhBp42jUgE3c4PHd4nuvlSt7koqbGeS5S1WwuZguwfgchHnUK2Ft9qcRlg5sjbgPc2eQ2pvONEfe9dcmV5x6AjOiLs9zs++qQm31vGiCE3l/iLpuuc46scY1TevQxR6iySpzOdbBksr7NMWTzUa4WvJLg2NgkgS6q2VjwUIxzxOCFMjd/PqJy5ZrtPlciaz7igmSZu86RmppXuOyfbCOLcTZVjAvcMBUN7En+pXNcH/i9LrdgIiE5cs8b9WOYE81FuKBpLsGxsZ2AQ9jGYKtmxuTQ3GqaSwZlbw57Y0LtccEDudLT4kjJQgcnsSVMbioYOebx7vok9sgWEg1M9nqLy0wEN1lTNEYceW8w5pKiS5VN7K75YFvw2QVuz4Ly6rV/gVUmVz/P1aEzd7hIFdxtIciAjex/n3mZMy4xyUXo623Ok00kud3U3TG3YGIizp0b86CHgmdjHHz/9YensaNfndvAZMvHn+UWDgTgEvbOMha3CNKBC1DnVorTuaFyXI/5OJcFr4FZ8CtFbq3m3QG3kzujc3Du93e4sb33QQId6UTbYy4RlV6SM2xkL/a4zBEuNLB0oHhgDbzEQehzCS478MG65GfmPsCyg4LkMtGDEefIyhHu3EtZLlh89za3PvYgw60y3e9xDHgZ2ecGmmgcv0a4fa7+Tm4EG+c5FnpgcTp/a58je7geV6759OxtzIFv21wNvGBy42s1wb2x/SHnyPLT3O755n+cxe754BUOcZEmN3FQpLa47L96jTOqTpyDkuMb3LnVD3FG9WqZq1PdbXMsdHKU6hvr3FrNTx3jAhdyJ3dnyMG5gwG3XfL4r3Pvu3lzBgseZOc050RHE1xG5hucE8W+9qFgcl9w4g2OUFX7RQ7mqra5HtWTmX3sus0XOTiX7EHvORyBrlvnGPCXVtaxu5YF5+7fT3Ez4Ll0DPvUoeBQA6EGQg2EGgg18PRrQGo9zofbRY5IRhLofI52IHxur4YYneNqRe+uczDX6RluE9pf3eHaa+YnucUa+xZ30cls8GPP3MG80s6QQ5rKJudLlB5n0KWX4AgXAtxeMy5zvbnqiCsdqB3ushkdboSsdr6DGbamxbVqvnb6JnbuEbh27/3aFHbufJHjeviC6zK5v8NxPdQpriSq5LnuGhmATlQFI5cgytX+waFBIr7LPfDeChc0cdxcIQyNyw6aNlcT7YK14HqT4zz0shyZ68YeN/UvHucc2fpfcS1sJmdShVTGHISuDTjZvskhDxNvcl+8cQZLTIQ65JCH+CS33KI55DLwzQNubu9UkZsJnn6TI5IJjnwvnLscjD3WuSzYfI5D2FyHs2tSBR24yiVkQpGcA6+d5z64ENwjU8dc4JKPcbDmeoPrh7628BiL2Poul4l2wCemgtMOy5c5vsX2DhcskrMWMgmO2yNjO5xRLd7gsqK1X8PsmvBSHHxvHHA18MwlbujA3dsciS0/z2WipBOVChckKx/nJu8NXW6hSNLgYGwjztnzldIBZtDJccVyOM1lZNt57qIHHpf+KyDURM5htz0uLXr2HJeJ3tzh6pLbIOIS0bna/4kcFyzaPnfP765zPclaBExMwF0HmRiYgeduYYGLqL8AOlGHQx7IWrBncgHbYMhBqnaKM6qFdB97ZDGdy4r2ulwr11ySQz26DnfPzy1uY3eNLB20bY7zUIlxs+/loMI5MgWcR653OAKdzn1vMZrkHLgPzgTf6mYwwzaT4mZEb4DrRB2Q3LPe5XgHfXAndy42xO65By7tmUtwAZvlce2xcjTJwR4kgS65gd1zdCe3T7bPDbj6e9fnZkQPQQKd43LIg5Scbdl5UMIe+OULjzDZ9+rcuf/2AjdzoABmRd+rr2Dfm0tDsSOHgkMNhBoINRBqINTA068BqeU41qLX4GpFoxKXmdizXF1Sq3NwDznARk1yOj8A9wX7oNLHVW6ITHqMFeK1AAAgAElEQVSOK1uQbiENEqoaDve9TbAn+e4+N4FOugPOoCsJjqU6Imv/Gtdeow05zoPPXTVR+RMuWAz+qy5m0wPQgWtpjuyhg6zkOzXOoF+Z5GqD79W4Vs1qghtgM5fnWhal4nIGXYAGPfsBVz1oXOayfyfNBQ+pVU7nm5/GfKhYBJ1Ja8RNgTM0rgZeTnHM/1SBQzWjGtfZQ6I9p5LcAJt9m+u24FhFh/ZUaXMeXB9wbGxtwDlwMCETnROgQZ/mWKq2xz2zbocj752Y5naRV4fcLHSyregbb5/HIlUjz/VDv9Oaxc7t+lxiIiU4c1Dvcdl/7TKXicbXuQ/uc7NzxGCRK5mQQ2Q0lbtrmQzXVrRaK2BGtQTC93Vw+1y0xI0MTpgc8kAiTc0uh3JJN8UZFw9c46L4XPAQcAmZGKxwZC4BtpHFDe7cO7tcT/K5pS3Mid5scSs9+ybHeUiZFqZzBZzDTk7em0lwpMU5cEiUVBJczUTVOBg74ESLgcoZF83kYGzP4koHI4cr1ySzXBa82+Pqc5MlzqjWOtwC2UtlLmga/gk3SjX/G3UscJmLcUSytsOVqWRgc0Y1MDlI1Xc5GFsFs3/SiappLgsmtxX1u9yYx36Lc+BKnoNUFe55iyjY0pT+dW6Uakxy7xuLHA4Fj30OUpVixN30yte5guzOL3ApePFd7rq1j3M6d5e5TNQEF2sEKQ5S9ZOcEx0NubumgLyDGy1ueQ0JJe/0uVaurT43KvlXZ97GDLoUUa4GvvtLHJwbjDnkofFpzpG5TS4bjOjc9641OFZyMsWxc1MgsciyuLLFTIHrOsiZ3PcmZ8D/xtxPMEdWlh1MdtPjyjVSa3Dpv5fksn/F4AIXd8zpXBtwOifZ2Eqd4x0ESS4Dx6zaoWAJBmwT4IaoqSjnTMiWpkWD28kdVzj4/kv1y9gz46w5duRQcKiBUAOhBkINhBp4+jUgNYtrp/IjnGxlxGXBgju2UME96NYmB2P7Ooe4WGMOSjbA2v+4w5Vr+kUOcRka3PdeTHBM8D2Xq0PXXM629F3urkmdmzh4OIqNAwA0jtsjhnNc6150lzMu4FRPoWY5iM3f4gY9qCc5vkUyzw0V6dhc8JCLcAZ9IDjZ/8fay1hKm4pwZar729zsezk8wx08IEfQVTmGrN7ksv/BMa51L1A55n8ixjnwEdeaKyYS3EKRocsFi0OHe9+2zxFkqwOubfDTU7cwB64rHEF2IdHAzi1lhDu473EG3SlwWbCR4pyJAFnosssZtoHKZcHHF7hFC+SCifWDPGbYJnLcBrg33z2Bnbu4yDmTaZ0bpuKA4y2/1T2FfW8ZPOZ2uPoxri4pYlzg4oArXAPJ6dyf4IIm3eC+N/a6DwVvtrOY+MDjyB5k4HL6LLfSc6fH9WLvu5zsLYsbV2xqHKqpLP7p/4KlwV6Tg7liu1w2ODzGZeBag4M1PRO7apgT+7ngSIWrBfv3OXKPU+HuuQoGbAo4IpqchV5Ic/ecfODFGEckkx440EQbciQ2/yJXGzTAUaoiyRlVeYcbeDDOcxl4/FucE22d4RCXSIpjijrgrAWvxRHJVJtDPYZRzrYMBhxpcf8Bt3VPKl2OUCU4/y10yRn0QR984CCE7hY4ncseh7g0X+AMm9riEBcDfGOuzdm1zAw3yKW9zcHYp4t7WCL8ZnsRk71weheTLSMNzosqXHIgem1ug0z8LufAIxzPRIy5ciy6i1wIsHRQ5LpMPBBpIstztskFbMVZ7oGfSOxjjsxd4gL06pBD2OQ4z3lRBSS5GFucEx1Ocjr3JRiwcQm4UGIc0QSzaoeC9VUuUB3muDcm4tz3ziW43vvt1RJ23bxpzrZ8JH8PO/d7xhwmm9M4duRQcKiBUAOhBkINhBp4+jUgExucD3e4DjYxAqehqUMO7vE54r8Yz3HQogHunndt8HtzpWBBZsFKnzu4Bw6oOn1yE/NK93oTmOxclmPA53ROthxOcPW55AbHmHROchAbWDkQi7+zhT2yu//tNCZbgMFi0OCgZCfH1S3UDkeg86Pcuas7XE9yYoFj/l9MgrZlwI07vN3iAhdl7ov/CvPgSo+LkkWGywaVGmfQ/Thn2JL3ue/dv8CRudQ97nt7Je6eRx9y507sYGZNDF7jpsBJjePXkLL/9uxNLDmo2RyJTTn2v/4edtOdCc64BC5XOlBcDnkQIJkrAKFkHexJTiW44EEDWz0aLa7v3wf7wMkJdGZuhDky3+NsKjndUo9zEyZllNvBLpxJLHYQ8XUuGxzMc/C9Arb2gL5EzBRamGFzwOUW/TGXBafSnDPptLjZ9yf/BTePvP1vObtWAieSpXQuSN4bcRm4BEfIHq4TxWyqGM5yTjS6zT0ysm1Qr3DtNYbGlQ6af8HV/vvPczovZrgRky0Q7Vn9HXCYSpwbpvK4xdX+OzXOiQqFS0Sl5AIXYQ85Rya7HNxjTXLBw8rvcyNkm/+KO3dMcjDX6CXOkS0X61iUvN/njKricO9bu8mVDoZFjjg4neIm0GGX/FDwSr6GiZce2FZkNLj2GnGCM6oqmB3c+wK3L1i9zxnVMjj7XlM5YhEZuJAbwRSwLjnxchUz6CmdY6Hvj7jAJQg4OHchzgXJkoSxs3c56KFxjPvgHrhOVAMzk8opbtRix+aWHUxmuMxktcXt5F7KcrXgWxaXmZSiXF+wChJN9lpccpCIcYHLar+IBWwoic1scpCq2+QMenyLQx6GJ7iLTmaiXYv73qcLXF2ybXGjVHf7nEE33uKywe6nOeJgd8zdc1XlErJunzv39CRHkOUwTSxmCQWHGgg1EGog1ECogadfA7J9mevFbl/kYOzA46JFcpmJEePIXNUmx87NJjk2tgpuI9PB+rsL9gUPL3AtbNUehzxko9w9t7oc8nB8nkO5spLTuTQTHKRq1bhezcQaB2OPwPG1HmhU5X3ue5svcHVosk+0usW19szMc+xcMrdq1zj4XnDlWCFrHAP+sckdfCkJktjySY5wsQ9OQ3PyXAbuj7iLboCjFq0pLvvfe3MSs+meyd21/CluP3R3xNUl58ocgW6nleHuGhigR6scorr4/C6m82/ePIvJluTmnFiUg++7LW67hRHjzu06HPIgwR3NdpkzLqkJrvc+ZnB3beRwgSpmUQ8F2z2OAe/o3GwNrcIFqjffX8A+uTEJQugHdzjoQZnk6lQKmInaPa5WFHAtyUJvcAY9Ag4s6o+42n+/yGXBzy+uYUa1OebKNRFw7n4iypVE5Tc5u6b+fa5cMxhzAZs05riBJja4cEDTudGabpdzZCLCeXBjmatDZ/6UmwrW/DxXpjpR4pYdpHUuQLc9LhNdAXXesLjApfq3uChZ9rlzu+sc50G6YB06HueixX6Py0zIbWRKEgxcXA6+HxW4jklyIhmWAh8Kbow5w1YbcSUyBZyNvb3LkRaLRW6NasrkggcnzZXIpPqQu+jDY1ztQNW4eo1wuHqsB24jI0sH9lWuFqxtcG9sK8oRqiKSG9REbsYiAzYFtGu1Gtc+Z1S4xIQka0rlJBc9aPc4WDM4zsGajsnB2EqHg++T8xyE3gFbe4IJLjvodDloMZHgIPRyjrNrEZULXOQ8Z1vyEc6m3qhxXSZkwCYDMCPTuPctRjUOQhcJ7oGrBvfAR+B86kQeRHtASFWXXGYyBL/3ANzSVANLBzHJIU1S4e5abZ8jii7NcTseJNlWJLgxzULNchedDJq8BscUFRZXOsie4yY11V+vYKXo8TMcSVWCO9jXu1wtePd+CfveUyucM2kNOLTHSHD2XAUDdI7Zg13xUHCogVADoQZCDYQaePo1IL0h127hZznIBVycI5QG1zeojbkseOGfv4m9mNpfrmCyrSWu20KpcllRCcwGhzb3xtQC9723H3NzPYTOEYOXwFnoW80sZltkbIMjNQ3nudGafpd74FqZIzUVMhykuvPnp7GLPtzlmOAC5JkEKe6Nba9yUPJL5+9hd+2t0RwmOzPDEck6Pa4mmgEnNdUN7o3J0QSYBQ+4vuAgwZ07n+YeWdrkmIMG2FbUAclc1vtcPdY5xtUGZZy7a1GNM6qnJzi+xUaHywbLWY75//7GNBY0ZTOcPZfRCij8da5vsHuKY2O7Pkc92P4mlx04YBI89+Im9sBrFzHRwn7M9YGrU5xt+cH6MUzpcwVugcz49Tx27uInNjDZrx6/j8n+7uoyJltmwCi5eoFjRKfSXHbQH3HnDi5yRrWQ5uD71n+YwR5Z+8NgFjzkgsVKhuv7N0G0597NWeyu+cc45OH+BtdtMbHCZf8XZ7ax7y1tj4OxlTZXf/dTXB2abDuwwFWmTY0jVBV/hYM1tTqXBaef4XYV58Byzf6QG+NKkth0cMeD3eUSkx895BCXT568zTnw7o0CJjyY5NiaoyFHYitkuUx0POSCJg+cu2+7XLfFlfl17I2R/dAGOJGM/N6VQhv73mQv9uQstzjnVJYL0AcuF7hIu8RBLsqAM6o+yAxOV7jVd4KL1wSJPEwlOThXKhzfovF2GXMmsx/lHJmpc3ZNVzmCLDl5j1zikte50iC5tEdGt7iMzFrkMnDBtSyKkcvpvDPkRsimY1zZ4vbeBObISMHOPKfzA3AjmP0HXD128wUuYDOKHLfnbKGKXfWRzyGqts+VoaXP+RIhwL3YqssNNNmVXE00AEepHqQ4qIkctUhmJr7FGZf+mPveyq9ztf8Fg0tMthtcG1lzzHFcug6XmJDLTDiKKharhYJDDYQaCDUQaiDUwNOvAQlm/0KA80zNGhe7DLOcbBHh4L3S9zm4p/0ZrpXLeINbm2svcN/bFxzK1e5w2WD7URHzDPJUF5NNfm8SxjY1brukjLSw7y38Wc6oDiIcgc4EN+c4Onfu+sc5YpEBbgwaXuVWmQqQ+c9ZFiF8hwuSZ5/n+oK7Yw5KnotzA2zcgCsV9UD4Xg5OcU6Ue2JCxB9x2eDwBMegU7qcA1fAJQ+axmWinsfd9FKRY99rKqfzyTLHgA8CDnnoDTgHXh1xO7m3uhyviKyBSy3Cpf/+AXfZRhXOuAQggU5oXPAQtDmmqJ7i2LnkzAFTcqiHF3CBiwOOK96ocuNMRYt7Y7d9rtPj5cVHGOCTlFynh1TXuFqRW+CCBzPHGXR7hxsKHp3hRg4Ou9y2ImvMIS7lPFeX3KpzrGQpuSDZBUsHkRgXNFlgZ088xrHvxx6HLDo+Z8+lv8DV53SwLhnRueDBn+CCBwlCyaksN2yh1+GCh1Sei9APfG5hkLXPIWwaOAPernDfOzfPlQ6amxyMPcw1sAz8vTVuz4IMPK5eo0gOzh07XMRm9ziYy9/kEJfECY4xqYAdD5hl+bngHc6J6rNccuBVuYBNf8TJlle4Mc16myOSmeD62MVJbrKm9EGoKQDHmYoNzpGpJhe4qKBR7YKtPeRdIxcGxY5zJLZBnxvk4qc4hC2Y5IjBB5tgyWSRQ9huHXCT97oNEEIPwHYLWefqkm6am1ccgMiDcp+7bDoH9ghxgstMyNYecia4F+M++FjjbEssyjnwzCxXnuu+xfW/K89y9fcFcImL1PoclOyWuYsee8jB2IMljuTiJrns349xQZMJQuiNA64OTQboiVXOtihcIiq8Fc6uNQcc6uHOcec2wNa9tQ1uYRDX54EWBkPhoQZCDYQaCDUQauDp1oAURY4xaZpcnSoC9kt62xy8Zy9x31vf5AhVdpzLBnWwrcgwuDfmZDhSk3E9gVnmXpPj15BcDyPJZeDFBFciWwIZ8NIbcs5kZHFG1QanoXlJzqiaUQ6+z9wB4b3HHDNY/SzHUh273Bvrtzm+hT3FlWsUnet/F2BXkQPa89V7k1jAdvbMBiZbFt/kouT6Je6iR+ocwcbKc8bFanNZ8N7LXOCSLnERegysv0ckp3OyF9uY5hjRFsi+F+BsDXLufvou58duxaY5B16/yJGaIjVO6R6XkImAnJa0y+ncOs0xZElHVt3hGFXpIhe4kK1c9phDHshRyYrCJSbRDPe+pz+3jTnR7hbXwiZFgovQHYeD7wUXtxyuUcXumjC5gUXCAOeRN28XMKUrJa5s0e9ziEsMNOjqj7nFGi5XfhejKc6eWwOus8fKcAEbOSRKGluc0v0I50XdJAffkwtFGpc4Z5Jwuew/d7qOOfDGQ265hTHN9cfqkisV9S5y2SCZHMRAjkvM5Ehsq3e5GnhpkVujKgMucBFuCnSiUc64RDa4oMnOcjr33ueyIucy98j0Dgi5cOU5YYPjik1wmMoAZKF7Ec6u6eD6WAHOmCDX5oLuW4jIAZeRjec5qAlLBQ8Fk8Qia4GL0L1bOUzt9iSHekTAARc2SeaywKAJXNmrv8Ph93vLXJeJFuXs+e4mh7BJZ4qD2CJxzqCLKtfiYnDjqcVwkitbkOQe8p5PfoPjeuy/xgXJcp87NznlkWRj949xwaJe5/JBZZ7zJTPzXJuoFGCEnohywYOT5S7bgCMlCwGueJQdTudelCsdND7HbeWSd7mMjCzXCI/LwPUGd8+DGW5QU6rC7b3vdLnhOeUY1+kh43e5emw/wUEu5Mq/cYmrU8X3uDaTMYc0CWFyDryY4h547SRWORAGB/YIu8b1iargVi7T4DLwqM7JHkU42e0x1+nBhamcXQklhxoINRBqINRAqIGnXgNyfIGbWOTtcHVokeMyMj3PwVwDk6tL6lUO7REa971JKzGR4WDNgc1979YuB6mSWbADtmq2hxzqMQI5Tatt7twyneT6JbscmivyKS5w2dvkGNFpsE7Vi3AXndzRrPwbbk/y9uc4co/vcAQ6Er8fPMxgMZuvc3ULo80BugrYHquAS7lkb8Dh96QTlRpXh9aSXL2GjNBz3+HuWuRXOOr/6Le57x00ORKbBIeKOC6XHaggkSwd59C9Mdj37z5MYUGTZnC+RGo3uQcuXuDYuTv7IBW8yUGLlss5Ue9vcWQuF4Rzux0OeSCngrkjrlyTKnIImwsy4EnZgxZ4z0sc0hTYHNIkR8e4Vi7rATefOshwWZFIc0MHNJM7tw8aNtKJ+uBijbn/D0tMxN5vcdmg/xMOxrYLHIw9nuR0Hs9y5dgROIfdG3CBqjTinEHPlDiCTavHkVycEdgn6nN1KhdEHsilPfOzB5gXHf4TDu0xbM6wDc5xzkSCkCo51nMITt4LBpxNjVY52dLucw+8B87O9VzOkcXucf3v2YccG3vn45zsfLGHOVFScEznoMXW+xx5zyuCKJfk7vkI5DSJIQclp6a4ZHDQ5dAeGV3lHPhogvvgguO4iNEpDuYaTnHfW4CLFjSFgzXXH0xgPnz6OJf9Y4c+FKyOuADd8bkAfWqB27pXe5u7506Z8yVekUOxpfcMRyxSwNqgscqRucbgDvZYlTNsI5+DVAMuGRRGiYNzexbnTNKrXNA0fg3MyNa4rXupCJcc7ExyaI9xh2OhK/OczmUU3OGqgcM1rEUuPzBjXMTmRTiDbk5zwaKmcs5EAbP/TgPsMvkwZ9ClxQWLxgx3zy2Xq8cKsA4dLHNdB36PQzW5dIzzn6HkUAOhBkINhBoINfDUa0D2QdKDC0YumQkOYrPBgQfWBEjusbnsoLYGYuhTHIQuxlyMroIDiwKw20JVuTdW/0/TnFM6yZ27kuMGNW10SpjOZQTc4hJ4HJNsNOZgD7vB1d+FyU0NIqFkB+y9z4PjigUou1Hl6pKJAjckipx2OLzAzfUoFrikKKJxwUNsk0tMJFkbVMF2C3JClZHjSA/BI64m6s5wdei5+RoWJW/fqmCyp89WMdlWHnSi4Bz2dJxDXLq3ufetgCBXY8gtxiKJ4NK+wfWwuXMcySWS4CJVclvR6DhHsDFAMtdUnIPYWtuTmBMdnOCQpizoyHb3ObvWcDgnGj3H3fMROLhH/JD73nOf2cTetyQzUbXJMUWVNc6wdRa4wEVtc3CPKHBBU9fmyhbqy03sgTfBZSaTpTZ27sR17nvHP8b13tc7XCbqgqXBAKy/p13Oj0lrimtpSt7nDj44x8HYYCIqzH2O1DSIcd/79gezmDOZXuYM+nymhZ27a3Mti96LXCa6X+Nq/4rGlanI4Vga2Jq7vcuth5YKuD+2P8eNHAwsbnKPYoDnvsQRTeSYc+Bem0NcyDWLgktEhQVmJnM5LnC5uzeDBU1mmeuHHrW4N+aD79soc5wHqTY4o+pnOOagsc+d28lx5/bjHPNfe8StG3TB9rn6ozxm0GsGlx3EJzi+BTmRLAo60ckMhzys7nHwfXSCC1z8WxziIrN3OIPe+ijnyOwCd241yp173ONgzaDClWsq01xGNgBbFse3OHLPxDKH9jSH3LZBFZz6VzA55v8qV50TwyaXHEw+t48F6LJxjTOqEhylKobgbYtxdaoTv8dlRTsf47LBKEgcbPY5Z+KAc5pjkrMtaw+4gSbmHBe4bPe5OexLy7uYI6sPuOx/OsGhHqAXw751KDjUQKiBUAOhBkINPPUakIU3uLai+mUufgji3ESyRJxrI7v3T7keVUXjmP/BX3EZmb3I3bX55T3MSN3bK2OylTJ310pJDuUiSweZNEfm6rY5lOuBKGD3XDZf4S56KsnJtkBGtOtxgYvS5QK25DwHNfUvcmULAU4FI8fX5lMcsajWSmJGtTvmqP9k/X21zjkyA2wjKyW4gE2qO9xl64JL2FWdy4p80KALsE+UDJr8DtfiImLcXdvY4xjwcXDaIea9DwV37nBcj+JZbmRwAMbI/T5HYnPBxTkymOGyYAH2YgcNjo2tZDgIXaS5HnTP5XrvtSw3BU7Z4OA9/ThHqOrWOGJR/m2uTXT8SQ5pIhEXcrOlbnCdPfU+V5aU5MFVkIXug1u5vC5nXKa/xbXPjX+LGylab3CQqjLN1QYdEO3RYpxR7X6UC5KzBid7v8H1JGd+xGXB0c9yXI+9Bsf8l+MR50wS73LwvcZ1uAiLQzVF/dd6GLo4ARq2Gsg7CAYc8pCZ4eaRx8DvrYLzii2Hs6noiuaPc2hPv8NlwQa4kluKJlcbHMyDcG6Mky3AQQ/aBnfR28tc1GSAzH/BIclCU7h7Xu9ydy2f5Ah0DXChSCzJlYpGj7nsf/Isl4EPbc6HyhQ4Pqd3hYMWtRqX/eszHGvRjXEs9NYeB2OTixZUMAP3j3Ecl+A29733DU62mOemoTm3OTi3fImbSOaBRLJmnbtrsn2Wy4oiEY6da6e4+hxXhRYiqHKBi0hy3zu2zgUuVonLgjs9ri7pVLg3JhOcXSNh7OA4hzyQTnR/lxsZrIGtuVLGuUcW/SEHsbnPcdm/vcmdO3uXCx9ap7hasMOpXESmOKOqvsNlB84S50R9l7vnusnZ1ESMg9DbYCtXZYrbdVAVWYxXJDXJZUUOZ1uE3+LayFRwSlQjxzlRcohMdIsz6P0pjtQkwTcW2ePObc9wqEcsyrHQSeJgc4vLgpMFrsNlb8wN5uIkYzFLKDjUQKiBUAOhBkINPP0akArIiPbAcqyW56AmEvVQIxy8Z7e5OrTNJQdC3+Quug0O7hE6lwUHLpebdFe5yzac5Ah0ApytURuANTJwr4YcDzgKvJLlHrgBTu4Z90H4HiyZiICDscE9KsKsc5H+OMc5ssEKFywKj7tr5CIVD5x3MDHBzRzY2+TG1ybvcomJrHyDq1PtXQMNW4Nj52pdrg7tJTjZkisNCqvMBYuDBU42ycZWuWMLX+ECFzI5kOB0Sw384BOzYA3c5Fr3ZPMkd9GDNAdjG9tcFhzlZg6I7nEuM/E5sEf4ktu0YOa4jgcDRFw00Jm0tzijqqa53nsd/N7kHHZSdvQh50ukxvlQYa5xB/c40aJzhoMWE484uKe3zJ1bscHABYQ1LVC2Y3F3LXedQ5raI24imcU1FYlmgWsbFFweKrQUlxzIUYXDuWSZy0xir3PzLTvgLPTBLPe99QZn0LXj3Ax4Z8yd27jHlYqC01z/e3eJg3vIsZ7b25xxyZW4N5aIcJno5riE1YJl8jEXugSzXMQ2eJEzLorNZQeBx3EegjkuYCPrc2Pwe4/muDeWADse3CVuXDFmzQ8Fz89w+8D3OhzyQPa/ax3Onsv+Jc6oBl2uvUapcxh6dJ7b2jP0OShZgBuixmMucBFD7oHrea4eO2hx2T85+77/fW56TuIXq1j8EP0Od+7ep7hA1YtzqKb0uxzUJMAxrsklruWh3+cCFxXszfXAmmgAjtZMbHAOfBDnApfkB5xtIac8Dj/MZf/jHlca9F7hzm2CLaoKaFuk0eCMS2SSq5mMHa4u6Q04o6r1ue994o87WHaw+SluuMY4z5FcVJCV7HNPTNggsSgAOQ+lMjcTnFxmUq1y88jjs5wf4wrgmCkPBYcaCDUQaiDUQKiBp18D0s5zfQd2K8ZpEBxAr0S4momf5rLB+7/N1ciEyU2R0cARk5EIVxscrHBoj9bkUK65Cjd6rzXibCo5BS5T4OB7Q+N8qJQ5juTi9LgaWWybw/f88xzkYo84wxaAJDaSSKbsc/d8lODImiLJBQ9umps5oIL3nJTd6XHcnokiV55rDziypiRX33Vr3MHt09zQf6/OnZuDPIRITnBRcr/PtbiQPeguODJY6XDBokhwWdGj1Qr2zPKTnCNLJLlk0AUHFhk6FyxK5btc8V9d4OBcDySaCIejHihpDkpWwVnJWolrl3QdDko2DjikaTzBZeBgs6RYXORmJW/scYNc5iYaWOCyWeOWmUwVuI4m6X6Ei9j8HW4FXGSDgzWxW34o2AUZ0f0BB7GRc7ntEedEo5xtEfYMF6ALkOMyGefmPKy53FSwjsUhi7NFbplJALawyaTJjaDLLnMwdrXBLTuIvc0RTdxtzokGkxzEZoNDg+KPOQdOjs4lnSip8+EpLjmYnuSy4NaAs2uFDOdLtnpci6qMG5wDz0Q4g97sc5fNusqNcfXaHKkpfoOL0FWuJCqG4LRDci924gYXLPYXuQ9+53vHMJAtd3Ufk7MPlhQAABwnSURBVO24XKmo73JBk/0VDvWQOy0uejALXLvFEGxhS+Y5B+5EuGzQusjV38U2FzwEXNegCMA57C4XIwsR44hF6cscnNt4p4w5cHeB45mYGve9Ox/hsn9J7lE9GHA1cBLe629yjOjoFMcEt4ZclBwkOC+qgPPnFXDyHunAZ/6cywabv8Hd8/QFbpkJuXveACE2EtWUCbAGXm9wgz1ysxy7x7K5LFgB6blkNqiB7HssJToUrFjcBw80jsS2+yLnwAMwUM3EuCzYcjm7drfOwdiVBQ5J5vqZSKsWyg41EGog1ECogVADT7kGDiF07gRGjOsTlWRPssplJsMhR2Ij14mKHY5QJRe4ssV4AuQddLlBLnLA5SbBAXfXWlHue5PtVD7YylVMcO9bHtS4eqyqcXXJA3Ay1yGwiUVNmsGxc1VQdmSJgxZHfS5oIjkuU9/jAtXt1zhHJqNcYqKRycEjzpcEFa6jaWBz71vGwPF3gyZHU1XAiy7B2dhigWPAexaXkWkJzpkoYC3Yd7lMdOdlLlA1k1x7LJkNnilVseTgIMnteDjocXyqvXVu+p1MRbmLLotcBj54yLXPuSCsaYDOhFwoYqc4UlMiwWUH3UYcM+giy2XBVoeDsQOPC1yMGQ5h61qczlcKB9g934+DbWTdEZf+Z+McrOkscNEiGaGnopwzqQUc4hIBFw7EDA5S7YNlCxnhnIkLImzekEOa6hYXsI2/XcSc6PYnuWSwb3E+VA7BFXASrIF7Pgct2uADb4Nbe3ILLeyBk6RFMmDLZrmSSWOdW5Sk5ThkUQEz8Nu35rA3Nv/pHUx2rc/NFAm46pyQZpyDubpNLloUFgepCoOLFrEXdig4BY7ObYOLFvoDLkLXJHjX4tx0LJK8p/W55ODUlTXsiVse1wdOjnGdyYGJibXHwZoiyhmX/CyndPKyWTYH75GrDv0xF7BlrnM678+C6UGJKx3EY2AGvsLJdgMueNiocys97QE3/c7PcpwHKST3wHM/4wyb92nuopOlAxOsx2KpwaFgh7vmQvsEt15SdLkAPRhwGRnZTkWWa7bbIDmX3Huf4JDkvQ7XPicVm3NkrVNcBp78LhctjrlyjYhc5RYtkFFyscjtvU+ZHHHQBTkPPY9bINNscI9sFlzp2SQDtgZXKhITHBPcvQc68ACsx8oWF6F3TnH1OS3OQYuexUFNsXuc7JbJZaKDMXducuueanJvjJzzQLZTFTPcVLAGyPwnk4M4CLBx6TeJp4ayQw2EGgg1EGog1MBTrgFp5Dh4T9vmYC63zMH33ohDHsghE/ZxDnkIelwW7JkcgU6CXSbkFDgJ9r93u1zpwE9whCpnzNm1aIrzY57B2RZp73PQonaaq1sYYHuNB5I9PLBOFZjcYI98hcO5WqtcP7Q+zUGq4x3Otih9zpGlLnI8E7LDJQDH9tpjkBA9xZWKpFnhBj3ETI452AJ70NUDjuwRa3CGzTrDtdeQw1TIvdjkuY0ud9fGx7iMTAGdST7J2fMR2MpVzHKTNfdsjvkvHTAb7PucI1PqnGxtyBm24RwXLRo6l4G3dzmmqNC5HrZxnYNzo89wqIdqc3BuEhxXPBHnHFmfJGuC8y3INcnSs7n6nK9wHDqlxEXonssN/Qc3mQoXvGvxx5xBHyxyQVN6knOi5H5oC+TXRPJcy6IquGBxPsMNx7pxcx6jo0XAFjYpfC4b1BMcqWnc4TLwCLjS07c4R2aAbUXRGmfYBtNcoOr/gJt3MLrCwblygluUtL3LrZesJzhicAZcTiUSXJA8PuC4HpKcCe6Bqw41DngQsTIHc1kK58g0cHlNb44LVJMzXEamzXPdFkWdC9AbPW7PQibPEQf7dzjCZG+Zu2uxB1xC5p7nvrcUUS5yAQc1CQFOqBre4LIinUNUhf0sl5E5E9w9j0uu9m+BteARSOaayrYxSHVto4zJFhMcMXguxRmXxyc5B65sccGiVDQuIxMtrn9OG3CwpljmIrZ4goMW7evcvmAxyTHgxw5XthiDTpScOWC5XFuRGuGCxUQS5PaAK5rNGBe4RJa5dmgZDDnjkprjoMXBgCOSxaLcZbM9rnbgpLlMVAX7/gcHXISugAhbLMkFTdW1ApYFxza4N9Zd4WR39pOYzsvTHIFO10C7hmk8FBxqINRAqIFQA6EGQg08sQYkGaGT0GIM3BccN7gM/ODdiSe+LEf9oRrlyjW+y2UmAbjkIfdjDmlqXuTQPXJ4znCBg9DTOa48Z4G92J0hd889cAKdTGc5/L77iGNMehXu3D2Qfa9MczWyoMfVJRWVY8gKj3Nk7WUuaCIDF+OAu2vJc42jxrpP/PuZFEfee9TgyhaZGMftqX7AkRalD/aBa5OcEyXPbW5yxkUITrbKdRUJ+xkucHG7nM4FSFJVwAl0ia0n9oFH/mFrhuM8aAoXqGbjnD2P6xyqKWe47hoZMzir2u9zsEcyyUVssee5PnASaiInc3lDruOBHDLhj7nSgbHN6bx7jEMeyM6eKGjPo5LzJbud9JEDryf9Axmws0daLgfvzZU5qGmnxQ2gN0DWoguy0KMRLkoegXP3yWFJqsW1S9pZjp2rd7jAJZ7ikoO0wSFNd3YqT+oDj/y7SoErHfTHXA+6TJncBx85XISeiHItLt0RhzzYAw7OJckeCkgkU/ucM/GSnBNVwODBBbkeJEl1Js61U4mpI/vhJ/4DBZMj7611udG5cmBzTjQKjlosxrgPbsU41KNhcvW5zh1uAl2Q5GqDRosb4zpMg1ByjkNcjMdckFxtcKSm0y/sPbETPOoPMwaHPERUjvnvgxuiJFmXvFZcO+qdeeLf/6B6/Il/e9QfPlPYPeqfeOLf5yLcI3srwZUttAyHuNhpzoHnUxyxaGBxyUGkxTlw9ziHan7nJ888sW046g9fvXbzqH/iiX+/2uMY8Ft7XGIiFzLNJ1baUX+ogos1DMlFbEfV21F+v9njnGhpnrtrY7IPPOAceAycOdC7yUGL3oe5KY/KA273fOUCl4HnDI6N/cPm0lHM4tF+C44El1tdzqD7oGHbflA62kc7wq/VExysedDixh3OFjkH3u5z93zc5rLBoMQFD8EiZ9BdcFmRBw4san6PI5KJX3l8BKt4tJ+aIPs+AGeKcBTVo32v8NehBkINhBoINRBq4G+0BqQLbpDp2hz9fvbEPvbhtw+4CXTG/Sh2bifPwZrubgw7t5rnyFz9Hpf9Ywo/FOyDGfj8KY7jUgJX9o48rsNlElxlem+LG08tyXnkq/vcwWdna5h9WZioY7Jbac6RtQacbKXMEYvSP+TO3brKBQ8gOVcoNc6ZZGa5u7bR5ZIDN+AA3Qe7HPN/ZYbjHcgzJU64WeEm9/zorVOYE71y6SEmuz7g2sgGXS4b1E2OtNg6y/ViixHXgy48rv6uTHBO9H6N23s/leFQrhvbk5hdy2e4tmDSpkqSSBaXXGvPi1fuYpeNjFR7q1yEHt/lDLpncuWaBAe4iNZlMAMfcsGD53DZYBDh7nnB5IiDGyrXTpWNcu2S9SGXFMk02Hzfcbh6bFTjsn/L5s4tB5xxGZzmArYANOh2hhvcE4DLitQU98ZEm+tBn53lUM2swTmyWJQLFrtjDt2rV7k57HJ/xLUVkX3gD5oczLUI9t6789wgl9gdLnAZLoPBg+TaBrUOFzyoU5xBd8HRuSSq6foc6lFOcEuaJqKcbAzKPRQs7/50AZNfPs8xwQ3J1SWbY86RkZuSrFNc8KA0OQgde2CHgjP3OcSlP8sFLqrNQehkZ8/Y5wI2NHABCXQe2MklvQqXmew85LLghZUqZlcfbnKMyWiS+96jKlcrEhFwFvoBZ1Q9DkkWnsNlg36Og+83a1wtGDNqh4Jj4DrRNpgU1Rocii3VPS4zyX/AXbeDKVDp+5xVjeQ5kssQdKLxx1xbkcltzRXNs1zgotQ52wJOaRZahSsdtEZcy6IT4ZIDskU1l+MY8NJLc1Cy/ctdzIMPaglMdgzcTtUfgEYVJFQ53OcWNsdxEYX3OAi9do1r3VPAu2Y3OUJVaZGrBW/vcrPvzy5sY/b81u05TLacmud6XMhVpmqXgzUHSxy8F3nEwdhKissGnQLnTGSbg5JrL3DnNpJcJuqMuPet6tw9J4nBqs4lg7kIx76XOW7mAMf0wGKWUHCogVADoQZCDYQaePo1IG1wzeJgyMG5AtyEpppcpGpnwJgNbKdS4xzqoVW5bFBucrX/0TQH3yuSy4J9sAddcEsWRSrFdZmQq0yXyhyKLesgg86IcUbVmAfr722ujSy+wcG5w2nQqJpc4GJnuXMHKQ5Cjz/kyJp2mmthS5/hWIudEVd/V7h4TdTHHMnlSm4DS+Xl/CQXPey0uB3N+QTHxh4NOcM2WOSyf8UBX/iYC1xO/FtuD/rD3+SIRWBLsvCnuLpkKsLJXnvA7QNPTXFJ0es3T2BOdOrqW5hsubEHPnAQvm/pXLuFb3GQamSfc2Qm58dE5wSXkVVfKWAP3ItxAZsBkvd8l0NcyLGeudk2dtf673O+RIty77tpc8Rgmc9yPWzNDgd7kGtUNbB0YE1j71toz3BM0aDOPbL+HGdcVItzZKMFrkQm+lyQ3NK5u+a3OHRv9jluD3qty/mSGgjfy6HNffCAKw2KRJQbOhDVOcNWJ40LOHJQMbhMVA45Z+KBPFFfAx84RzMR8jEnHJwoKuI61zY4VdnBMpObXz2JyZYxg1M62bPYXOPWak4tH2AfXNzmJtC5JpeJijJ3z50Ud+5A42RrES5ocntcqWhc4QL0/ARXh672Uphdmyhx53avcMNzZPcdbh554hJHoJNFruVh94Aj7/mTnHEhp2ORkKre5ch74znue2tgBi7B1j13mSsV9QYcC90Hp9+1MxynKf//ciUTqXLvW3R6HNTk74GyE1xmYtS4vmAHHNureJwTJReKBC53brvBvTGDS8CFD+6eD8j58xMc+/76e4tY9r/4X3DwvRyVuTqVXOMiF7Bcc7jsgMv+PZPrCw5A9r3gEhPhgEzweI7LBod7HLEoOM61iQowOVBA2zJTaGFO1C9ygWrK4PhUHEUV+9Sh4FADoQZCDYQaCDXw9GtABlEOzp04sY9pkGwji+hcFlxtcKuxIikuUlXucNlgcoMjkg0+zWUmBsgzEZzKRZDh6pJuHyyR5bi6RXvIlWuyEQ5RleqAU/pUnGMOGirnRA8szpkEYC04keQcuHOe+971eY5gI3pgH5nggofIBtceG+X8t1Cf7WBJ0UGb63C5MsuNM/3p2gKmcxlEuBr4wYirgZeiXI1sCxwhq4BtRUOLM6qpGEew8cAlD/51DnEZTXNBk8k1uIjOs1ygKqpccnD5mVXOkSmcH/vV029z507e54ZMbCS40Xu7JmfYxh2QUQVO5grSXC/2SHLQom1zbyxIcFiyAvaBt8+B57Y4VHNigVuk4oJTZComhzw0HC4Rld1THN5TyXMN8HurXPBglLmaidfiLpsCtg32YxyUrBbB7D/JZSZKmwualr7CBYu9Ge6ujSa5YPHWDrdI5YWzj7AsWFc4Hhn3tQ/VvV/jJveIKGfYSBJbXwczE7DnQbW4eqyucw/ci3Iwtsxxsrc/wgWq6hmO27OS5TYGbWscqnmjO4M58DceLWGyJTkda67CwT37XY5wkY9z9fdemiNUGSCxyF7gsmAD7DqwG1xN1J/kApc0yPy3wJGiNyqcXbv83APMkR2Pc+OpP3n1FnZu+ezpNUz4u49mMdnHZ7kWNkPlDJsKZoPmBS47GNc5R2aCDrwLIk1cJViI7ie5IDmf5GRz7vtQ5w5XOviD689jvuRfX/tTTLbs2pzS80WuBt6xuL5By+EqF9Gb3LmND3Gra4XN4fdjcO+9kuA4Ll6H6zrQCxzPZO+Ag5KTae7cOZOb+jdZ5vagNz0uOZDrP+WyYA/cTuWDteBpcIDNwSXOiZL732PrXNDU0bm8aPnfcS1N2/+ckz3a4nSuFLhzdze54OH0i3exTPTL985jsv88ehGTzaUl2JFDwaEGQg2EGgg1EGrg6deA9GY5yMXvchAbCS0GAceIVhSOhb48yfEOqkmu48Ebc+1U1Re4THRQ51joCrjxzzS5ssXyuV3MK1UMrhf7yhw3iW3ocn5MSgMkVJW4mokFjpjcWS9gj+zsyiYmu+9wF72c4PgWDzslTOfpV2uYbA+cvOfd5KDkzBRH1jye5L63rnAB22KMG733pUccfC/NCBctdptcr2Y8wyEPjsPxc3f7XCbqgGQuEvUo5DjeQTLCtc9hkcOh4N5Zrhe7upfFjj418x4mWwXRvQf9MnbuzyzdxmTLuQy3w3Vm6jF28Pfr05jsgcplojbIgJ8Hh0yQ2X9rxPXedy1ubK/lcKUDqXGDmv7+hZ9itqWsczD2I4tzohMmF7CVdE62jEkuA8/rXL/kdIK76A8dDkIfjjijenubG7WYSXPlmvZ6BjPoRpk7NzmBTrzJQeiNaQ5ZfKBMYHftj25exWS/unwfk/3d2glMtnzczmHCyaxovcWdW1O57MDe57JBs8IFbBq4rUgBl7jYYMDmgSUTcZ4rka32uAB9EOXmeixUuDr0t26exvzY9Aw3UVQ2u1y0OBhzUDIJsZGTucagE+X470JMJjmYq7bF1UTzM9yAi8FbnCOzJjhybj/POdE6GKj2xly5xtzhkMV2nhuOJQOPa2ka7nETbJQkVzrojDkS27VT3Naew8H7WJRMCo6XOeTBsjnDNprl3pgKdtfEdG4T2r1dDkKfyHNlyckXtrEn3hxyqKYkawcbAy4z2e1wNbJ+wEWqaZ2DFn1wX/BPq3PYA5/OcFnw/Q+4LU3pWc6gxwwueCB3HRSzXLsk9sAOBZ/J7GHi13WuHCvPJ7m+4GMxboPM2/o89sE/8LgoeeBy8N5GnwvYThe5B34w4pCmIMKhHoMhd9fIFtVGjCtLTuW4YDFrcslB2+Fg7HtvLGK+RDoBB+emNY4hu5TgBh74gitb/Pgxd9mWKpzOsRd2KHh1i2uvMdLcXG7X5mzL9BRHLBqDrZp7HW7Ow8DmOE0FcEXzmQ9xZclwFjpp2UPZoQZCDYQaCDUQauAJNaC89J1/hpGDz2W5ub27FlcDd30ubmpYHOGCnIa287D4hE/k6D+LbXOZqH+Jq4n64Mx/z+XeWC7FkRYdn7trS1kO9SAJsobKjZBVlr/8P2EOnAOShch+iatTVT+EqVxEQUY06cCnslxtkGyvafe52iA5c0Co3BsDK2QiNcW1S6ai3Nje/pjjW5zIcaVBOa5xGRm5Eazzd7nMJGdwERs5j9z/CTeRbPhRjm9RSXBGtdXj3ndmnguauh0ucDk9Uz06bPOEf6Fnc45sv8ttvntuev0JNXb0nx2MuHPLWJlbtHB5cuvo2nvCv7DZ55zJepUbcKGAmYk/yw3XiLjyCW/K0X9mg7CmY3Hn9sBFSZUi18J29Bvz5H8hH+UC1a0a106lgzMmtrtcOVZ+aGb1yW/LEX9JtpGtdvNH/N8/+c8nS1xmMhHnkIfNDBc0kbXB+zscCz2a4FjouuQCNrL+7oLzDi6nuL3Y7jTHO7jd4lpzux0O5ZJXkmtP7omO+MufdI8d8S88+c+TBmfY5uLcvuB3D7jBHueKHGnRAwlVB0kOYiMnc01muCx4/YAL0DMVrh/6apxraZqLcLPQVcHNO9AWOL6F3He5vkGpcBH6TIzLgicjnGGbnOFkf/HWc08ecR3xl2QPugSX1yibXC3YnOS4HvMljhH9kcKDI97WJ/95TOHGuE5KbjV1XOUSslsWlxQpx7/0P2Phw4XJnSe/qUf8JVmX3OlxNZNPTXPL54ceN+jhS3cuHPHGPPnPC1mOZzKX4ozq/QbXuneuxKE9z2e4siTpyHQwIRv6nG0pSy4pkskYR/1/630OQp8/AY7WPOBQj68H3Nq9Z0scadHvcUs9zBI3l9vUONlkW9GjDkcUvdPkOA+ncvtPHmke8ZdTUQ7VHPscWfN4htO5LMW57GDyLNdeMw/WodMRLmgikYdvvXn+iCbiyX9++SJXG9zocjPg3/ouF7BNPcdtiLpc4HY8kAS6gzHHtyCd6I+qS09uHI74y6zkmP8cbfCISgt/Hmog1ECogVADoQb+JmtAkozoosFl/19dewb77rMZri5pe9yoxflTXF3yw7n72Pf+a/8UJlu/zBFFbY+DNR/1uPr7B5uT2PdemeFKg5bHlalUgVG5xK3uFPa95ck4NzVo3uDaDvx5bpBrQecCl3WLa6+ZANn3VsAZl8+W38Me+FcPOPLeUoJ73z+rz2I6N2McE9zUOOY/Sc6tbXFlqojO6Vz+bz/8BHbR//OXvofJJteoquDUoD1wicunMjew7/2Pv/xbmOzf++wfYbJJo1qJcuzcpM61FWlprieZnAp2bYKbKXITnOsxm+DIe/IfvvAjzLgc2Bwbe+ByM4O/v3sc0/mvzr+DybYDDlJdubKOnfu+VcFkXypxZK73alx/7EySM6pXc9xd+0jiDnbX1h2O+f8LmVvYuR3Qrsm3mvPYwWvDBCb7aokbOUhOJMMUfij4i3svYuJn4hzv4P9ZfxY7dwrseCiDY3vJbos9MDFZMbgpcG2fY2PnVW6Fa07j0B651eHmU39+kasN/tn/+QpmVJ//B9y5v7J7Djv3cppbu7fW52r/Q4sbMnGuyA1LIrc0nUxzvbmfzbyNvbGez8H3H1jT2LkndQ5xuWxyyaAsJjhCVULj+qFX/h7HSl6McuSerQFH9iAXinQsbqTo8zNcbTBvcFkRZs0PBZO2ZeBz5bkfjDkG/B8/uIJ98r+zxPFrLJ8jyMox2OrxeMS1ejxscfWaf1zhyHvNTBx7ZC8kuBnRv9v7OHZuctXhzogb2zthcoOavvj+89j39s5z4zU0kCD78iw3LKnrmtj3/l7/JCZbxnWu5eFcnBut+bUaNxXME1wL28dTHNljQuPQnqzJ1QZfSnNoDzkb2xOcIxuc5LLgr62fxQw6WZZMSQ5RrYLdNTeqHOoht9tcDfyncW78HfbCDgX/wf5LmPgXMw8x2XGTY0SrCjfooepwZYuc5IImEkqujrgOl49Mc2+MhHNvtTlHRr7vZ6e4RJQLkTE3EgoONRBqINRAqIFQA0+/BpT5P/6XWGrij7mxnr959Q3s65kqtyHq0bCEnftBh+M8vFTiVjx+Y5sbpdpscq2a5EQya8gx//+7y9/A3ti/Wf0QJvsLi5xNnTG4/e97Dodiy984/yb2wQt6D5NNTmIjd9eS9djnUpwTJb/34GccYfLMRx9jb+xulVurOVHkpsDlQK7HF8/8Ifa9ax5HkH3ZxPJQ8VWf60GXF2Lr2Affcrje3LrDrd0jGZMdN4Z9b13hFmtUxxwb+5/8yl9gOv/9//s1TPZHP38dk92yuXv+nQ63wvVsietw+XaXI++9bN7E7tq7gwVMtvLtxytY6PLl5iXs4Nfr3NCBLyy8jp2bbDNpuhycOw1CbPM6B+99vcsN7omApaKi5NC9bTuHvW+SxLZscpvQlowDTOf/6P/6R5hs5d/ffwFz4GtjriZKZmT7Iy77/8UylxUlVa7N5LHN3bVrMa4/dtPhnMk2KDuncbAm2T732OI4LtfAOQ97LleH7ntcD/r/D6ZB23xP6VKwAAAAAElFTkSuQmCC;" parent="iqJVpxYbWQjncIScGIDG-19" vertex="1">
          <mxGeometry width="46.23761855369542" height="34.397302610618176" as="geometry" />
        </mxCell>
        <mxCell id="iqJVpxYbWQjncIScGIDG-15" value="∅,&lt;span style=&quot;background-color: transparent;&quot;&gt;&amp;nbsp;↑,&amp;nbsp;&lt;/span&gt;↶,&amp;nbsp;↷" style="text;html=1;align=center;verticalAlign=middle;whiteSpace=wrap;rounded=0;fillColor=#dae8fc;strokeColor=#004C99;spacing=3;" parent="1" vertex="1">
          <mxGeometry x="160" y="460" width="60" height="20" as="geometry" />
        </mxCell>
        <mxCell id="iqJVpxYbWQjncIScGIDG-16" value="C&lt;sub&gt;WER&lt;/sub&gt;" style="text;html=1;align=center;verticalAlign=middle;whiteSpace=wrap;rounded=0;fontFamily=Helvetica;fontSize=14;fillColor=#f8cecc;strokeColor=#b85450;fontColor=#B85450;" parent="1" vertex="1">
          <mxGeometry x="477" y="462" width="43" height="20" as="geometry" />
        </mxCell>
        <mxCell id="iqJVpxYbWQjncIScGIDG-17" value="STFT" style="text;html=1;align=center;verticalAlign=middle;whiteSpace=wrap;rounded=0;fontFamily=Helvetica;fontSize=14;fillColor=#d5e8d4;strokeColor=#00994D;fontColor=#00994D;" parent="1" vertex="1">
          <mxGeometry x="598" y="480" width="44" height="20" as="geometry" />
        </mxCell>
      </root>
    </mxGraphModel>
  </diagram>
</mxfile>
